<svg width="24" height="24" viewBox="0 0 24 24" fill="none" xmlns="http://www.w3.org/2000/svg">
<path d="M15.1761 18.5881L15.0468 18.1051C15.1649 18.0735 15.2904 18.0862 15.3997 18.1408L15.1761 18.5881ZM20 21L20.495 20.9293C20.5213 21.1134 20.4432 21.2969 20.2924 21.4056C20.1415 21.5144 19.9427 21.5304 19.7764 21.4472L20 21ZM19.3468 16.4274L18.8518 16.4981C18.8277 16.3298 18.8909 16.1607 19.0195 16.0494L19.3468 16.4274ZM12 19.5C6.31089 19.5 1.5 15.7928 1.5 11H2.5C2.5 15.0438 6.64341 18.5 12 18.5V19.5ZM15.3054 19.071C14.2651 19.3496 13.1537 19.5 12 19.5V18.5C13.0669 18.5 14.0914 18.3609 15.0468 18.1051L15.3054 19.071ZM19.7764 21.4472L14.9525 19.0353L15.3997 18.1408L20.2236 20.5528L19.7764 21.4472ZM19.8417 16.3567L20.495 20.9293L19.505 21.0707L18.8518 16.4981L19.8417 16.3567ZM22.5 11C22.5 13.2639 21.411 15.3014 19.6741 16.8054L19.0195 16.0494C20.5764 14.7012 21.5 12.9254 21.5 11H22.5ZM12 2.5C17.6891 2.5 22.5 6.20723 22.5 11H21.5C21.5 6.95621 17.3566 3.5 12 3.5V2.5ZM1.5 11C1.5 6.20723 6.31089 2.5 12 2.5V3.5C6.64341 3.5 2.5 6.95621 2.5 11H1.5Z" fill="#666666"/>
</svg>
