<svg width="50" height="50" viewBox="0 0 50 50" fill="none" xmlns="http://www.w3.org/2000/svg">
<path d="M11.51 31.5334C8.62007 31.5334 7.36008 29.4917 7.36008 27.4501C7.36008 25.0001 8.46016 22.5014 9.25008 20.8186C10.04 19.1278 9.01467 16.311 9.67008 13.5667C10.3001 10.9125 12.4001 9.48335 13.61 7.85002C14.9791 5.99659 15.6001 1.31667 20.8001 1.31667C22.01 1.31667 23.3201 2.13334 23.3201 2.13334C23.3201 2.13334 24.6302 0.5 28.3601 0.5C34.0301 0.5 35.0211 5.99659 36.3902 7.85002C37.6001 9.48335 39.7001 10.9125 40.3301 13.5667C40.9855 16.311 39.9601 19.1279 40.7501 20.8186C41.54 22.5014 42.6401 25.0001 42.6401 27.4501C42.6401 29.4917 41.3801 31.5334 38.4902 31.5334C35.601 31.5334 34.5592 31.027 34.5592 31.027C33.5428 30.578 31.9219 30.6841 30.0401 31.5334C30.0401 30.7008 30.0401 30.0308 30.0401 29.5491C32.0564 27.9237 33.6774 25.3924 34.2655 22.3706C34.2655 22.3706 36.7601 22.1417 36.7601 18.4667C36.7601 17.6747 36.6256 17.1189 36.4664 16.7353C36.29 16.3269 35.9119 16.0414 35.4665 15.984C31.1992 15.4122 29.1837 7.85002 26.0419 7.85002C24.1601 7.85002 23.7401 8.66668 23.7401 8.66668C23.7401 8.66668 22.7402 7.85002 21.2201 7.85002C18.2719 7.85002 19.851 15.4943 14.5756 15.992C14.1055 16.0326 13.702 16.3349 13.5256 16.76C13.3746 17.1436 13.2401 17.6907 13.2401 18.4667C13.2401 22.1417 15.7346 22.3706 15.7346 22.3706C16.3229 25.3925 17.9438 27.9237 19.9601 29.5491C19.9601 30.0308 19.9601 30.7007 19.9601 31.5334C18.6328 30.6513 17.5828 30.3738 15.441 31.027C15.441 31.027 14.3992 31.5334 11.51 31.5334Z" fill="#979FAF"/>
<path d="M25 31.5341C26.7136 31.5341 28.4945 30.8155 30.04 29.5498C30.04 30.0315 30.04 30.7014 30.04 31.5341C30.04 31.6728 30.04 31.8117 30.04 31.9584V32.8325C30.04 35.2091 32.8627 36.5569 35.9282 37.7246C34.0046 41.9219 29.7291 44.6008 25 44.6008C20.2709 44.6008 15.9864 41.9219 14.0636 37.7246C17.1373 36.5569 19.96 35.2091 19.96 32.8325V31.9584C19.96 31.8116 19.96 31.6728 19.96 31.5341C19.96 30.7015 19.96 30.0315 19.96 29.5498C21.5055 30.8155 23.2864 31.5341 25 31.5341Z" fill="white"/>
<path d="M36.4664 16.7349C36.6256 17.1185 36.76 17.6743 36.76 18.4663C36.76 22.1413 34.2655 22.3702 34.2655 22.3702C33.6773 25.392 32.0564 27.9233 30.04 29.5487C28.4946 30.8143 26.7136 31.533 25 31.533C23.2864 31.533 21.5055 30.8144 19.96 29.5487C17.9437 27.9233 16.3227 25.3919 15.7346 22.3702C15.7346 22.3702 13.2401 22.1413 13.2401 18.4663C13.2401 17.6903 13.3746 17.1432 13.5256 16.7596C13.702 16.3345 14.1055 16.0322 14.5756 15.9916C19.851 15.4939 18.2719 7.84961 21.22 7.84961C22.7401 7.84961 23.74 8.66628 23.74 8.66628C23.74 8.66628 24.16 7.84961 26.0418 7.84961C29.1837 7.84961 31.1992 15.4117 35.4665 15.9836C35.9119 16.041 36.29 16.3265 36.4664 16.7349Z" fill="white"/>
<path d="M48.5201 49.4999H1.4801C1.4801 48.022 1.85004 43.579 8.69562 39.904C10.1738 39.1121 12.1647 38.4502 14.0637 37.7236C15.9865 41.921 20.271 44.5999 25.0001 44.5999C29.7292 44.5999 34.0047 41.921 35.9283 37.7236C37.8265 38.4502 39.8174 39.1122 41.3046 39.904C48.1502 43.579 48.5201 48.022 48.5201 49.4999Z" fill="#3BD7E2"/>
<path d="M1.4801 49.5008C1.4801 48.0229 1.85004 43.58 8.69562 39.905C10.1738 39.113 12.1647 38.4511 14.0637 37.7246C17.1374 36.5569 19.9601 35.2091 19.9601 32.8325V31.9584C19.9601 31.8116 19.9601 31.6728 19.9601 31.5341C19.9601 30.7015 19.9601 30.0315 19.9601 29.5498" stroke="#303E58" stroke-miterlimit="10" stroke-linecap="round" stroke-linejoin="round"/>
<path d="M30.04 29.5498C30.04 30.0315 30.04 30.7014 30.04 31.5341C30.04 31.6728 30.04 31.8117 30.04 31.9584V32.8325C30.04 35.2091 32.8627 36.5569 35.9282 37.7246C37.8264 38.4511 39.8173 39.1131 41.3045 39.905C48.15 43.58 48.52 48.0229 48.52 49.5008" stroke="#303E58" stroke-miterlimit="10" stroke-linecap="round" stroke-linejoin="round"/>
<path d="M14.0636 37.7236C15.9864 41.921 20.2709 44.5999 25 44.5999C29.7291 44.5999 34.0046 41.921 35.9282 37.7236" stroke="#303E58" stroke-miterlimit="10" stroke-linecap="round" stroke-linejoin="round"/>
<path d="M30.04 29.5487C32.0564 27.9233 33.6774 25.3919 34.2655 22.3702C34.2655 22.3702 36.76 22.1413 36.76 18.4663C36.76 17.6743 36.6256 17.1185 36.4664 16.7349C36.29 16.3265 35.9119 16.041 35.4665 15.9836C31.1992 15.4117 29.1837 7.84961 26.0418 7.84961C24.16 7.84961 23.74 8.66628 23.74 8.66628C23.74 8.66628 22.7401 7.84961 21.22 7.84961C18.2719 7.84961 19.851 15.4939 14.5756 15.9916C14.1055 16.0322 13.702 16.3345 13.5256 16.7596C13.3746 17.1432 13.2401 17.6903 13.2401 18.4663C13.2401 22.1413 15.7346 22.3702 15.7346 22.3702C16.3228 25.392 17.9437 27.9233 19.96 29.5487C21.5055 30.8143 23.2864 31.533 25 31.533C26.7136 31.533 28.4946 30.8143 30.04 29.5487Z" stroke="#303E58" stroke-miterlimit="10" stroke-linecap="round" stroke-linejoin="round"/>
<path d="M23.32 2.13334C23.32 2.13334 24.6301 0.5 28.36 0.5C34.03 0.5 35.021 5.99659 36.3901 7.85002C37.6 9.48335 39.7 10.9125 40.33 13.5667C40.9854 16.311 39.9601 19.1279 40.75 20.8186C41.5399 22.5014 42.64 25.0001 42.64 27.4501C42.64 29.4917 41.38 31.5334 38.4901 31.5334C35.6009 31.5334 34.5591 31.027 34.5591 31.027" stroke="#303E58" stroke-miterlimit="10" stroke-linecap="round" stroke-linejoin="round"/>
<path d="M23.3201 2.13405C23.3201 2.13405 22.01 1.31738 20.8001 1.31738C15.6002 1.31738 14.9791 5.9973 13.61 7.85073C12.4001 9.48407 10.3001 10.9132 9.67008 13.5674C9.01467 16.3117 10.04 19.1286 9.25008 20.8193C8.46016 22.5021 7.36008 25.0008 7.36008 27.4508C7.36008 29.4924 8.62007 31.5341 11.51 31.5341C14.3992 31.5341 15.441 31.0277 15.441 31.0277" stroke="#303E58" stroke-miterlimit="10" stroke-linecap="round" stroke-linejoin="round"/>
</svg>
