<svg width="58" height="58" viewBox="0 0 58 58" fill="none" xmlns="http://www.w3.org/2000/svg">
<path fill-rule="evenodd" clip-rule="evenodd" d="M31.0389 0C36.6699 0 41.2343 4.5645 41.2343 10.1952C41.2343 15.8259 36.6699 20.3904 31.0389 20.3904C25.4084 20.3904 20.8436 15.8259 20.8436 10.1952C20.8436 4.5645 25.4084 0 31.0389 0ZM43.6655 39.5865C43.2554 39.1556 43.9102 38.5323 44.3205 38.9635C45.8654 40.5872 47.47 40.5872 49.0154 38.9635C49.4257 38.5323 50.0804 39.1556 49.6701 39.5865C47.7645 41.5886 45.5711 41.5886 43.6655 39.5865ZM24.4851 11.9272V8.46381C24.4851 8.21414 24.6884 8.01069 24.938 8.01069H28.4012C28.6509 8.01069 28.8544 7.80724 28.8544 7.55757V4.09461C28.8544 3.84494 29.0578 3.64149 29.3075 3.64149H32.7705C33.0202 3.64149 33.2237 3.84494 33.2237 4.09461V7.55757C33.2237 7.80724 33.4271 8.01069 33.6768 8.01069H37.14C37.3897 8.01069 37.5932 8.21414 37.5932 8.46381V11.9272C37.5932 12.1769 37.3897 12.3801 37.14 12.3801H33.6768C33.4271 12.3801 33.2237 12.5833 33.2237 12.833V16.2964C33.2237 16.5461 33.0202 16.7493 32.7705 16.7493H29.3075C29.0578 16.7493 28.8544 16.5461 28.8544 16.2964V12.833C28.8544 12.5833 28.6509 12.3801 28.4012 12.3801H24.938C24.6886 12.3801 24.4851 12.1767 24.4851 11.9272Z" fill="#AAAAAA"/>
<path fill-rule="evenodd" clip-rule="evenodd" d="M22.6138 38.5474C22.2066 38.3884 21.8054 38.2323 21.417 38.078C20.8715 39.9333 19.3646 43.5911 17.7655 46.2457L17.2188 41.0579L15.8594 39.9251L14.5001 41.0579L13.9536 46.2446C12.3541 43.59 10.8474 39.9337 10.3018 38.0787C7.34835 39.2518 3.63657 40.547 2.37756 42.2317C1.45477 43.4665 0.277767 52.6594 0 58.0001H19.0189C19.3431 54.6372 20.4102 48.4143 22.2272 45.6374C22.8333 44.7114 23.713 44.0662 24.7253 43.6183C23.6435 42.1352 22.9264 40.3676 22.6138 38.5474ZM15.8592 34.3241C18.4849 34.3241 20.6198 30.3412 20.7258 26.7602C19.0343 26.098 18.1949 24.9944 17.4288 24.1622C15.5298 25.4611 13.4042 26.5364 10.9942 26.948C11.1263 29.5709 12.8224 34.3241 15.8592 34.3241ZM8.28928 26.0511C7.82596 25.9387 7.39661 26.1313 7.31278 26.9503C7.15963 28.4469 7.80691 29.5702 8.83279 30.2302C9.91758 33.917 12.5174 37.0428 15.8592 37.0428C19.061 37.0428 21.64 34.0971 22.7877 30.5528C22.8224 30.4452 22.8555 30.3374 22.8874 30.2288C23.912 29.5686 24.5586 28.446 24.4054 26.9503C24.3218 26.1329 23.8936 25.9396 23.4312 26.0506C23.2771 22.0306 21.0407 18.4647 15.859 18.4647C10.6442 18.4647 8.437 22.0385 8.28928 26.0511Z" fill="#AAAAAA"/>
<path fill-rule="evenodd" clip-rule="evenodd" d="M43.0597 57.9995H58C57.7961 51.6704 56.7138 43.4245 55.8311 40.9317C55.2962 39.4216 52.9959 38.6565 51.7239 38.1844C50.6502 41.8633 48.9605 43.8253 46.6679 45.5387C44.3751 43.8253 42.6854 41.8633 41.6115 38.1844C40.9937 38.4137 40.1332 38.7123 39.3499 39.1319C38.994 40.7438 38.3186 42.2944 37.353 43.6177C38.366 44.0659 39.2457 44.7109 39.8516 45.6368C41.5764 48.2731 42.7253 54.5234 43.035 57.739L43.0597 57.9995ZM46.6677 35.0037C48.1327 35.0037 49.4726 33.3766 50.2397 31.309C51.2678 30.8241 51.938 29.9335 51.7921 28.7205C51.6875 27.8501 50.9754 27.9106 50.4221 28.2348C49.8623 27.5053 49.3933 26.3546 49.2553 25.3645C48.8516 26.9371 45.4286 28.2504 43.1249 28.3773C42.5617 27.9432 41.6625 27.7332 41.5435 28.7205C41.397 29.9338 42.0676 30.8241 43.0957 31.309C43.8629 33.3763 45.2027 35.0037 46.6677 35.0037ZM53.712 27.9704C53.712 28.5166 53.676 29.0715 53.6073 29.6243C53.3638 31.5901 53.9007 33.5365 54.2882 35.4528H50.9613C49.8036 36.8332 48.3286 37.7227 46.6677 37.7227C44.9875 37.7227 43.5155 36.8321 42.363 35.4528H39.0466C39.434 33.5365 39.971 31.5901 39.7274 29.6243C39.659 29.0717 39.6229 28.5166 39.6229 27.9702C39.6229 26.2336 40.0043 24.5466 40.8179 23.1517C43.1895 19.0857 49.9567 19.0027 52.4283 23.0078C53.3051 24.4288 53.712 26.1736 53.712 27.9704Z" fill="#AAAAAA"/>
<path fill-rule="evenodd" clip-rule="evenodd" d="M31.0389 41.8565C32.8859 41.8565 34.4414 38.9404 34.501 36.3665C33.3986 35.9068 33.327 35.1285 33.2153 34.4133C32.5886 35.9242 29.8902 36.2421 27.5691 36.5443C27.6912 39.072 29.2772 41.8565 31.0389 41.8565ZM21.7498 57.9997C22.1846 53.4867 23.5623 48.5615 24.5019 47.1253C24.9727 46.406 25.9267 45.9581 27.1162 45.6907L27.8668 48.5454L31.0387 46.7329L34.2106 48.5454L34.9616 45.6907C36.1511 45.9581 37.1052 46.406 37.576 47.1253C38.5155 48.5615 39.8932 53.4867 40.3278 57.9997H21.7498ZM24.87 35.9136C24.4933 35.7928 24.1285 35.917 24.0612 36.5783C23.9411 37.753 24.4695 38.6246 25.2933 39.1189C26.1646 42.0622 28.2945 44.5754 31.0391 44.5754C33.6636 44.5754 35.7657 42.2384 36.693 39.4264C36.7268 39.3237 36.7587 39.2207 36.7893 39.1167C37.6111 38.6216 38.1376 37.751 38.0175 36.5783C37.9498 35.9156 37.5843 35.7924 37.2069 35.9143C37.0884 32.6822 35.2457 29.8021 31.0391 29.8021C27.8523 29.8021 26.0464 31.437 25.2738 33.6548C25.0275 34.3605 24.8975 35.1265 24.87 35.9136Z" fill="#AAAAAA"/>
</svg>
