<svg width="58" height="32" viewBox="0 0 58 32" fill="none" xmlns="http://www.w3.org/2000/svg">
<path d="M9.31011 25.308C11.5761 25.308 13.4901 24.428 14.5901 23.35V16.002H8.80411V18.664H11.6861V21.876C11.2241 22.272 10.4321 22.492 9.64011 22.492C6.45011 22.492 4.82211 20.358 4.82211 16.816C4.82211 13.318 6.71411 11.206 9.42011 11.206C10.8941 11.206 11.8181 11.8 12.6101 12.57L14.3481 10.502C13.2921 9.424 11.6641 8.412 9.31011 8.412C4.97611 8.412 1.50011 11.558 1.50011 16.926C1.50011 22.36 4.86611 25.308 9.31011 25.308ZM20.2716 25.308C21.9656 25.308 23.1536 24.494 24.2096 23.24H24.2976L24.5396 25H27.1796V12.68H23.9456V20.996C23.1096 22.096 22.4496 22.536 21.4376 22.536C20.2496 22.536 19.7216 21.876 19.7216 19.962V12.68H16.4876V20.38C16.4876 23.46 17.6316 25.308 20.2716 25.308ZM34.7735 25.308C36.3135 25.308 37.8755 24.78 39.0855 23.944L37.9855 21.964C37.1055 22.514 36.2255 22.822 35.2135 22.822C33.3875 22.822 32.0675 21.766 31.8035 19.742H39.3935C39.4815 19.456 39.5475 18.862 39.5475 18.268C39.5475 14.858 37.7875 12.372 34.3995 12.372C31.4515 12.372 28.6575 14.858 28.6575 18.862C28.6575 22.91 31.3415 25.308 34.7735 25.308ZM31.7595 17.608C32.0015 15.804 33.1455 14.88 34.4435 14.88C36.0275 14.88 36.7755 15.936 36.7755 17.608H31.7595ZM44.5307 25.308C47.7427 25.308 49.4367 23.57 49.4367 21.414C49.4367 19.126 47.6327 18.312 46.0047 17.696C44.7067 17.212 43.4967 16.882 43.4967 15.98C43.4967 15.276 44.0247 14.792 45.1247 14.792C46.0487 14.792 46.9067 15.232 47.7867 15.848L49.2387 13.89C48.2047 13.12 46.8407 12.372 45.0367 12.372C42.2647 12.372 40.4607 13.934 40.4607 16.156C40.4607 18.202 42.2647 19.148 43.8267 19.742C45.1247 20.248 46.4007 20.666 46.4007 21.59C46.4007 22.36 45.8507 22.888 44.6187 22.888C43.4747 22.888 42.4187 22.404 41.3187 21.546L39.8447 23.57C41.0547 24.582 42.8807 25.308 44.5307 25.308ZM54.6976 25.308C55.7756 25.308 56.6336 25.066 57.2936 24.846L56.7656 22.492C56.4356 22.624 55.9516 22.756 55.5556 22.756C54.4556 22.756 53.8836 22.096 53.8836 20.688V15.232H56.9196V12.68H53.8836V9.38H51.1776L50.8036 12.68L48.9116 12.834V15.232H50.6496V20.688C50.6496 23.46 51.7716 25.308 54.6976 25.308Z" fill="white"/>
</svg>
