<svg width="36" height="26" viewBox="0 0 36 26" fill="none" xmlns="http://www.w3.org/2000/svg">
<path d="M28.9566 6.01948C28.4589 4.81538 27.6514 3.7025 26.539 2.79373C23.9325 0.664031 20.0453 0.205839 17.0331 2.65474C16.3813 3.18459 15.1224 4.29965 15.1224 4.29965C15.0936 4.26382 15.0092 4.15687 14.9313 4.06513C12.9912 1.76443 10.596 0.547845 7.53263 1.17052C4.35873 1.816 2.22864 3.72909 1.34546 6.83433C0.461733 9.9412 1.29102 12.6648 3.63237 14.8966C4.84225 16.0491 6.09133 17.1625 7.34913 18.2624C9.71553 20.3313 12.083 22.3975 14.4865 24.4224C15.3996 25.1911 15.154 25.2019 16.0829 24.3985C18.0704 22.6792 20.06 20.961 22.0365 19.2287" fill="#D8F7F9"/>
<path d="M28.9566 6.01948C28.4589 4.81538 27.6514 3.7025 26.539 2.79373C23.9325 0.664031 20.0453 0.205839 17.0331 2.65474C16.3813 3.18459 15.1224 4.29965 15.1224 4.29965C15.0936 4.26382 15.0092 4.15687 14.9313 4.06513C12.9912 1.76443 10.596 0.547845 7.53263 1.17052C4.35873 1.816 2.22864 3.72909 1.34546 6.83433C0.461733 9.9412 1.29102 12.6648 3.63237 14.8966C4.84225 16.0491 6.09133 17.1625 7.34913 18.2624C9.71553 20.3313 12.083 22.3975 14.4865 24.4224C15.3996 25.1911 15.154 25.2019 16.0829 24.3985C18.0704 22.6792 20.06 20.961 22.0365 19.2287" stroke="#666666" stroke-miterlimit="10" stroke-linecap="round" stroke-linejoin="round"/>
<path d="M28.5183 20.7832C32.0981 20.7832 35.0001 17.8898 35.0001 14.3208C35.0001 10.7517 32.0981 7.8584 28.5183 7.8584C24.9385 7.8584 22.0366 10.7517 22.0366 14.3208C22.0366 17.8898 24.9385 20.7832 28.5183 20.7832Z" fill="#3BD7E2" stroke="#666666" stroke-miterlimit="10" stroke-linecap="round" stroke-linejoin="round"/>
<path d="M25.0487 14.2647L27.622 16.8303L31.9878 12.4775" fill="#3BD7E2"/>
<path d="M25.0487 14.2647L27.622 16.8303L31.9878 12.4775" stroke="#666666" stroke-miterlimit="10" stroke-linecap="round" stroke-linejoin="round"/>
</svg>
