<svg width="188" height="70" viewBox="0 0 188 70" fill="none" xmlns="http://www.w3.org/2000/svg">
<rect width="188" height="70" fill="#3BD7E2"/>
<path d="M55.4829 31.728H57.8989V30.368H51.2749V31.728H53.8829V32.528C53.8829 35.392 52.9709 37.904 50.8749 39.12L51.8829 40.352C53.3069 39.504 54.2349 38.032 54.7309 36.192C55.2589 37.792 56.1549 39.104 57.5309 39.856L58.4909 38.592C56.3949 37.504 55.4829 35.136 55.4829 32.528V31.728ZM61.9149 28.768V34.48H60.3309V29.04H58.7789V42.56H60.3309V35.84H61.9149V43.232H63.4829V28.768H61.9149ZM70.6976 37.68H73.6576V40.176H70.6976V37.68ZM75.2896 40.176V37.68H77.4176V36.352H68.7616V34.352H77.0976V29.792H67.1136V31.12H75.4656V33.04H67.1456V37.68H69.0656V40.176H65.5616V41.536H78.6496V40.176H75.2896ZM93.6501 28.784V36.544H95.2981V28.784H93.6501ZM85.8581 37.216V43.056H95.2981V37.216H93.6661V38.816H87.4901V37.216H85.8581ZM87.4901 40.096H93.6661V41.728H87.4901V40.096ZM87.5061 29.44C85.2981 29.44 83.6661 30.816 83.6661 32.8C83.6661 34.784 85.2981 36.16 87.5061 36.16C89.7141 36.16 91.3301 34.784 91.3301 32.8C91.3301 30.816 89.7141 29.44 87.5061 29.44ZM87.5061 30.8C88.8021 30.8 89.7301 31.6 89.7301 32.8C89.7301 34.016 88.8021 34.8 87.5061 34.8C86.1941 34.8 85.2821 34.016 85.2821 32.8C85.2821 31.6 86.1941 30.8 87.5061 30.8ZM105.377 35.472C103.809 35.744 102.481 35.808 100.065 35.808V33.936H104.689V29.616H98.4169V30.944H103.057V32.672H98.4489V37.152H99.5049C102.337 37.152 103.809 37.104 105.553 36.8L105.377 35.472ZM100.065 39.744H108.193V43.264H109.841V38.4H100.065V39.744ZM108.193 28.784V30.864H105.601V32.192H108.193V33.888H105.601V35.216H108.193V37.68H109.841V28.784H108.193ZM116.56 38.768C115.392 38.768 114.544 37.968 114.544 36.752C114.544 35.536 115.392 34.736 116.56 34.736C117.728 34.736 118.576 35.536 118.576 36.752C118.576 37.968 117.728 38.768 116.56 38.768ZM116.56 33.376C114.48 33.376 112.976 34.784 112.976 36.752C112.976 38.736 114.48 40.128 116.56 40.128C118.624 40.128 120.144 38.736 120.144 36.752C120.144 34.784 118.624 33.376 116.56 33.376ZM117.36 28.992H115.712V31.008H112.272V32.352H120.736V31.008H117.36V28.992ZM125.792 34.592H123.568V28.784H121.904V43.248H123.568V35.968H125.792V34.592ZM127.646 30.304V31.648H132.798C132.51 34.976 130.718 37.52 126.926 39.344L127.806 40.656C132.766 38.256 134.494 34.608 134.494 30.304H127.646ZM137.102 28.784V43.232H138.75V28.784H137.102Z" fill="white"/>
</svg>
