<svg width="164" height="164" viewBox="0 0 164 164" fill="none" xmlns="http://www.w3.org/2000/svg">
<rect width="164" height="164" rx="10" fill="#F4F4F4"/>
<path d="M49.1263 119.432H57.4143V115.592H47.4463V116.904H55.7663V118.2H47.4783V122.088H57.7823V120.792H49.1263V119.432ZM57.0943 113.032C57.3983 111.496 57.3983 110.28 57.3983 109.336V108.376H47.5903V109.704H55.7823C55.7823 110.6 55.7343 111.656 55.4463 113.032H45.9423V114.36H59.0303V113.032H57.0943ZM66.8148 119.176H68.2228V115.72H71.4708V114.392H68.2228V110.936H66.8148V114.392H63.5668V115.72H66.8148V119.176ZM86.2375 107.768V122.264H87.9015V107.768H86.2375ZM80.2055 108.84C78.0615 108.84 76.4935 110.824 76.4935 113.928C76.4935 117.064 78.0615 119.032 80.2055 119.032C82.3655 119.032 83.9335 117.064 83.9335 113.928C83.9335 110.824 82.3655 108.84 80.2055 108.84ZM80.2055 110.328C81.4695 110.328 82.3495 111.688 82.3495 113.928C82.3495 116.2 81.4695 117.56 80.2055 117.56C78.9575 117.56 78.0775 116.2 78.0775 113.928C78.0775 111.688 78.9575 110.328 80.2055 110.328ZM91.2603 109.144V118.696H98.0443V109.144H91.2603ZM96.4283 110.456V117.368H92.8763V110.456H96.4283ZM100.716 107.768V122.264H102.38V107.768H100.716ZM110.299 110.584H113.515V109.224H105.419V110.584H108.635V111.96C108.635 114.44 107.147 117.128 104.907 118.168L105.851 119.48C107.547 118.664 108.843 116.952 109.483 114.936C110.155 116.808 111.451 118.376 113.131 119.112L114.043 117.816C111.787 116.856 110.299 114.36 110.299 111.96V110.584ZM115.195 107.784V122.232H116.859V107.784H115.195Z" fill="#666666"/>
<path d="M110.949 44.75H63.1992V81.94H110.949V44.75Z" fill="#3BD7E2"/>
<path d="M110.949 82.69H63.1992C62.7892 82.69 62.4492 82.35 62.4492 81.94V44.75C62.4492 44.34 62.7892 44 63.1992 44H110.949C111.359 44 111.699 44.34 111.699 44.75V81.94C111.699 82.36 111.369 82.69 110.949 82.69ZM63.9492 81.19H110.199V45.5H63.9492V81.19Z" fill="#666666"/>
<path d="M107.809 47.9707H66.3086V78.7307H107.809V47.9707Z" fill="#D8F7F9"/>
<path d="M107.809 79.4807H66.3086C65.8986 79.4807 65.5586 79.1407 65.5586 78.7307V47.9707C65.5586 47.5607 65.8986 47.2207 66.3086 47.2207H107.809C108.219 47.2207 108.559 47.5607 108.559 47.9707V78.7307C108.559 79.1407 108.219 79.4807 107.809 79.4807ZM67.0586 77.9807H107.059V48.7207H67.0586V77.9807Z" fill="#666666"/>
<path d="M68.7094 72.2907C68.5594 72.2907 68.3994 72.2407 68.2594 72.1407C67.9294 71.8907 67.8594 71.4207 68.0994 71.0907L78.1994 57.4707C78.3294 57.2907 78.5494 57.1807 78.7694 57.1707C78.9994 57.1607 79.2194 57.2507 79.3594 57.4207L89.3095 68.7407C89.5795 69.0507 89.5494 69.5306 89.2394 69.8006C88.9294 70.0706 88.4494 70.0407 88.1794 69.7307L78.8494 59.1007L69.2994 71.9807C69.1694 72.1807 68.9394 72.2907 68.7094 72.2907Z" fill="#666666"/>
<path d="M105.75 72.8994C105.54 72.8994 105.32 72.8094 105.17 72.6294L95.8397 61.4394L88.4497 71.6794C88.2097 72.0094 87.7397 72.0894 87.3997 71.8494C87.0597 71.6094 86.9897 71.1394 87.2297 70.7994L95.1897 59.7794C95.3297 59.5894 95.5397 59.4794 95.7697 59.4694C95.9897 59.4594 96.2297 59.5594 96.3697 59.7394L106.32 71.6794C106.59 71.9994 106.54 72.4694 106.22 72.7394C106.09 72.8394 105.92 72.8994 105.75 72.8994Z" fill="#666666"/>
<path d="M102.84 53.6299C102.84 55.4099 101.4 56.8399 99.6299 56.8399C97.8599 56.8399 96.4199 55.3999 96.4199 53.6299C96.4199 51.8599 97.8599 50.4199 99.6299 50.4199C101.4 50.4199 102.84 51.8499 102.84 53.6299Z" fill="#3BD7E2"/>
<path d="M99.6299 57.5899C97.4399 57.5899 95.6699 55.8099 95.6699 53.6299C95.6699 51.4399 97.4499 49.6699 99.6299 49.6699C101.82 49.6699 103.59 51.4499 103.59 53.6299C103.59 55.8099 101.81 57.5899 99.6299 57.5899ZM99.6299 51.1699C98.2699 51.1699 97.1699 52.2799 97.1699 53.6299C97.1699 54.9899 98.2699 56.0899 99.6299 56.0899C100.99 56.0899 102.09 54.9799 102.09 53.6299C102.09 52.2699 100.99 51.1699 99.6299 51.1699Z" fill="#666666"/>
<path d="M76.3119 34.7217H55.1185C53.7903 34.7217 52.7123 35.7996 52.7123 37.1278V52.5369C52.7123 53.8651 53.7903 54.943 55.1185 54.943H63.3475L69.4592 58.918L67.6786 54.943H76.3023C77.6305 54.943 78.7084 53.8651 78.7084 52.5369V37.1278C78.7181 35.7996 77.6401 34.7217 76.3119 34.7217Z" fill="#D8F7F9"/>
<path d="M69.4589 59.64C69.6225 59.64 69.7957 59.5823 69.9305 59.4668C70.1711 59.255 70.2481 58.9182 70.123 58.6198L68.8044 55.665H76.3212C78.044 55.665 79.4492 54.2598 79.4492 52.537V37.128C79.4492 35.4052 78.044 34 76.3212 34H55.1278C53.405 34 51.9998 35.4052 51.9998 37.128V52.537C51.9998 54.2598 53.405 55.665 55.1278 55.665H63.1451L69.0835 59.5149C69.1894 59.6015 69.3241 59.64 69.4589 59.64ZM76.3116 35.4437C77.2355 35.4437 77.9959 36.204 77.9959 37.128V52.537C77.9959 53.4706 77.2355 54.2213 76.3116 54.2213H67.6879C67.4473 54.2213 67.2163 54.3465 67.0816 54.5486C66.9468 54.7507 66.9276 55.0106 67.0334 55.2319L67.813 56.9644L63.7514 54.3272C63.6359 54.2502 63.5012 54.2117 63.3568 54.2117H55.1278C54.2038 54.2117 53.4435 53.4514 53.4435 52.5274V37.1184C53.4435 36.1944 54.2038 35.4341 55.1278 35.4341H76.3116V35.4437Z" fill="#666666"/>
<path d="M60.8071 44.6557C60.8071 45.5123 60.1142 46.1956 59.2672 46.1956C58.4106 46.1956 57.7176 45.5026 57.7176 44.6557C57.7176 43.7991 58.4106 43.1157 59.2672 43.1157C60.1142 43.1157 60.8071 43.8087 60.8071 44.6557Z" fill="#3BD7E2"/>
<path d="M59.267 46.9264C60.5182 46.9264 61.5288 45.9062 61.5288 44.6646C61.5288 43.4134 60.5182 42.4028 59.267 42.4028C58.0158 42.4028 56.9956 43.423 56.9956 44.6646C56.9956 45.9062 58.0158 46.9264 59.267 46.9264ZM59.267 43.8369C59.7194 43.8369 60.0851 44.2026 60.0851 44.655C60.0851 45.1073 59.7194 45.4731 59.267 45.4731C58.8147 45.4731 58.4393 45.1073 58.4393 44.655C58.4393 44.2026 58.805 43.8369 59.267 43.8369Z" fill="#666666"/>
<path d="M67.3413 44.6449C67.3413 45.5015 66.6483 46.1945 65.8014 46.1945C64.9448 46.1945 64.2518 45.5015 64.2518 44.6449C64.2518 43.798 64.9448 43.105 65.8014 43.105C66.6483 43.105 67.3413 43.798 67.3413 44.6449Z" fill="#3BD7E2"/>
<path d="M65.7919 46.917C67.0431 46.917 68.0537 45.8968 68.0537 44.6456C68.0537 43.3944 67.0335 42.3838 65.7919 42.3838C64.5407 42.3838 63.5205 43.404 63.5205 44.6456C63.5301 45.8968 64.5407 46.917 65.7919 46.917ZM65.7919 43.8275C66.2443 43.8275 66.61 44.1932 66.61 44.6456C66.61 45.0979 66.2443 45.4733 65.7919 45.4733C65.3396 45.4733 64.9642 45.1076 64.9642 44.6456C64.9738 44.1932 65.3396 43.8275 65.7919 43.8275Z" fill="#666666"/>
<path d="M73.7329 44.6658C73.7329 45.5128 73.0399 46.2057 72.193 46.2057C71.346 46.2057 70.6434 45.5128 70.6434 44.6658C70.6434 43.8092 71.3364 43.1162 72.193 43.1162C73.0496 43.1258 73.7329 43.8188 73.7329 44.6658Z" fill="#3BD7E2"/>
<path d="M72.1928 46.9268C73.444 46.9268 74.4546 45.9162 74.4546 44.665C74.4546 43.4138 73.4344 42.3936 72.1928 42.3936C70.9416 42.3936 69.9214 43.4138 69.9214 44.665C69.931 45.9162 70.9416 46.9268 72.1928 46.9268ZM72.1928 43.8469C72.6452 43.8469 73.0109 44.2126 73.0109 44.6746C73.0109 45.127 72.6452 45.4927 72.1928 45.4927C71.7404 45.4927 71.3651 45.127 71.3651 44.6746C71.3747 44.2126 71.7404 43.8469 72.1928 43.8469Z" fill="#666666"/>
</svg>
