<svg width="32" height="34" viewBox="0 0 32 34" fill="none" xmlns="http://www.w3.org/2000/svg">
<path d="M24.5 4.5H3H1.5L1 6V32L2.5 33H24L26 18V6.5V5L24.5 4.5Z" fill="#D8F7F9"/>
<path d="M13.5 1C11.5 1 10.6667 2.66667 10.5 3.5H9L8 4L7 4.5L6.5 6V8H20.5V5L19.5 4L18.5 3.5H16.5C16.3333 2.66667 15.5 1 13.5 1Z" fill="#62DFE8"/>
<path d="M17.0465 33.0001H2.39535C1.62512 33.0001 1 32.3768 1 31.6088V5.86981C1 5.10182 1.62512 4.47852 2.39535 4.47852H5.18605" stroke="#666666" stroke-miterlimit="10"/>
<path d="M21.9303 4.47852H24.721C25.4912 4.47852 26.1163 5.10182 26.1163 5.86981V15.6089" stroke="#666666" stroke-miterlimit="10"/>
<path d="M14.9536 30.2171H3.79077V7.26074H5.18612" stroke="#666666" stroke-miterlimit="10"/>
<path d="M21.9303 7.26074H23.3256V15.6085" stroke="#666666" stroke-miterlimit="10"/>
<path d="M18.4419 3.78259H16.3489C16.3489 2.24591 15.0994 1 13.5582 1C12.017 1 10.7675 2.24591 10.7675 3.78259H8.67447C7.51843 3.78259 6.58145 4.71685 6.58145 5.86954V7.95648H20.5349V5.86954C20.5349 4.71685 19.598 3.78259 18.4419 3.78259Z" stroke="#666666" stroke-miterlimit="10"/>
<path d="M13.5581 3.08594V4.47723" stroke="#666666" stroke-miterlimit="10"/>
<path d="M23.3255 33.0006C27.564 33.0006 31 29.5746 31 25.3484C31 21.1223 27.564 17.6963 23.3255 17.6963C19.0871 17.6963 15.6511 21.1223 15.6511 25.3484C15.6511 29.5746 19.0871 33.0006 23.3255 33.0006Z" fill="#D8F7F9" stroke="#666666" stroke-miterlimit="10"/>
<path d="M7.97668 13.5205L9.37203 14.9118L12.1627 11.4336" stroke="#666666" stroke-miterlimit="10" stroke-linecap="round"/>
<path d="M7.97668 19.0869L9.37203 20.4782L12.1627 17" stroke="#666666" stroke-miterlimit="10" stroke-linecap="round"/>
<path d="M7.97668 24.6524L9.37203 26.0437L12.1627 22.5654" stroke="#666666" stroke-miterlimit="10" stroke-linecap="round"/>
<path d="M24.7209 23.9564V21.1738H21.9302V23.9564H19.1395V26.739H21.9302V29.5216H24.7209V26.739H27.5116V23.9564H24.7209Z" fill="#62DFE8" stroke="#666666" stroke-miterlimit="10"/>
</svg>
