<svg width="343" height="770" viewBox="0 0 343 770" fill="none" xmlns="http://www.w3.org/2000/svg">
<rect x="11" y="74" width="1" height="691" fill="#DDDDDD"/>
<circle cx="11" cy="766" r="4" fill="#C4C4C4"/>
<path d="M22.5 65C22.5 70.799 17.799 75.5 12 75.5C6.20101 75.5 1.5 70.799 1.5 65C1.5 59.201 6.20101 54.5 12 54.5C17.799 54.5 22.5 59.201 22.5 65Z" fill="white" stroke="#666666"/>
<path d="M12 58V65L16 69" stroke="#666666" stroke-linecap="round"/>
<path d="M22.5 315C22.5 320.799 17.799 325.5 12 325.5C6.20101 325.5 1.5 320.799 1.5 315C1.5 309.201 6.20101 304.5 12 304.5C17.799 304.5 22.5 309.201 22.5 315Z" fill="white" stroke="#666666"/>
<path d="M12 308V315L16 319" stroke="#666666" stroke-linecap="round"/>
<path d="M22.5 565C22.5 570.799 17.799 575.5 12 575.5C6.20101 575.5 1.5 570.799 1.5 565C1.5 559.201 6.20101 554.5 12 554.5C17.799 554.5 22.5 559.201 22.5 565Z" fill="white" stroke="#666666"/>
<path d="M12 558V565L16 569" stroke="#666666" stroke-linecap="round"/>
<path d="M40.784 70H48.368V68.816H42.784L45.664 66.32C47.52 64.72 48.256 63.536 48.256 62.048C48.256 60.08 46.656 58.816 44.752 58.816C43.024 58.816 41.792 59.632 40.88 60.928L41.76 61.648C42.512 60.624 43.424 59.936 44.704 59.936C45.872 59.936 46.992 60.72 46.992 62.064C46.992 63.152 46.352 64.208 44.8 65.536L40.784 68.96V70ZM52.3019 70H53.5499V59.008H52.5419L49.8379 60.848L50.3819 61.776L52.3019 60.528V70ZM57.1105 70.192C57.5745 70.192 57.9585 69.792 57.9585 69.312C57.9585 68.864 57.5745 68.464 57.1105 68.464C56.6145 68.464 56.2305 68.864 56.2305 69.312C56.2305 69.792 56.6145 70.192 57.1105 70.192ZM64.6294 70.192C67.3014 70.192 69.1894 67.84 69.1894 64.496C69.1894 61.168 67.3014 58.816 64.6294 58.816C61.9414 58.816 60.0534 61.168 60.0534 64.496C60.0534 67.84 61.9414 70.192 64.6294 70.192ZM64.6294 69.04C62.6934 69.04 61.3174 67.152 61.3174 64.496C61.3174 61.84 62.6934 59.968 64.6294 59.968C66.5654 59.968 67.9254 61.84 67.9254 64.496C67.9254 67.152 66.5654 69.04 64.6294 69.04ZM75.4686 63.136C74.1726 63.136 73.0366 63.76 72.3646 64.816V64.672C72.3646 62.032 73.7566 59.952 75.5166 59.952C76.5726 59.952 77.2926 60.432 77.9806 61.104L78.6686 60.128C77.8526 59.344 76.8926 58.816 75.5486 58.816C73.0526 58.816 71.1006 61.392 71.1006 64.672C71.1006 67.776 72.3006 70.192 75.2766 70.192C77.5646 70.192 79.1486 68.592 79.1486 66.56C79.1486 64.384 77.4686 63.136 75.4686 63.136ZM75.2606 69.12C73.7246 69.12 72.8286 67.92 72.5086 66.256C72.7806 65.04 73.8526 64.208 75.2446 64.208C76.7166 64.208 77.8846 65.12 77.8846 66.624C77.8846 67.84 76.9086 69.12 75.2606 69.12ZM82.1574 70.192C82.6214 70.192 83.0054 69.792 83.0054 69.312C83.0054 68.864 82.6214 68.464 82.1574 68.464C81.6614 68.464 81.2774 68.864 81.2774 69.312C81.2774 69.792 81.6614 70.192 82.1574 70.192ZM87.0363 70H88.2843V59.008H87.2763L84.5723 60.848L85.1163 61.776L87.0363 60.528V70ZM96.0849 70H97.3329V67.328H98.9809V66.192H97.3329V59.008H95.8929L90.4369 66.288L90.5969 67.328H96.0849V70ZM91.8609 66.192L96.0849 60.512V66.192H91.8609Z" fill="#111111"/>
<rect x="40" y="85.999" width="303" height="184" rx="8" fill="#EAEAEA"/>
<path d="M320.724 67.164H321.36V59.172H320.724V61.284H318.648V61.824H320.724V63.276H318.648V63.804H320.724V67.164ZM314.832 60.636H316.812V64.68C316.14 64.728 315.48 64.74 314.832 64.752V60.636ZM319.08 64.5C318.552 64.572 318 64.62 317.436 64.656V60.636H318.636V60.096H313.032V60.636H314.208V64.764C313.68 64.776 313.176 64.776 312.72 64.776L312.816 65.34C314.568 65.34 317.028 65.316 319.116 64.992L319.08 64.5ZM315.312 69.036V66.468H314.676V69.576H321.672V69.036H315.312ZM329.987 64.26C328.499 63.768 327.167 62.52 327.167 61.008V60.48H329.771V59.952H323.915V60.48H326.531V61.008C326.531 62.592 325.223 63.912 323.735 64.44L324.059 64.956C325.331 64.476 326.423 63.492 326.867 62.208C327.311 63.408 328.427 64.344 329.675 64.764L329.987 64.26ZM331.583 69.132H326.111V67.488H331.583V69.132ZM331.583 66.96H326.111V65.508H325.475V69.672H332.207V65.508H331.583V66.96ZM331.571 59.184V64.944H332.207V59.184H331.571Z" fill="#AAAAAA"/>
<rect x="303.5" y="53.5" width="39" height="23" rx="11.5" stroke="#DDDDDD"/>
<path d="M270.78 64.368C269.328 63.84 268.056 62.448 268.056 60.912V59.7H267.444V60.876C267.444 62.616 266.208 64.044 264.708 64.62L265.032 65.148C266.304 64.62 267.348 63.576 267.768 62.208C268.212 63.432 269.256 64.416 270.444 64.884L270.78 64.368ZM266.076 66.756H272.256V69.828H272.892V66.216H266.076V66.756ZM274.56 62.124H272.892V59.172H272.256V65.64H272.892V62.664H274.56V62.124ZM278.507 61.068H280.631V60.528H275.687V61.068H277.895V62.304C277.895 64.332 276.875 66.288 275.447 67.14L275.867 67.62C276.971 66.936 277.835 65.568 278.207 63.996C278.579 65.46 279.407 66.708 280.487 67.368L280.895 66.888C279.491 66.084 278.507 64.188 278.507 62.304V61.068ZM281.771 63.108H279.791V63.66H281.771V69.252H282.383V59.472H281.771V63.108ZM283.907 59.184V69.84H284.531V59.184H283.907Z" fill="#AAAAAA"/>
<rect x="255.5" y="53.5" width="39" height="23" rx="11.5" stroke="#DDDDDD"/>
<rect x="40" y="335.999" width="303" height="184" rx="8" fill="#EAEAEA"/>
<path d="M320.724 317.164H321.36V309.172H320.724V311.284H318.648V311.824H320.724V313.276H318.648V313.804H320.724V317.164ZM314.832 310.636H316.812V314.68C316.14 314.728 315.48 314.74 314.832 314.752V310.636ZM319.08 314.5C318.552 314.572 318 314.62 317.436 314.656V310.636H318.636V310.096H313.032V310.636H314.208V314.764C313.68 314.776 313.176 314.776 312.72 314.776L312.816 315.34C314.568 315.34 317.028 315.316 319.116 314.992L319.08 314.5ZM315.312 319.036V316.468H314.676V319.576H321.672V319.036H315.312ZM329.987 314.26C328.499 313.768 327.167 312.52 327.167 311.008V310.48H329.771V309.952H323.915V310.48H326.531V311.008C326.531 312.592 325.223 313.912 323.735 314.44L324.059 314.956C325.331 314.476 326.423 313.492 326.867 312.208C327.311 313.408 328.427 314.344 329.675 314.764L329.987 314.26ZM331.583 319.132H326.111V317.488H331.583V319.132ZM331.583 316.96H326.111V315.508H325.475V319.672H332.207V315.508H331.583V316.96ZM331.571 309.184V314.944H332.207V309.184H331.571Z" fill="#AAAAAA"/>
<rect x="303.5" y="303.5" width="39" height="23" rx="11.5" stroke="#DDDDDD"/>
<path d="M271.78 314.368C270.328 313.84 269.056 312.448 269.056 310.912V309.7H268.444V310.876C268.444 312.616 267.208 314.044 265.708 314.62L266.032 315.148C267.304 314.62 268.348 313.576 268.768 312.208C269.212 313.432 270.256 314.416 271.444 314.884L271.78 314.368ZM267.076 316.756H273.256V319.828H273.892V316.216H267.076V316.756ZM275.56 312.124H273.892V309.172H273.256V315.64H273.892V312.664H275.56V312.124ZM279.507 311.068H281.631V310.528H276.687V311.068H278.895V312.304C278.895 314.332 277.875 316.288 276.447 317.14L276.867 317.62C277.971 316.936 278.835 315.568 279.207 313.996C279.579 315.46 280.407 316.708 281.487 317.368L281.895 316.888C280.491 316.084 279.507 314.188 279.507 312.304V311.068ZM282.771 313.108H280.791V313.66H282.771V319.252H283.383V309.472H282.771V313.108ZM284.907 309.184V319.84H285.531V309.184H284.907Z" fill="#AAAAAA"/>
<rect x="256.5" y="303.5" width="39" height="23" rx="11.5" stroke="#DDDDDD"/>
<path d="M40.784 570H48.368V568.816H42.784L45.664 566.32C47.52 564.72 48.256 563.536 48.256 562.048C48.256 560.08 46.656 558.816 44.752 558.816C43.024 558.816 41.792 559.632 40.88 560.928L41.76 561.648C42.512 560.624 43.424 559.936 44.704 559.936C45.872 559.936 46.992 560.72 46.992 562.064C46.992 563.152 46.352 564.208 44.8 565.536L40.784 568.96V570ZM52.3019 570H53.5499V559.008H52.5419L49.8379 560.848L50.3819 561.776L52.3019 560.528V570ZM57.1105 570.192C57.5745 570.192 57.9585 569.792 57.9585 569.312C57.9585 568.864 57.5745 568.464 57.1105 568.464C56.6145 568.464 56.2305 568.864 56.2305 569.312C56.2305 569.792 56.6145 570.192 57.1105 570.192ZM64.6294 570.192C67.3014 570.192 69.1894 567.84 69.1894 564.496C69.1894 561.168 67.3014 558.816 64.6294 558.816C61.9414 558.816 60.0534 561.168 60.0534 564.496C60.0534 567.84 61.9414 570.192 64.6294 570.192ZM64.6294 569.04C62.6934 569.04 61.3174 567.152 61.3174 564.496C61.3174 561.84 62.6934 559.968 64.6294 559.968C66.5654 559.968 67.9254 561.84 67.9254 564.496C67.9254 567.152 66.5654 569.04 64.6294 569.04ZM74.9086 570.192C77.1646 570.192 78.8126 568.752 78.8126 566.576C78.8126 564.4 77.1646 563.152 75.1806 563.152C74.1726 563.152 73.4206 563.488 72.8286 563.888L72.9406 560.192H78.2206V559.008H71.7246L71.5646 564.656L72.4766 565.104C73.1646 564.592 73.9806 564.256 74.9246 564.256C76.4606 564.256 77.5486 565.216 77.5486 566.624C77.5486 568.016 76.4766 569.072 74.9566 569.072C73.7406 569.072 72.7006 568.464 71.8526 567.536L71.0366 568.448C71.9326 569.472 73.2126 570.192 74.9086 570.192ZM81.7668 570.192C82.2308 570.192 82.6148 569.792 82.6148 569.312C82.6148 568.864 82.2308 568.464 81.7668 568.464C81.2708 568.464 80.8868 568.864 80.8868 569.312C80.8868 569.792 81.2708 570.192 81.7668 570.192ZM84.5496 570H92.1336V568.816H86.5496L89.4296 566.32C91.2856 564.72 92.0216 563.536 92.0216 562.048C92.0216 560.08 90.4216 558.816 88.5176 558.816C86.7896 558.816 85.5576 559.632 84.6456 560.928L85.5256 561.648C86.2776 560.624 87.1896 559.936 88.4696 559.936C89.6376 559.936 90.7576 560.72 90.7576 562.064C90.7576 563.152 90.1176 564.208 88.5656 565.536L84.5496 568.96V570ZM97.9555 570.192C100.212 570.192 101.86 568.752 101.86 566.576C101.86 564.4 100.212 563.152 98.2275 563.152C97.2195 563.152 96.4675 563.488 95.8755 563.888L95.9875 560.192H101.267V559.008H94.7715L94.6115 564.656L95.5235 565.104C96.2115 564.592 97.0275 564.256 97.9715 564.256C99.5075 564.256 100.596 565.216 100.596 566.624C100.596 568.016 99.5235 569.072 98.0035 569.072C96.7875 569.072 95.7475 568.464 94.8995 567.536L94.0835 568.448C94.9795 569.472 96.2595 570.192 97.9555 570.192Z" fill="#111111"/>
<rect x="40" y="585.999" width="303" height="184" rx="8" fill="#EAEAEA"/>
<path d="M320.724 567.164H321.36V559.172H320.724V561.284H318.648V561.824H320.724V563.276H318.648V563.804H320.724V567.164ZM314.832 560.636H316.812V564.68C316.14 564.728 315.48 564.74 314.832 564.752V560.636ZM319.08 564.5C318.552 564.572 318 564.62 317.436 564.656V560.636H318.636V560.096H313.032V560.636H314.208V564.764C313.68 564.776 313.176 564.776 312.72 564.776L312.816 565.34C314.568 565.34 317.028 565.316 319.116 564.992L319.08 564.5ZM315.312 569.036V566.468H314.676V569.576H321.672V569.036H315.312ZM329.987 564.26C328.499 563.768 327.167 562.52 327.167 561.008V560.48H329.771V559.952H323.915V560.48H326.531V561.008C326.531 562.592 325.223 563.912 323.735 564.44L324.059 564.956C325.331 564.476 326.423 563.492 326.867 562.208C327.311 563.408 328.427 564.344 329.675 564.764L329.987 564.26ZM331.583 569.132H326.111V567.488H331.583V569.132ZM331.583 566.96H326.111V565.508H325.475V569.672H332.207V565.508H331.583V566.96ZM331.571 559.184V564.944H332.207V559.184H331.571Z" fill="#AAAAAA"/>
<rect x="303.5" y="553.5" width="39" height="23" rx="11.5" stroke="#DDDDDD"/>
<path d="M270.78 564.368C269.328 563.84 268.056 562.448 268.056 560.912V559.7H267.444V560.876C267.444 562.616 266.208 564.044 264.708 564.62L265.032 565.148C266.304 564.62 267.348 563.576 267.768 562.208C268.212 563.432 269.256 564.416 270.444 564.884L270.78 564.368ZM266.076 566.756H272.256V569.828H272.892V566.216H266.076V566.756ZM274.56 562.124H272.892V559.172H272.256V565.64H272.892V562.664H274.56V562.124ZM278.507 561.068H280.631V560.528H275.687V561.068H277.895V562.304C277.895 564.332 276.875 566.288 275.447 567.14L275.867 567.62C276.971 566.936 277.835 565.568 278.207 563.996C278.579 565.46 279.407 566.708 280.487 567.368L280.895 566.888C279.491 566.084 278.507 564.188 278.507 562.304V561.068ZM281.771 563.108H279.791V563.66H281.771V569.252H282.383V559.472H281.771V563.108ZM283.907 559.184V569.84H284.531V559.184H283.907Z" fill="#AAAAAA"/>
<rect x="255.5" y="553.5" width="39" height="23" rx="11.5" stroke="#DDDDDD"/>
<path d="M11.484 12.526V14.88H14.982V21.436H17.886V6.63H14.982V12.526H11.484ZM2.244 8.148V10.458H8.558C8.074 13.428 5.412 15.848 1.188 17.168L2.376 19.5C8.272 17.63 11.66 13.626 11.66 8.148H2.244ZM7.546 24.23V19.984H4.642V26.54H18.392V24.23H7.546ZM20.7763 7.95V10.26H27.1783C26.7383 13.032 24.2523 15.32 19.8303 16.508L20.9963 18.84C26.9803 17.168 30.3683 13.406 30.3683 7.95H20.7763ZM29.3563 24.648C26.8923 24.648 25.4183 24.01 25.4183 22.756C25.4183 21.502 26.8923 20.864 29.3563 20.864C31.8203 20.864 33.2943 21.502 33.2943 22.756C33.2943 24.01 31.8203 24.648 29.3563 24.648ZM29.3563 18.598C25.2643 18.598 22.5583 20.226 22.5583 22.756C22.5583 25.308 25.2643 26.914 29.3563 26.914C33.4483 26.914 36.1543 25.308 36.1543 22.756C36.1543 20.226 33.4483 18.598 29.3563 18.598ZM35.9343 11.36V6.608H33.0303V18.334H35.9343V13.758H38.6183V11.36H35.9343ZM46.2609 11.228H51.1229V8.918H43.4009V22.382H44.7869C47.7569 22.382 49.7589 22.294 52.0249 21.854L51.7829 19.478C50.0009 19.83 48.3729 19.962 46.2609 20.006V11.228ZM53.2569 14.022H49.7369V16.376H53.2569V25.99H55.9629V7.004H53.2569V14.022ZM57.4589 6.608V26.87H60.2089V6.608H57.4589ZM75.7272 6.608V26.936H78.6312V6.608H75.7272ZM67.7412 8.038C64.6832 8.038 62.4172 10.81 62.4172 15.254C62.4172 19.72 64.6832 22.514 67.7412 22.514C70.7992 22.514 73.0652 19.72 73.0652 15.254C73.0652 10.81 70.7992 8.038 67.7412 8.038ZM67.7412 10.656C69.2372 10.656 70.2712 12.262 70.2712 15.254C70.2712 18.268 69.2372 19.874 67.7412 19.874C66.2452 19.874 65.2112 18.268 65.2112 15.254C65.2112 12.262 66.2452 10.656 67.7412 10.656ZM84.6895 16.222H90.4975V13.956H84.6895V10.656H91.1795V8.324H81.8075V22.338H83.4575C86.8675 22.338 89.4635 22.272 92.3895 21.81L92.1255 19.478C89.6395 19.874 87.4175 19.984 84.6895 20.006V16.222ZM94.9855 6.608V13.758H91.5095V16.09H94.9855V26.936H97.8895V6.608H94.9855ZM105.73 22.558H116.906V26.914H119.81V20.248H105.73V22.558ZM108.81 9.688H116.84V12.306H108.81V9.688ZM114.288 16.486V14.594H119.7V7.422H105.95V14.594H111.384V16.486H103.706V18.796H122.01V16.486H114.288ZM124.768 23.218H136.076V26.826H138.98V20.93H124.768V23.218ZM133.37 17.476V16.024H139.266V13.824H127.892V12.504H138.848V7.026H124.988V9.226H135.988V10.458H125.032V16.024H130.466V17.476H122.744V19.786H141.092V17.476H133.37Z" fill="black"/>
<path d="M297.34 13.29H301.578V12.406H296.274V20.102H297.171C299.381 20.102 300.785 20.024 302.475 19.712L302.345 18.828C300.772 19.127 299.407 19.205 297.34 19.205V13.29ZM304.23 11.301V15.526H300.889V16.41H304.23V22.988H305.296V11.301H304.23ZM309.754 15.084H315.708V17.229H309.754V15.084ZM313.264 20.596V18.087H316.748V12.133H315.708V14.213H309.754V12.133H308.701V18.087H312.185V20.596H307.453V21.467H318.022V20.596H313.264ZM319.906 12.562V13.42H324.287C324.066 16.189 322.506 18.425 319.373 19.92L319.945 20.791C323.819 18.893 325.366 15.929 325.366 12.562H319.906ZM327.719 11.301V22.962H328.785V11.301H327.719ZM338.849 20.492H339.798V17.645H342.437V16.761H339.798V13.927H338.849V16.761H336.21V17.645H338.849V20.492Z" fill="#666666"/>
<rect x="40" y="52" width="100" height="26" rx="8" fill="#EAEAEA"/>
<rect x="40" y="302" width="100" height="26" rx="8" fill="#EAEAEA"/>
<rect x="40" y="552" width="100" height="26" rx="8" fill="#EAEAEA"/>
</svg>
