<svg width="12" height="12" viewBox="0 0 12 12" fill="none" xmlns="http://www.w3.org/2000/svg">
<path d="M7.21167 4.22207C6.63014 2.95998 4.83646 2.96 4.2549 4.22207C4.2099 4.31972 4.12313 4.38729 4.02244 4.40297C2.62881 4.61988 2.05526 6.31501 3.03086 7.33356L3.10878 7.41491C3.1815 7.49089 3.21471 7.60028 3.19757 7.70762L3.16944 7.88328C2.95273 9.23665 4.39541 10.2414 5.58967 9.56889C5.67954 9.5184 5.78702 9.5184 5.87701 9.56889C7.07127 10.2414 8.51395 9.23665 8.29724 7.88328L8.26911 7.70762C8.25185 7.60028 8.28506 7.49089 8.35779 7.41491L8.43569 7.33359C9.41132 6.31505 8.83777 4.61988 7.44413 4.40297C7.34355 4.38716 7.25666 4.31959 7.21167 4.22207Z" fill="#FECE00"/>
<path d="M11.2135 4.41191C8.96113 4.06872 7.02778 2.62602 6.05764 0.564548L5.99823 0.438302C5.94844 0.332545 5.84577 0.265625 5.7333 0.265625C5.62083 0.265625 5.51805 0.332664 5.46826 0.438302L5.4088 0.56465C4.43869 2.62606 2.5054 4.06872 0.253137 4.41191C0.141694 4.429 0.0492815 4.51074 0.0145269 4.62295C-0.0203416 4.73504 0.00871551 4.85837 0.0892777 4.94058C1.7288 6.61654 2.47346 8.97238 2.09505 11.2862L2.08134 11.37C2.06231 11.4863 2.10789 11.6038 2.19894 11.6731C2.28987 11.7424 2.41043 11.7516 2.51013 11.6966C4.51649 10.5905 6.95001 10.5905 8.95636 11.6966C8.99966 11.7204 9.04683 11.7322 9.09401 11.7322C9.09477 11.7322 9.09554 11.7322 9.0963 11.7322C9.25906 11.7316 9.39073 11.5931 9.39073 11.4224C9.39073 11.3947 9.3872 11.3678 9.38082 11.3422L9.37165 11.2862C8.99325 8.97228 9.73791 6.61638 11.3774 4.94034C11.458 4.85813 11.4869 4.7348 11.4522 4.62271C11.4173 4.51074 11.3248 4.42888 11.2135 4.41191ZM8.24577 7.27609C8.17615 7.34731 8.14435 7.44984 8.16088 7.55046L8.17976 7.66592C8.39133 8.95963 7.01879 9.92813 5.87084 9.29516C5.78469 9.24783 5.6818 9.24783 5.59576 9.29516C4.44775 9.92814 3.07516 8.95959 3.28675 7.66582L3.30561 7.55046C3.32213 7.44984 3.29034 7.34731 3.2206 7.27609L3.16921 7.22354C2.23402 6.26749 2.77327 4.65427 4.09539 4.45278C4.19168 4.43808 4.27486 4.37475 4.31794 4.28321C4.88151 3.08569 6.58501 3.08568 7.14855 4.28321C7.19151 4.37475 7.27481 4.43808 7.37109 4.45278C8.69322 4.65427 9.23244 6.26751 8.2972 7.22351L8.24577 7.27609Z" fill="#FECE00"/>
</svg>
