<svg width="58" height="58" viewBox="0 0 58 58" fill="none" xmlns="http://www.w3.org/2000/svg">
<path fill-rule="evenodd" clip-rule="evenodd" d="M38.969 36.7036L51.613 23.9274C52.2786 23.1438 53.2701 22.6442 54.3739 22.6442C56.369 22.6442 58 24.2754 58 26.2692V42.8226C58 44.3179 56.7763 45.5413 55.2812 45.5413V58H50.75V52.3362H7.25V58H2.71875V45.5413C1.22366 45.5413 0 44.3179 0 42.8226V30.8122C0 28.8185 1.62922 27.1874 3.62297 27.1874C5.61672 27.1874 7.25 28.8189 7.25 30.8122V33.163C8.29559 31.4819 10.1421 30.3595 12.2344 30.3595H23.9361L27.4406 36.9333H30.5094L26.748 29.8772L30.3913 28.0864L38.969 36.7036ZM7.25022 45.5393V48.7116H50.7502V45.5393H7.25022Z" fill="#AAAAAA"/>
<path fill-rule="evenodd" clip-rule="evenodd" d="M46.3981 11.2645C49.2762 11.2645 51.6091 13.5974 51.6091 16.4755C51.6091 19.3533 49.2762 21.6864 46.3981 21.6864C43.5201 21.6864 41.1872 19.3533 41.1872 16.4755C41.1872 13.5974 43.5201 11.2645 46.3981 11.2645ZM34.4375 12.3982V0.897873C34.4375 0.404871 34.033 0.000226563 33.5396 0L24.0074 0.000691416C23.514 0.000464853 23.1096 0.405558 23.1096 0.898786V12.3962C23.1096 12.7528 23.3504 13.0544 23.6986 13.133C24.7705 13.374 25.8637 13.534 26.9611 13.6167V14.416C26.9611 14.836 27.3048 15.18 27.7249 15.18H27.8674C27.8735 17.8371 28.946 18.839 30.9563 20.2695C32.412 21.3053 33.99 22.4282 33.99 25.8298V26.3924L33.0301 26.8797L38.9689 32.8517L46.4031 25.2897C46.91 24.7743 46.6539 23.9081 45.9462 23.7615C43.1545 23.1835 41.3299 22.7112 38.5441 24.0798L35.7977 25.4743C35.6922 21.4214 33.7759 20.0574 32.0042 18.7966C30.5453 17.7585 29.6941 17.1282 29.6799 15.1795H29.8222C30.2422 15.1795 30.5861 14.8356 30.5861 14.4156V13.6171C31.6834 13.5347 32.7765 13.3754 33.8484 13.1341C34.1966 13.0562 34.4375 12.7553 34.4375 12.3982ZM28.7734 10.6487C27.272 10.6487 26.0546 9.43162 26.0546 7.92996C26.0546 7.3733 26.2221 6.85582 26.5091 6.42467L26.5159 6.41446L26.5223 6.40495L28.7734 3.07606L31.0236 6.40381L31.0318 6.41584L31.0379 6.42489C31.3249 6.85581 31.4921 7.37352 31.4921 7.93018C31.4921 9.43162 30.2748 10.6487 28.7734 10.6487Z" fill="#AAAAAA"/>
</svg>
