<svg width="30" height="30" viewBox="0 0 30 30" fill="none" xmlns="http://www.w3.org/2000/svg">
<path d="M7.5 26L3.5 22L1 29L7.5 26Z" fill="#62DFE8"/>
<path d="M8 26L4 22L21 5L25 9L8 26Z" fill="#D8F7F9"/>
<path d="M25 9L21 5L23 3H24.5L27 6V7L25 9Z" fill="#62DFE8"/>
<path d="M26.8334 7.38695C27.3727 6.83452 27.3727 5.93905 26.8334 5.38592L24.742 3.24342C24.2027 2.691 23.3286 2.691 22.7893 3.24342L3.7619 21.9268L1 29.0001L7.90475 26.1707L26.8334 7.38695Z" stroke="#666666" stroke-miterlimit="10" stroke-linejoin="round"/>
<path d="M5.8335 24.0491L23.0954 7.07324" stroke="#666666" stroke-miterlimit="10" stroke-linejoin="round"/>
<path d="M25.1667 9.19514L21.0238 4.95117" stroke="#666666" stroke-miterlimit="10" stroke-linejoin="round"/>
<path d="M7.90469 26.1717L3.76184 21.9277" stroke="#666666" stroke-miterlimit="10" stroke-linejoin="round"/>
<path d="M12.0477 0V1.41466" stroke="#666666" stroke-miterlimit="10" stroke-linejoin="round"/>
<path d="M12.0477 2.8291V4.24376" stroke="#666666" stroke-miterlimit="10" stroke-linejoin="round"/>
<path d="M11.357 2.12207H9.97607" stroke="#666666" stroke-miterlimit="10" stroke-linejoin="round"/>
<path d="M14.1191 2.12207H12.7382" stroke="#666666" stroke-miterlimit="10" stroke-linejoin="round"/>
<path d="M26.5475 14.1465V16.2685" stroke="#666666" stroke-miterlimit="10" stroke-linejoin="round"/>
<path d="M26.5475 19.0986V21.2206" stroke="#666666" stroke-miterlimit="10" stroke-linejoin="round"/>
<path d="M25.1665 17.6836H23.0951" stroke="#666666" stroke-miterlimit="10" stroke-linejoin="round"/>
<path d="M30 17.6836H27.9286" stroke="#666666" stroke-miterlimit="10" stroke-linejoin="round"/>
<path d="M22.4048 23.3418L21.0238 24.7565" stroke="#666666" stroke-miterlimit="10" stroke-linejoin="round"/>
<path d="M18.9524 26.8779L17.5225 28.3428" stroke="#666666" stroke-miterlimit="10" stroke-linejoin="round"/>
<path d="M18.9524 24.7565L17.5225 23.3418" stroke="#666666" stroke-miterlimit="10" stroke-linejoin="round"/>
<path d="M22.4048 28.2926L21.0238 26.8779" stroke="#666666" stroke-miterlimit="10" stroke-linejoin="round"/>
<path d="M8.64438 6.36621L7.26343 7.78087" stroke="#666666" stroke-miterlimit="10" stroke-linejoin="round"/>
<path d="M5.19183 9.90137L3.76184 11.3662" stroke="#666666" stroke-miterlimit="10" stroke-linejoin="round"/>
<path d="M5.19183 7.78087L3.76184 6.36621" stroke="#666666" stroke-miterlimit="10" stroke-linejoin="round"/>
<path d="M8.64438 11.316L7.26343 9.90137" stroke="#666666" stroke-miterlimit="10" stroke-linejoin="round"/>
</svg>
