<svg width="187" height="70" viewBox="0 0 187 70" fill="none" xmlns="http://www.w3.org/2000/svg">
<rect width="187" height="70" fill="#666666"/>
<path d="M76.4945 28.8V37.024H78.1425V28.8H76.4945ZM68.6865 37.744V43.056H78.1425V37.744H68.6865ZM76.5265 39.056V41.744H70.3025V39.056H76.5265ZM70.3505 29.504C68.1425 29.504 66.5105 30.896 66.5105 32.912C66.5105 34.928 68.1425 36.32 70.3505 36.32C72.5585 36.32 74.1745 34.928 74.1745 32.912C74.1745 30.896 72.5585 29.504 70.3505 29.504ZM70.3505 30.864C71.6305 30.864 72.5745 31.68 72.5745 32.912C72.5745 34.16 71.6305 34.96 70.3505 34.96C69.0545 34.96 68.1265 34.16 68.1265 32.912C68.1265 31.68 69.0545 30.864 70.3505 30.864ZM86.0453 29.984H84.3973V32.352C84.3973 35.136 82.8933 37.904 80.5893 38.944L81.5653 40.32C83.3093 39.472 84.5893 37.76 85.2453 35.664C85.9013 37.616 87.1653 39.216 88.8293 40L89.7893 38.688C87.5173 37.664 86.0453 35.008 86.0453 32.352V29.984ZM90.9413 28.768V43.264H92.6053V28.768H90.9413ZM100.38 31.568H103.516V30.224H95.596V31.568H98.716V32.736C98.716 35.344 97.26 38.096 95.036 39.168L96.012 40.48C97.692 39.616 98.94 37.856 99.58 35.808C100.22 37.744 101.452 39.376 103.1 40.176L104.06 38.88C101.82 37.84 100.38 35.184 100.38 32.736V31.568ZM105.532 28.768V33.936H102.684V35.296H105.532V43.248H107.18V28.768H105.532ZM118.155 35.584C115.947 34.88 114.747 33.2 114.747 31.408V31.136H117.771V29.808H110.011V31.136H113.083V31.424C113.083 33.392 111.819 35.248 109.547 36.032L110.379 37.328C112.107 36.736 113.323 35.504 113.963 33.968C114.587 35.312 115.739 36.352 117.355 36.864L118.155 35.584ZM116.299 41.936C114.283 41.936 113.115 41.424 113.115 40.496C113.115 39.552 114.283 39.056 116.299 39.056C118.315 39.056 119.483 39.552 119.483 40.496C119.483 41.424 118.315 41.936 116.299 41.936ZM116.299 37.76C113.323 37.76 111.483 38.768 111.483 40.496C111.483 42.208 113.323 43.232 116.299 43.232C119.275 43.232 121.115 42.208 121.115 40.496C121.115 38.768 119.275 37.76 116.299 37.76ZM120.955 32.304V28.784H119.307V37.424H120.955V33.664H123.003V32.304H120.955Z" fill="white"/>
</svg>
