<svg width="16" height="16" viewBox="0 0 16 16" fill="none" xmlns="http://www.w3.org/2000/svg">
<path fill-rule="evenodd" clip-rule="evenodd" d="M12.1203 6.56016C12.1203 9.63095 9.63095 12.1203 6.56016 12.1203C3.48937 12.1203 1 9.63095 1 6.56016C1 3.48937 3.48937 1 6.56016 1C9.63095 1 12.1203 3.48937 12.1203 6.56016ZM10.8319 11.539C9.68416 12.5247 8.19172 13.1203 6.56016 13.1203C2.93708 13.1203 0 10.1832 0 6.56016C0 2.93708 2.93708 0 6.56016 0C10.1832 0 13.1203 2.93708 13.1203 6.56016C13.1203 8.19172 12.5247 9.68416 11.539 10.8319L15.997 15.2899L15.2899 15.997L10.8319 11.539Z" fill="#666666"/>
</svg>
