<svg width="24" height="24" viewBox="0 0 24 24" fill="none" xmlns="http://www.w3.org/2000/svg">
<g id="Icon/Setting">
<g id="Setting">
<path id="Path_33946" fill-rule="evenodd" clip-rule="evenodd" d="M20.8066 7.62337L20.1842 6.54328C19.6576 5.62936 18.4907 5.31408 17.5755 5.83847V5.83847C17.1399 6.0951 16.6201 6.16791 16.1307 6.04084C15.6413 5.91378 15.2226 5.59727 14.9668 5.16113C14.8023 4.8839 14.7139 4.56815 14.7105 4.2458V4.2458C14.7254 3.72898 14.5304 3.22816 14.17 2.85743C13.8096 2.48669 13.3145 2.27762 12.7975 2.27783H11.5435C11.037 2.27783 10.5513 2.47967 10.194 2.8387C9.83667 3.19773 9.63716 3.68435 9.63959 4.19088V4.19088C9.62458 5.23668 8.77246 6.07657 7.72655 6.07646C7.4042 6.07311 7.08844 5.9847 6.81122 5.82017V5.82017C5.89605 5.29577 4.7291 5.61105 4.20252 6.52497L3.53433 7.62337C3.00839 8.53615 3.31938 9.70236 4.22998 10.2321V10.2321C4.82189 10.5738 5.18652 11.2053 5.18652 11.8888C5.18652 12.5723 4.82189 13.2038 4.22998 13.5456V13.5456C3.32054 14.0717 3.00921 15.2351 3.53433 16.1451V16.1451L4.16591 17.2344C4.41263 17.6795 4.82659 18.0081 5.31618 18.1472C5.80577 18.2863 6.33062 18.2247 6.77461 17.9758V17.9758C7.21106 17.7211 7.73117 17.6513 8.21932 17.782C8.70748 17.9126 9.12322 18.2328 9.37415 18.6714C9.53868 18.9486 9.62709 19.2644 9.63044 19.5868V19.5868C9.63044 20.6433 10.4869 21.4998 11.5435 21.4998H12.7975C13.8505 21.4998 14.7055 20.6489 14.7105 19.5959V19.5959C14.7081 19.0878 14.9089 18.5998 15.2681 18.2405C15.6274 17.8812 16.1155 17.6804 16.6236 17.6829C16.9452 17.6915 17.2596 17.7795 17.5389 17.9392V17.9392C18.4517 18.4651 19.6179 18.1541 20.1476 17.2435V17.2435L20.8066 16.1451C21.0617 15.7073 21.1318 15.1858 21.0012 14.6961C20.8706 14.2065 20.5502 13.7891 20.111 13.5364V13.5364C19.6717 13.2837 19.3514 12.8663 19.2208 12.3767C19.0902 11.8871 19.1602 11.3656 19.4153 10.9277C19.5812 10.6381 19.8214 10.398 20.111 10.2321V10.2321C21.0161 9.70265 21.3264 8.54325 20.8066 7.63252V7.63252V7.62337Z" stroke="#666666" stroke-linecap="round" stroke-linejoin="round"/>
<circle id="Ellipse_737" cx="12.1751" cy="11.8886" r="2.63616" stroke="#666666" stroke-linecap="round" stroke-linejoin="round"/>
</g>
</g>
</svg>
