<svg width="182" height="34" viewBox="0 0 182 34" fill="none" xmlns="http://www.w3.org/2000/svg">
<path d="M20.97 13.718H23.756V12.766H16.966V13.718H19.836V15.314C19.836 17.442 18.324 19.822 16.532 20.718L17.204 21.628C18.618 20.9 19.836 19.304 20.41 17.47C20.984 19.15 22.16 20.62 23.56 21.32L24.218 20.396C22.398 19.542 20.97 17.316 20.97 15.314V13.718ZM28.474 16.546H26.402V11.492H25.254V24.036H26.402V17.512H28.474V16.546ZM39.7149 11.478H38.5669V20.69H39.7149V11.478ZM36.9709 17.736C35.1089 17.05 33.8349 15.342 33.8349 13.452V12.178H32.6869V13.452C32.6869 15.412 31.4269 17.232 29.5369 17.96L30.1389 18.898C31.6089 18.282 32.7429 17.064 33.2749 15.538C33.8349 16.966 34.9409 18.1 36.3689 18.646L36.9709 17.736ZM32.7849 22.818V19.836H31.6369V23.756H40.0929V22.818H32.7849ZM46.1538 12.402C44.2078 12.402 42.7938 13.592 42.7938 15.356C42.7938 17.106 44.2078 18.31 46.1538 18.31C48.1138 18.31 49.5138 17.106 49.5138 15.356C49.5138 13.592 48.1138 12.402 46.1538 12.402ZM46.1538 13.382C47.4558 13.382 48.3938 14.18 48.3938 15.356C48.3938 16.518 47.4558 17.33 46.1538 17.33C44.8518 17.33 43.9138 16.518 43.9138 15.356C43.9138 14.18 44.8518 13.382 46.1538 13.382ZM51.1658 11.478V24.064H52.3138V11.478H51.1658ZM42.3038 21.306C44.5718 21.306 47.6098 21.292 50.4378 20.76L50.3398 19.906C47.5958 20.326 44.4458 20.34 42.1638 20.34L42.3038 21.306ZM64.3756 14.74V15.678H66.8536V18.968H68.0156V11.492H66.8536V14.74H64.3756ZM65.0756 17.596C63.2556 16.952 62.0236 15.37 62.0236 13.76V13.326H64.7816V12.402H58.0756V13.326H60.8756V13.76C60.8756 15.566 59.5876 17.26 57.7116 17.946L58.3136 18.856C59.7836 18.296 60.9456 17.12 61.4776 15.664C62.0236 16.952 63.1016 17.988 64.5016 18.492L65.0756 17.596ZM63.8716 23.14C61.9816 23.14 60.8336 22.608 60.8336 21.698C60.8336 20.788 61.9816 20.242 63.8716 20.242C65.7616 20.242 66.9096 20.788 66.9096 21.698C66.9096 22.608 65.7616 23.14 63.8716 23.14ZM63.8716 19.36C61.2956 19.36 59.6856 20.214 59.6856 21.698C59.6856 23.182 61.2956 24.036 63.8716 24.036C66.4476 24.036 68.0436 23.182 68.0436 21.698C68.0436 20.214 66.4476 19.36 63.8716 19.36ZM72.8165 15.552H79.2285V17.862H72.8165V15.552ZM76.5965 21.488V18.786H80.3485V12.374H79.2285V14.614H72.8165V12.374H71.6825V18.786H75.4345V21.488H70.3385V22.426H81.7205V21.488H76.5965ZM91.7994 13.676H84.4634V16.364H93.1574V15.538H85.5974V14.46H92.9334V11.842H84.4354V12.654H91.7994V13.676ZM85.5274 21.88H92.9754V19.206H84.3654V20.032H91.8414V21.082H84.3934V23.868H93.3674V23.042H85.5274V21.88ZM83.0074 17.316V18.184H94.3894V17.316H83.0074ZM101.047 13.438H107.473V17.512H101.047V13.438ZM104.855 21.474V18.422H108.593V12.528H99.9412V18.422H103.693V21.474H98.5972V22.426H109.979V21.474H104.855ZM114.612 20.186C113.394 20.186 112.54 18.87 112.54 16.826C112.54 14.796 113.394 13.48 114.612 13.48C115.816 13.48 116.67 14.796 116.67 16.826C116.67 18.87 115.816 20.186 114.612 20.186ZM114.612 12.444C112.764 12.444 111.448 14.152 111.448 16.826C111.448 19.5 112.764 21.208 114.612 21.208C116.46 21.208 117.762 19.5 117.762 16.826C117.762 14.152 116.46 12.444 114.612 12.444ZM122.998 16.49H120.926V11.492H119.778V24.036H120.926V17.456H122.998V16.49ZM126.413 15.552H132.825V17.862H126.413V15.552ZM130.193 21.488V18.786H133.945V12.374H132.825V14.614H126.413V12.374H125.279V18.786H129.031V21.488H123.935V22.426H135.317V21.488H130.193ZM140.328 12.668H139.222V15.062C139.222 17.218 138.186 19.472 136.464 20.48L137.178 21.348C138.424 20.578 139.334 19.15 139.782 17.484C140.23 19.01 141.07 20.34 142.26 21.068L142.918 20.172C141.266 19.164 140.328 17.036 140.328 15.02V12.668ZM143.632 15.986H141.56V16.938H143.632V23.42H144.71V11.758H143.632V15.986ZM146.18 11.478V24.036H147.272V11.478H146.18ZM153.207 18.52C153.725 18.646 154.327 18.716 154.943 18.716C155.573 18.716 156.175 18.646 156.707 18.52V21.474H153.207V18.52ZM154.943 13.172C156.959 13.172 158.415 14.096 158.415 15.496C158.415 16.896 156.959 17.82 154.943 17.82C152.927 17.82 151.485 16.896 151.485 15.496C151.485 14.096 152.927 13.172 154.943 13.172ZM157.855 21.474V18.072C158.891 17.526 159.507 16.63 159.507 15.496C159.507 13.536 157.617 12.276 154.943 12.276C152.283 12.276 150.379 13.536 150.379 15.496C150.379 16.63 151.009 17.54 152.059 18.086V21.474H149.259V22.426H160.669V21.474H157.855ZM163.146 23.182C163.65 23.182 164.07 22.79 164.07 22.216C164.07 21.642 163.65 21.222 163.146 21.222C162.642 21.222 162.222 21.642 162.222 22.216C162.222 22.79 162.642 23.182 163.146 23.182Z" fill="white"/>
<rect x="0.5" y="0.5" width="181" height="33" rx="16.5" stroke="white" stroke-opacity="0.7"/>
</svg>
