<svg width="100" height="100" viewBox="0 0 100 100" fill="none" xmlns="http://www.w3.org/2000/svg">
<circle cx="50" cy="50" r="50" fill="white"/>
<path d="M74.984 42.0341L51.13 28.3376C50.8125 28.1288 50.4418 28.0124 50.0631 28.0009C50.0587 28.0007 50.0542 28.0003 50.0499 28.0002C50.0333 27.9998 50.0166 28.0001 49.9999 28.0001C49.9834 28.0001 49.9668 27.9998 49.9501 28.0002C49.9457 28.0003 49.9413 28.0007 49.9369 28.0009C49.5582 28.0124 49.1874 28.1288 48.8699 28.3376L25.0159 42.0341C24.0459 42.5911 23.7115 43.832 24.2715 44.7968C24.8316 45.7615 26.0796 46.0941 27.0495 45.5372L49.9999 32.3595L72.9503 45.5373C73.9205 46.0942 75.1684 45.7615 75.7285 44.7969C76.2885 43.832 75.9542 42.5911 74.984 42.0341Z" fill="#DDDDDD"/>
<path d="M67.2976 31.4852C67.2976 30.3703 66.3834 29.4609 65.2622 29.4609C64.1412 29.4609 63.2268 30.3702 63.2268 31.4852V33.3668L67.2976 35.7042V31.4852Z" fill="#DDDDDD"/>
<path fill-rule="evenodd" clip-rule="evenodd" d="M63.3537 52.0098H55.3172V44.0008C55.3172 43.2095 54.6676 42.5635 53.872 42.5635H46.1276C45.3482 42.5635 44.6988 43.2095 44.6988 44.0008V52.0098H36.6458C35.8501 52.0098 35.2007 52.6556 35.2007 53.4469V61.1328C35.2007 61.9243 35.8501 62.5701 36.6458 62.5701H44.6988V70.579C44.6988 71.3701 45.3482 72 46.1276 72H53.872C54.6676 72 55.3172 71.3701 55.3172 70.579V62.5701H63.3537C64.1493 62.5701 64.799 61.9243 64.799 61.1328V53.4469C64.799 52.6556 64.1493 52.0098 63.3537 52.0098Z" fill="#DDDDDD"/>
</svg>
