<svg width="164" height="164" viewBox="0 0 164 164" fill="none" xmlns="http://www.w3.org/2000/svg">
<rect width="164" height="164" rx="10" fill="#F4F4F4"/>
<path d="M56.3656 119.432H64.6536V115.592H54.6856V116.904H63.0056V118.2H54.7176V122.088H65.0216V120.792H56.3656V119.432ZM64.3336 113.032C64.6376 111.496 64.6376 110.28 64.6376 109.336V108.376H54.8296V109.704H63.0216C63.0216 110.6 62.9736 111.656 62.6856 113.032H53.1816V114.36H66.2696V113.032H64.3336ZM74.0541 119.176H75.4621V115.72H78.7101V114.392H75.4621V110.936H74.0541V114.392H70.8061V115.72H74.0541V119.176ZM85.0129 112.088C85.0129 110.824 85.9409 109.992 87.2209 109.992C88.4689 109.992 89.3969 110.824 89.3969 112.088C89.3969 113.336 88.4689 114.168 87.2209 114.168C85.9409 114.168 85.0129 113.336 85.0129 112.088ZM93.5729 111.112V113.064H90.8209C90.9169 112.76 90.9649 112.44 90.9649 112.088C90.9649 111.736 90.9169 111.416 90.8369 111.112H93.5729ZM93.5729 114.392V116.296H95.2209V107.768H93.5729V109.768H90.0849C89.4129 109.048 88.4049 108.6 87.2209 108.6C85.0609 108.6 83.4449 110.04 83.4449 112.088C83.4449 114.12 85.0609 115.56 87.2209 115.56C88.3889 115.56 89.4129 115.128 90.0849 114.392H93.5729ZM90.4049 120.936C88.3569 120.936 87.1569 120.408 87.1569 119.416C87.1569 118.456 88.3569 117.912 90.4049 117.912C92.4689 117.912 93.6529 118.456 93.6529 119.416C93.6529 120.408 92.4689 120.936 90.4049 120.936ZM90.4049 116.616C87.3969 116.616 85.5409 117.656 85.5409 119.416C85.5409 121.192 87.3969 122.232 90.4049 122.232C93.4129 122.232 95.2849 121.192 95.2849 119.416C95.2849 117.656 93.4129 116.616 90.4049 116.616ZM106.132 114.392C103.988 113.688 102.756 111.928 102.756 110.072V108.52H101.092V109.944C101.092 112.024 99.8596 113.992 97.5876 114.776L98.4676 116.088C100.132 115.48 101.316 114.232 101.956 112.664C102.564 114.024 103.716 115.128 105.268 115.688L106.132 114.392ZM104.356 120.936C102.34 120.936 101.172 120.44 101.172 119.512C101.172 118.616 102.34 118.104 104.356 118.104C106.372 118.104 107.54 118.616 107.54 119.512C107.54 120.44 106.372 120.936 104.356 120.936ZM104.356 116.808C101.38 116.808 99.5396 117.816 99.5396 119.512C99.5396 121.224 101.38 122.232 104.356 122.232C107.348 122.232 109.172 121.224 109.172 119.512C109.172 117.816 107.348 116.808 104.356 116.808ZM109.012 111.352V107.768H107.364V116.456H109.012V112.712H111.06V111.352H109.012Z" fill="#666666"/>
<path d="M110.689 79.41C110.689 80.97 109.419 82.24 107.849 82.24H68.0194C66.4594 82.24 65.1895 80.97 65.1895 79.41V48.58C65.1895 47.02 66.4594 45.75 68.0194 45.75H107.849C109.419 45.75 110.689 47.02 110.689 48.58V79.41Z" fill="#D8F7F9"/>
<path d="M107.859 82.99H68.0292C66.0492 82.99 64.4492 81.38 64.4492 79.41V48.58C64.4492 46.6 66.0592 45 68.0292 45H107.859C109.839 45 111.449 46.61 111.449 48.58V79.41C111.439 81.39 109.839 82.99 107.859 82.99ZM68.0292 46.49C66.8792 46.49 65.9492 47.43 65.9492 48.57V79.4C65.9492 80.55 66.8792 81.48 68.0292 81.48H107.859C109.009 81.48 109.949 80.54 109.949 79.4V48.57C109.949 47.42 109.009 46.49 107.859 46.49H68.0292Z" fill="#666666"/>
<path d="M95.7486 60.4995L89.0286 64.3795L82.3086 68.2595V60.4995V52.7495L89.0286 56.6295L95.7486 60.4995Z" fill="#3BD7E2"/>
<path d="M82.3088 69.0095C82.1788 69.0095 82.0488 68.9795 81.9288 68.9095C81.6988 68.7795 81.5488 68.5295 81.5488 68.2595V52.7495C81.5488 52.4795 81.6888 52.2295 81.9288 52.0995C82.1688 51.9695 82.4488 51.9695 82.6788 52.0995L96.1188 59.8595C96.3488 59.9895 96.4988 60.2395 96.4988 60.5095C96.4988 60.7795 96.3588 61.0295 96.1188 61.1595L82.6788 68.9195C82.5688 68.9795 82.4388 69.0095 82.3088 69.0095ZM83.0588 54.0495V66.9694L94.2488 60.5095L83.0588 54.0495Z" fill="#666666"/>
<path d="M103.689 78.5781H69.6895C69.2795 78.5781 68.9395 78.2381 68.9395 77.8281C68.9395 77.4181 69.2795 77.0781 69.6895 77.0781H103.689C104.099 77.0781 104.439 77.4181 104.439 77.8281C104.439 78.2481 104.109 78.5781 103.689 78.5781Z" fill="#666666"/>
<path d="M74.1895 78.739C74.1895 79.209 73.7395 79.579 73.1895 79.579C72.6395 79.579 72.1895 79.199 72.1895 78.739V77.049C72.1895 76.579 72.6395 76.209 73.1895 76.209C73.7395 76.209 74.1895 76.589 74.1895 77.049V78.739Z" fill="#D8F7F9"/>
<path d="M73.1895 80.329C72.2295 80.329 71.4395 79.619 71.4395 78.739V77.049C71.4395 76.169 72.2295 75.459 73.1895 75.459C74.1495 75.459 74.9395 76.169 74.9395 77.049V78.739C74.9395 79.619 74.1595 80.329 73.1895 80.329ZM73.1895 76.959C73.0295 76.959 72.9495 77.039 72.9395 77.059V78.739C72.9495 78.749 73.0295 78.829 73.1895 78.829C73.3495 78.829 73.4295 78.749 73.4395 78.729V77.049C73.4395 77.039 73.3495 76.959 73.1895 76.959Z" fill="#666666"/>
<path d="M109.939 74.959H66.0586C65.6486 74.959 65.3086 74.619 65.3086 74.209C65.3086 73.799 65.6486 73.459 66.0586 73.459H109.939C110.349 73.459 110.689 73.799 110.689 74.209C110.689 74.619 110.359 74.959 109.939 74.959Z" fill="#666666"/>
<path d="M76.3119 34.7217H55.1185C53.7903 34.7217 52.7123 35.7996 52.7123 37.1278V52.5369C52.7123 53.8651 53.7903 54.943 55.1185 54.943H63.3475L69.4592 58.918L67.6786 54.943H76.3023C77.6305 54.943 78.7084 53.8651 78.7084 52.5369V37.1278C78.7181 35.7996 77.6401 34.7217 76.3119 34.7217Z" fill="#D8F7F9"/>
<path d="M69.4589 59.64C69.6225 59.64 69.7957 59.5823 69.9305 59.4668C70.1711 59.255 70.2481 58.9182 70.123 58.6198L68.8044 55.665H76.3212C78.044 55.665 79.4492 54.2598 79.4492 52.537V37.128C79.4492 35.4052 78.044 34 76.3212 34H55.1278C53.405 34 51.9998 35.4052 51.9998 37.128V52.537C51.9998 54.2598 53.405 55.665 55.1278 55.665H63.1451L69.0835 59.5149C69.1894 59.6015 69.3241 59.64 69.4589 59.64ZM76.3116 35.4437C77.2355 35.4437 77.9959 36.204 77.9959 37.128V52.537C77.9959 53.4706 77.2355 54.2213 76.3116 54.2213H67.6879C67.4473 54.2213 67.2163 54.3465 67.0816 54.5486C66.9468 54.7507 66.9276 55.0106 67.0334 55.2319L67.813 56.9644L63.7514 54.3272C63.6359 54.2502 63.5012 54.2117 63.3568 54.2117H55.1278C54.2038 54.2117 53.4435 53.4514 53.4435 52.5274V37.1184C53.4435 36.1944 54.2038 35.4341 55.1278 35.4341H76.3116V35.4437Z" fill="#666666"/>
<path d="M60.8071 44.6557C60.8071 45.5123 60.1142 46.1956 59.2672 46.1956C58.4106 46.1956 57.7176 45.5026 57.7176 44.6557C57.7176 43.7991 58.4106 43.1157 59.2672 43.1157C60.1142 43.1157 60.8071 43.8087 60.8071 44.6557Z" fill="#3BD7E2"/>
<path d="M59.267 46.9264C60.5182 46.9264 61.5288 45.9062 61.5288 44.6646C61.5288 43.4134 60.5182 42.4028 59.267 42.4028C58.0158 42.4028 56.9956 43.423 56.9956 44.6646C56.9956 45.9062 58.0158 46.9264 59.267 46.9264ZM59.267 43.8369C59.7194 43.8369 60.0851 44.2026 60.0851 44.655C60.0851 45.1073 59.7194 45.4731 59.267 45.4731C58.8147 45.4731 58.4393 45.1073 58.4393 44.655C58.4393 44.2026 58.805 43.8369 59.267 43.8369Z" fill="#666666"/>
<path d="M67.3413 44.6449C67.3413 45.5015 66.6483 46.1945 65.8014 46.1945C64.9448 46.1945 64.2518 45.5015 64.2518 44.6449C64.2518 43.798 64.9448 43.105 65.8014 43.105C66.6483 43.105 67.3413 43.798 67.3413 44.6449Z" fill="#3BD7E2"/>
<path d="M65.7919 46.917C67.0431 46.917 68.0537 45.8968 68.0537 44.6456C68.0537 43.3944 67.0335 42.3838 65.7919 42.3838C64.5407 42.3838 63.5205 43.404 63.5205 44.6456C63.5301 45.8968 64.5407 46.917 65.7919 46.917ZM65.7919 43.8275C66.2443 43.8275 66.61 44.1932 66.61 44.6456C66.61 45.0979 66.2443 45.4733 65.7919 45.4733C65.3396 45.4733 64.9642 45.1076 64.9642 44.6456C64.9738 44.1932 65.3396 43.8275 65.7919 43.8275Z" fill="#666666"/>
<path d="M73.7329 44.6658C73.7329 45.5128 73.0399 46.2057 72.193 46.2057C71.346 46.2057 70.6434 45.5128 70.6434 44.6658C70.6434 43.8092 71.3364 43.1162 72.193 43.1162C73.0496 43.1258 73.7329 43.8188 73.7329 44.6658Z" fill="#3BD7E2"/>
<path d="M72.1928 46.9268C73.444 46.9268 74.4546 45.9162 74.4546 44.665C74.4546 43.4138 73.4344 42.3936 72.1928 42.3936C70.9416 42.3936 69.9214 43.4138 69.9214 44.665C69.931 45.9162 70.9416 46.9268 72.1928 46.9268ZM72.1928 43.8469C72.6452 43.8469 73.0109 44.2126 73.0109 44.6746C73.0109 45.127 72.6452 45.4927 72.1928 45.4927C71.7404 45.4927 71.3651 45.127 71.3651 44.6746C71.3747 44.2126 71.7404 43.8469 72.1928 43.8469Z" fill="#666666"/>
</svg>
