<svg width="40" height="40" viewBox="0 0 40 40" fill="none" xmlns="http://www.w3.org/2000/svg">
<path d="M27.7182 28.8081C31.4598 26.6089 35.4601 26.4995 35.9178 24.1809C36.5945 20.7577 32.9325 20.1109 30.6936 21.106" stroke="#666666" stroke-linecap="round" stroke-linejoin="round"/>
<path d="M13.3292 13.8316C12.8014 13.3218 12.4747 12.639 12.409 11.9081C12.3432 11.1772 12.5427 10.4471 12.971 9.85119C13.4069 9.27779 13.6208 8.56613 13.5733 7.84742C13.5257 7.12871 13.2199 6.4514 12.7123 5.94043" stroke="#666666" stroke-linecap="round" stroke-linejoin="round"/>
<path d="M17.8767 13.2539C17.5193 12.991 17.2208 12.6564 17.0003 12.2714C16.7798 11.8864 16.6422 11.4596 16.5963 11.0183C16.5504 10.577 16.5972 10.131 16.7337 9.70891C16.8703 9.28678 17.0935 8.89783 17.3891 8.56701C17.6877 8.25431 17.917 7.88216 18.0619 7.47486C18.2069 7.06755 18.2644 6.63425 18.2306 6.20323C18.1968 5.7722 18.0725 5.35313 17.8657 4.97341C17.659 4.59369 17.3746 4.26185 17.0309 3.99951" stroke="#666666" stroke-linecap="round" stroke-linejoin="round"/>
<path d="M22.6233 13.8316C22.0952 13.3216 21.769 12.6379 21.705 11.9065C21.641 11.1751 21.8435 10.4452 22.275 9.85119C22.711 9.27779 22.9249 8.56613 22.8773 7.84742C22.8298 7.12871 22.524 6.4514 22.0163 5.94043" stroke="#666666" stroke-linecap="round" stroke-linejoin="round"/>
<path d="M12.2445 33.296C7.26902 30.5296 3.98518 22.2205 4.36332 18.0112H30.9126C31.3405 22.6782 27.4098 30.8779 23.0314 33.296" fill="#D8F7F9"/>
<path d="M12.2445 33.296C7.26902 30.5296 3.98518 22.2205 4.36332 18.0112H30.9126C31.3405 22.6782 27.4098 30.8779 23.0314 33.296" stroke="#666666" stroke-linecap="round" stroke-linejoin="round"/>
<path d="M9.91595 36.858H25.3698C28.0566 36.858 32.1166 33.5842 32.2857 32.4995H3C3.15922 33.5842 7.03015 36.858 9.96569 36.858H9.91595Z" fill="#3BD7E2" stroke="#666666" stroke-linecap="round" stroke-linejoin="round"/>
</svg>
