<svg width="40" height="40" viewBox="0 0 40 40" fill="none" xmlns="http://www.w3.org/2000/svg">
<path d="M36.2222 33.9998H3.31623C2.96714 33.9998 2.63237 33.8296 2.38553 33.5267C2.13869 33.2237 1.99999 32.8129 1.99999 32.3844C1.99999 31.956 2.13869 31.5451 2.38553 31.2422C2.63237 30.9392 2.96714 30.769 3.31623 30.769H36.2222C36.5713 30.769 36.9061 30.9392 37.1529 31.2422C37.3998 31.5451 37.5385 31.956 37.5385 32.3844C37.5385 32.8129 37.3998 33.2237 37.1529 33.5267C36.9061 33.8296 36.5713 33.9998 36.2222 33.9998Z" fill="#3BD7E2" stroke="#666666" stroke-linecap="round" stroke-linejoin="round"/>
<path d="M19.7692 13.5386C15.3421 13.5386 11.0964 15.2841 7.96597 18.3912C4.83556 21.4984 3.07691 25.7125 3.07691 30.1066V30.7693H36.4615V30.1066C36.4615 25.7125 34.7029 21.4984 31.5725 18.3912C28.4421 15.2841 24.1963 13.5386 19.7692 13.5386Z" fill="#D8F7F9" stroke="#666666" stroke-linecap="round" stroke-linejoin="round"/>
<path d="M19.2308 13.5384C19.8255 13.5384 20.3077 12.8152 20.3077 11.923C20.3077 11.0308 19.8255 10.3076 19.2308 10.3076C18.636 10.3076 18.1538 11.0308 18.1538 11.923C18.1538 12.8152 18.636 13.5384 19.2308 13.5384Z" fill="#3BD7E2" stroke="#666666" stroke-linecap="round" stroke-linejoin="round"/>
<path d="M31.4894 6C31.9594 7.15182 31.9594 8.4051 31.4894 9.55692L31.3739 9.82769C30.9415 10.9321 30.9824 12.1312 31.4894 13.2123L32.1538 14.6154" stroke="#666666" stroke-linecap="round" stroke-linejoin="round"/>
<path d="M35.3846 12.4614V13.7537C35.3846 14.9971 35.3846 16.3873 35.3846 17.6307V18.923" stroke="#666666" stroke-linecap="round" stroke-linejoin="round"/>
</svg>
