<svg width="40" height="40" viewBox="0 0 40 40" fill="none" xmlns="http://www.w3.org/2000/svg">
<path d="M7.76512 23.3063V35.3721H11.2425V5C11.2425 5 5 6.45628 5 18.4884C5 23.6127 7.76512 23.3063 7.76512 23.3063Z" fill="#D8F7F9" stroke="#666666" stroke-linecap="round" stroke-linejoin="round"/>
<path d="M19.2697 5.20605C17.0367 5.20605 15.2267 7.67796 15.2267 10.7248V13.8094C15.2267 16.0002 16.1736 17.8803 17.531 18.77V35.3809H21.0084V18.77C22.37 17.8803 23.3127 16.0002 23.3127 13.8094V10.7164C23.3127 7.67796 21.5028 5.20605 19.2697 5.20605Z" fill="#3BD7E2" stroke="#666666" stroke-linecap="round" stroke-linejoin="round"/>
<path d="M27.297 5.08789V13.8088C27.297 15.9995 28.2438 17.8797 29.6012 18.7694V35.3802H33.0786V18.7694C34.4402 17.8797 35.3829 15.9995 35.3829 13.8088V5.08789" stroke="#666666" stroke-linecap="round" stroke-linejoin="round"/>
<path d="M27.297 11.6274V13.8091C27.297 15.9998 28.2438 17.8799 29.6012 18.7697V35.3805H33.0786V18.7697C34.4402 17.8799 35.3829 15.9998 35.3829 13.8091V11.6274" fill="#D8F7F9"/>
<path d="M27.297 11.6274V13.8091C27.297 15.9998 28.2438 17.8799 29.6012 18.7697V35.3805H33.0786V18.7697C34.4402 17.8799 35.3829 15.9998 35.3829 13.8091V11.6274" stroke="#666666" stroke-linecap="round" stroke-linejoin="round"/>
<path d="M27.6196 11.4756H35.0687" stroke="#666666" stroke-linecap="round" stroke-linejoin="round"/>
<path d="M29.9826 10.9387V5.13037" stroke="#666666" stroke-linecap="round" stroke-linejoin="round"/>
<path d="M32.7058 10.9387V5.13037" stroke="#666666" stroke-linecap="round" stroke-linejoin="round"/>
</svg>
