<svg width="30" height="34" viewBox="0 0 30 34" fill="none" xmlns="http://www.w3.org/2000/svg">
<path d="M28.8538 15.2516C27.2289 12.8887 24.0184 11.7196 22.9638 11.3322C22.1495 11.0364 21.3997 10.8392 20.7361 10.6667C19.4053 10.318 18.444 10.068 17.9704 9.27921C17.7803 8.96228 17.6835 8.589 17.6835 8.16642C18.4834 7.71215 19.2475 6.95504 19.7282 6.27891C19.7999 6.17679 21.4643 3.79626 20.4564 2.73629C20.1012 2.36301 19.4699 2.22216 18.6735 2.33837C17.7122 2.47923 16.5499 2.99689 15.7679 3.87726C15.5025 2.2292 14.1466 0.905127 12.9198 0.327604C12.1306 -0.0456727 11.4275 -0.102021 10.9396 0.169133C9.54783 0.947381 10.5056 3.9829 10.5451 4.11319C10.8572 5.0816 11.51 6.27187 12.3099 7.00434C12.4175 7.62764 12.3817 8.69465 12.0302 9.28273C11.5602 10.0715 10.5953 10.3216 9.26443 10.6702C8.60081 10.8427 7.85111 11.0399 7.03683 11.3358C5.98221 11.7196 2.77169 12.8922 1.14671 15.2552C-0.736539 17.9878 -0.0585401 21.8227 1.44447 24.411C2.44529 26.1365 4.30702 27.6156 6.8252 28.6896C9.09586 29.658 11.6858 30.2003 14.1322 30.2179L12.2166 32.3766C12.0337 32.5808 12.0552 32.8943 12.2669 33.0739C12.3637 33.1549 12.4785 33.1971 12.5969 33.1971C12.7368 33.1971 12.8767 33.1408 12.9771 33.0281L14.7384 31.0455L14.742 33.507C14.742 33.7781 14.968 34 15.2442 34C15.5204 34 15.7464 33.7781 15.7464 33.507L15.7428 31.0384L17.54 33.0351C17.723 33.2394 18.0422 33.257 18.2503 33.0774C18.4583 32.8978 18.4798 32.5844 18.2933 32.3801L16.3419 30.2144C18.6412 30.1334 21.0446 29.6017 23.1682 28.6967C25.6864 27.6226 27.5481 26.1436 28.5489 24.4181C30.0591 21.8192 30.7371 17.9843 28.8538 15.2516Z" fill="#3BD7E2" fill-opacity="0.2"/>
<path d="M18.2455 11.5046C16.5774 10.2764 17.2029 9.28701 17.2029 8.43408C17.7242 9.4576 17.8137 9.75738 19.2881 10.4811C20.3307 10.9929 21.8946 10.9929 23.9798 12.0164C26.065 13.0399 30.7568 15.0869 29.1928 21.228C27.6289 27.3691 22.4159 28.3927 18.7668 29.4162C15.1177 30.4397 12.5112 29.9279 14.0751 29.9279C20 26 21 21.228 21 19C21 16.772 20.3307 13.0399 18.2455 11.5046Z" fill="#3BD7E2" fill-opacity="0.8"/>
<path d="M10.9473 4.34004C10.1132 3.11182 10.5998 1.44008 10.9473 0.757732C11.9899 -0.265785 14.0751 0.757732 15.1177 2.80477C16.1603 4.8518 14.5964 6.89883 14.0751 7.41059C13.5538 7.92235 11.9899 5.87532 10.9473 4.34004Z" fill="#3BD7E2" fill-opacity="0.8"/>
<path d="M28.8538 15.2516C27.2289 12.8887 24.0184 11.7196 22.9638 11.3322C22.1495 11.0364 21.3997 10.8392 20.7361 10.6667C19.4053 10.318 18.444 10.068 17.9704 9.27921C17.7803 8.96228 17.6835 8.589 17.6835 8.16642C18.4834 7.71215 19.2475 6.95504 19.7282 6.27891C19.7999 6.17679 21.4643 3.79626 20.4564 2.73629C20.1012 2.36301 19.4699 2.22216 18.6735 2.33837C17.7122 2.47923 16.5499 2.99689 15.7679 3.87726C15.5025 2.2292 14.1466 0.905127 12.9198 0.327604C12.1306 -0.0456726 11.4275 -0.102021 10.9396 0.169133C9.54783 0.947381 10.5056 3.9829 10.5451 4.11319C10.8572 5.0816 11.51 6.27187 12.3099 7.00434C12.4175 7.62764 12.3817 8.69465 12.0302 9.28273C11.5602 10.0715 10.5953 10.3216 9.26443 10.6702C8.60081 10.8427 7.85111 11.0399 7.03683 11.3358C5.9822 11.7196 2.77169 12.8922 1.14671 15.2552C-0.736539 17.9878 -0.0585402 21.8227 1.44447 24.411C2.44529 26.1365 4.30702 27.6156 6.8252 28.6896C9.09586 29.658 11.6858 30.2003 14.1322 30.2179L12.2166 32.3766C12.0337 32.5808 12.0552 32.8943 12.2669 33.0739C12.3637 33.1549 12.4785 33.1971 12.5969 33.1971C12.7368 33.1971 12.8767 33.1408 12.9771 33.0281L14.7384 31.0455L14.742 33.507C14.742 33.7781 14.968 34 15.2442 34C15.5204 34 15.7464 33.7781 15.7464 33.507L15.7428 31.0384L17.54 33.0351C17.723 33.2394 18.0422 33.257 18.2503 33.0774C18.4583 32.8978 18.4798 32.5844 18.2933 32.3801L16.3419 30.2144C18.6412 30.1334 21.0446 29.6017 23.1682 28.6967C25.6864 27.6226 27.5481 26.1436 28.5489 24.4181C30.0591 21.8192 30.7371 17.9843 28.8538 15.2516ZM16.1302 5.10273C16.6504 4.06741 17.8879 3.44764 18.8206 3.31382C18.9605 3.29269 19.0825 3.28565 19.1901 3.28565C19.4878 3.28565 19.6672 3.34903 19.721 3.4089C19.929 3.63075 19.5918 4.7365 18.8995 5.71547C18.3794 6.44794 17.6082 7.10293 16.9912 7.4093C16.9732 7.41635 16.9553 7.42691 16.9373 7.43747C16.6145 7.58889 16.3419 7.63819 16.1733 7.54664C15.7608 7.3107 15.6603 6.03944 16.1302 5.10273ZM11.5064 3.81387C11.119 2.60601 11.0867 1.22206 11.4383 1.02486C11.4849 1.00021 11.5566 0.98612 11.6463 0.98612C11.84 0.98612 12.1306 1.0495 12.4821 1.21501C13.4399 1.66928 14.5662 2.74686 14.7743 4.03924C14.9644 5.23655 14.412 6.56766 13.856 6.68739C13.8273 6.69444 13.7986 6.69796 13.7663 6.69796C13.5798 6.69796 13.3574 6.5888 13.1278 6.39864C13.1099 6.38103 13.0883 6.36342 13.0704 6.34933C12.4821 5.8352 11.8364 4.83862 11.5064 3.81387ZM27.6809 23.918C25.6864 27.3479 20.0689 29.2143 15.7931 29.2284H15.2406H14.2075C9.93165 29.2143 4.31417 27.3444 2.31972 23.918C0.97095 21.5974 0.34322 18.1886 1.98255 15.8045C2.94032 14.41 4.76257 13.2197 7.38836 12.2584C8.15601 11.9767 8.88419 11.7865 9.52629 11.621C10.9719 11.2442 12.2202 10.9167 12.8982 9.77925C13.2533 9.18412 13.3753 8.34954 13.3682 7.62763C13.5009 7.66285 13.6336 7.68045 13.7663 7.68045C13.8668 7.68045 13.9672 7.66989 14.0712 7.64876C14.3654 7.58537 14.638 7.42691 14.8783 7.18745C14.9967 7.71919 15.255 8.16642 15.6747 8.40236C15.8899 8.52209 16.1195 8.57491 16.3634 8.57491C16.471 8.57491 16.5822 8.56435 16.6934 8.54322C16.7437 8.99397 16.88 9.4095 17.0988 9.77925C17.7804 10.9167 19.0286 11.2442 20.4707 11.621C21.1128 11.79 21.8374 11.9802 22.6087 12.2584C25.238 13.2162 27.0567 14.41 28.0145 15.8045C29.661 18.185 29.0332 21.5938 27.6809 23.918Z" fill="#333333"/>
<path d="M15.6245 9.97321C15.4308 9.77601 15.1151 9.76897 14.9142 9.95913C14.7133 10.1493 14.7062 10.4592 14.8999 10.6564C15.9976 11.7868 17.9131 14.1884 18.3938 17.6148C19.0646 22.4111 16.5643 25.9889 15.4559 27.3024C15.2801 27.5137 15.3088 27.8236 15.5241 27.9962C15.6173 28.0736 15.7321 28.1088 15.8433 28.1088C15.9868 28.1088 16.1303 28.049 16.2307 27.9292C16.8154 27.2355 17.6584 26.0769 18.3543 24.5064C19.3731 22.2104 19.721 19.8474 19.3874 17.4775C18.8672 13.7799 16.8082 11.1881 15.6245 9.97321Z" fill="#333333"/>
<path d="M21.1307 12.7089C20.8976 12.561 20.5855 12.6244 20.4348 12.8533C20.2842 13.0822 20.3487 13.3885 20.5819 13.5364C21.5684 14.1668 23.3081 15.5683 23.8892 17.8819C24.6748 21.0231 23.0248 24.4988 19.782 26.5342C19.5488 26.6821 19.4806 26.985 19.6277 27.2174C19.7246 27.3653 19.886 27.4463 20.051 27.4463C20.1443 27.4463 20.2375 27.4216 20.32 27.3688C22.0849 26.2631 23.4516 24.7488 24.2731 22.9881C25.0945 21.2273 25.299 19.3821 24.8649 17.646C24.2049 15.0014 22.2392 13.4167 21.1307 12.7089Z" fill="#333333"/>
<path d="M10.2222 26.5342C6.97947 24.4988 5.32576 21.0231 6.11494 17.8819C6.69606 15.5683 8.43586 14.1668 9.42232 13.5364C9.65549 13.3885 9.72002 13.0822 9.56936 12.8533C9.4187 12.6244 9.10664 12.561 8.87348 12.7089C7.76146 13.4167 5.79928 15.0014 5.13565 17.646C4.70161 19.3786 4.90608 21.2273 5.72754 22.9881C6.549 24.7453 7.91571 26.2595 9.68059 27.3688C9.76309 27.4216 9.85994 27.4463 9.94962 27.4463C10.1146 27.4463 10.2797 27.3653 10.3729 27.2174C10.5272 26.9885 10.459 26.6821 10.2222 26.5342Z" fill="#333333"/>
<path d="M12.2024 18.9419C12.1522 15.6211 13.4543 13.1068 14.2363 11.906C14.3869 11.6771 14.3188 11.3707 14.082 11.2228C13.8489 11.0749 13.5368 11.1418 13.3861 11.3742C12.5431 12.6701 11.1406 15.3782 11.1944 18.956C11.2482 22.5162 12.7225 25.1714 13.5942 26.4356C13.6911 26.5765 13.8489 26.6539 14.0103 26.6539C14.1071 26.6539 14.204 26.6258 14.2937 26.5694C14.5233 26.418 14.5842 26.1081 14.43 25.8827C13.6193 24.7101 12.2526 22.245 12.2024 18.9419Z" fill="#333333"/>
</svg>
