<svg width="16" height="16" viewBox="0 0 16 16" fill="none" xmlns="http://www.w3.org/2000/svg">
<path d="M9.90638 12.3918L9.69243 11.6729C9.88581 11.6154 10.0942 11.6381 10.2706 11.7361L9.90638 12.3918ZM12.8 13.9993L13.5439 13.9037C13.58 14.1843 13.455 14.4613 13.2209 14.6201C12.9867 14.7789 12.6831 14.7923 12.4358 14.6549L12.8 13.9993ZM12.4081 10.9515L11.6643 11.0471C11.634 10.8116 11.717 10.5756 11.8881 10.411L12.4081 10.9515ZM8 13.4166C4.35757 13.4166 1.25 10.7736 1.25 7.3333H2.75C2.75 9.78397 5.01501 11.9166 8 11.9166V13.4166ZM10.1203 13.1106C9.45211 13.3095 8.739 13.4166 8 13.4166V11.9166C8.59384 11.9166 9.16282 11.8306 9.69243 11.6729L10.1203 13.1106ZM12.4358 14.6549L9.54215 13.0474L10.2706 11.7361L13.1642 13.3437L12.4358 14.6549ZM13.152 10.8558L13.5439 13.9037L12.0561 14.0949L11.6643 11.0471L13.152 10.8558ZM14.75 7.3333C14.75 8.95458 14.0474 10.415 12.9281 11.4919L11.8881 10.411C12.7451 9.58647 13.25 8.50481 13.25 7.3333H14.75ZM8 1.25C11.6424 1.25 14.75 3.89297 14.75 7.3333H13.25C13.25 4.88262 10.985 2.75 8 2.75V1.25ZM1.25 7.3333C1.25 3.89297 4.35757 1.25 8 1.25V2.75C5.01501 2.75 2.75 4.88262 2.75 7.3333H1.25Z" fill="#666666"/>
</svg>
