<svg width="40" height="40" viewBox="0 0 40 40" fill="none" xmlns="http://www.w3.org/2000/svg">
<path d="M31.8301 20.7127C31.8301 27.2822 25.8847 32.6539 18.3506 33.1141C18.0038 33.1393 17.6445 33.1519 17.2914 33.1519C9.82662 33.1519 3.69211 28.3288 2.85989 22.1376C2.82206 21.8791 2.78422 21.6206 2.77161 21.3558C2.759 21.1414 2.7527 20.9271 2.7527 20.7127C2.7527 20.4984 2.759 20.284 2.77161 20.0696C2.79053 19.8048 2.82206 19.5463 2.85989 19.2942C3.68581 13.1029 9.82662 8.27979 17.2914 8.27979C17.6445 8.27979 18.0038 8.29239 18.3506 8.31761C25.8847 8.77786 31.8301 14.1495 31.8301 20.7127Z" fill="#3BD7E2"/>
<path d="M19.5737 33.1519C28.8637 33.1519 36.3947 27.5827 36.3947 20.7127C36.3947 13.8427 28.8637 8.27344 19.5737 8.27344C10.2837 8.27344 2.7527 13.8427 2.7527 20.7127C2.7527 27.5827 10.2837 33.1519 19.5737 33.1519Z" fill="#D8F7F9" stroke="#666666" stroke-miterlimit="10" stroke-linecap="round" stroke-linejoin="round"/>
<path d="M2.82834 21.9044C3.67317 23.1842 5.33131 23.9849 6.80662 23.5499C7.4497 23.3608 8.10538 22.951 8.74215 23.159C9.92744 23.5562 9.63743 25.4728 10.5957 26.2672C11.3775 26.9103 12.5691 26.4942 13.4077 25.9205C14.2462 25.3467 15.1099 24.6091 16.125 24.6847C17.6507 24.7982 18.3884 26.5762 19.58 27.5282C20.8346 28.5306 22.7828 28.5432 24.05 27.5471C24.7183 27.0238 25.1786 26.2798 25.7334 25.6304C26.2882 24.9811 27.0132 24.3947 27.8644 24.3569C28.5831 24.3254 29.2514 24.7036 29.9323 24.9432C30.6132 25.1891 31.4581 25.2711 31.9751 24.7667C32.4605 24.2938 32.4416 23.5247 32.4605 22.8501C32.4731 22.1692 32.6434 21.3685 33.2738 21.1163C34.2069 20.738 35.14 21.9233 36.1362 21.7909C36.7288 21.7152 37.1765 21.173 37.3278 20.593C37.4791 20.0129 37.4097 19.0777 37.3278 18.4851C37.2584 17.9807 37.0671 17.4427 36.9338 17.0494C34.9289 11.1356 27.9968 7 19.58 7C11.4658 7 4.58735 11.0665 2.30504 16.6525C1.86371 18.4115 1.79437 20.3471 2.82834 21.9044Z" fill="#3BD7E2" stroke="#666666" stroke-miterlimit="10" stroke-linecap="round" stroke-linejoin="round"/>
<path d="M19.5737 17.655C22.408 17.655 24.7057 16.3932 24.7057 14.8368C24.7057 13.2803 22.408 12.0186 19.5737 12.0186C16.7393 12.0186 14.4416 13.2803 14.4416 14.8368C14.4416 16.3932 16.7393 17.655 19.5737 17.655Z" fill="#D8F7F9" stroke="#666666" stroke-miterlimit="10" stroke-linecap="round" stroke-linejoin="round"/>
<path d="M8.14956 17.2642L6.76883 18.0459" stroke="#D8F7F9" stroke-width="2" stroke-miterlimit="10" stroke-linecap="round" stroke-linejoin="round"/>
<path d="M20.759 21.4883L20.2546 22.9951" stroke="#D8F7F9" stroke-width="2" stroke-miterlimit="10" stroke-linecap="round" stroke-linejoin="round"/>
<path d="M26.1683 20.0381L27.5869 20.7505" stroke="#D8F7F9" stroke-width="2" stroke-miterlimit="10" stroke-linecap="round" stroke-linejoin="round"/>
<path d="M32.4731 16.7974L31.187 17.7304" stroke="#D8F7F9" stroke-width="2" stroke-miterlimit="10" stroke-linecap="round" stroke-linejoin="round"/>
<path d="M28.2931 12.9199L29.7243 13.4243" stroke="#D8F7F9" stroke-width="2" stroke-miterlimit="10" stroke-linecap="round" stroke-linejoin="round"/>
<path d="M23.8293 9.88135L22.8269 10.0327" stroke="#D8F7F9" stroke-width="2" stroke-miterlimit="10" stroke-linecap="round" stroke-linejoin="round"/>
<path d="M16.623 10.1462L15.8223 9.95703" stroke="#D8F7F9" stroke-width="2" stroke-miterlimit="10" stroke-linecap="round" stroke-linejoin="round"/>
<path d="M13.4391 21.6962L12.1656 20.7505" stroke="#D8F7F9" stroke-width="2" stroke-miterlimit="10" stroke-linecap="round" stroke-linejoin="round"/>
<path d="M10.9739 12.5669L9.8643 12.9074" stroke="#D8F7F9" stroke-width="2" stroke-miterlimit="10" stroke-linecap="round" stroke-linejoin="round"/>
</svg>
