<svg width="34" height="33" viewBox="0 0 34 33" fill="none" xmlns="http://www.w3.org/2000/svg">
<path d="M19.7038 14.556C19.7878 14.7016 19.8882 14.8295 20 14.9503C19.9105 15.939 19.8488 16.9692 19.821 18L19.7932 17.9757L18.4522 16.5204C17.6481 15.6478 16.3518 15.6478 15.5477 16.5204L14.2068 17.9757L14.179 18C14.1512 16.9692 14.0895 15.939 14 14.9503C14.1118 14.8295 14.2122 14.7016 14.2962 14.556L15.5532 12.4648C15.7653 12.1072 15.8826 11.6827 15.8826 11.2523V1H17.6983H18.1172V11.2523C18.1172 11.6827 18.2346 12.1072 18.4467 12.4648L19.7038 14.556Z" fill="#D8F7F9"/>
<path d="M20.0324 19.2478C20.0647 18.1615 20.1365 17.0759 20.2406 16.034C20.6374 12.1944 21.547 9 23.25 9C28.45 9 33 19.7401 33 25.6111C33 31.4821 32.2719 32 30.4 32C28.5281 32 28.45 30.2942 26.5 30.2942C25.0769 30.2942 24.5824 30.7034 22.619 30.7034C20.8969 30.7034 20 28.5628 20 21.1388C20 20.5187 20.0127 19.8798 20.0324 19.2478Z" fill="#3BD7E2" fill-opacity="0.2"/>
<path d="M13.9676 19.2477C13.9873 19.8796 14 20.5185 14 21.1388C14 28.5628 13.1031 30.7034 11.381 30.7034C9.41763 30.7034 8.92324 30.2942 7.5 30.2942C5.55 30.2942 5.47187 32 3.6 32C1.72813 32 1 31.4821 1 25.6111C1 19.7401 5.55 9 10.75 9C12.4531 9 13.3627 12.1944 13.7594 16.034C13.8635 17.0758 13.9353 18.1614 13.9676 19.2477Z" fill="#3BD7E2" fill-opacity="0.8"/>
<path d="M20.2406 16.034C20.6374 12.1944 21.547 9 23.25 9C28.45 9 33 19.7401 33 25.6111C33 31.4821 32.2719 32 30.4 32C28.5281 32 28.45 30.2942 26.5 30.2942C25.0769 30.2942 24.5824 30.7034 22.619 30.7034C20.8969 30.7034 20 28.5628 20 21.1388C20 20.5185 20.0127 19.8796 20.0324 19.2476C20.0647 18.1615 20.1365 17.0759 20.2406 16.034Z" stroke="#333333" stroke-miterlimit="10" stroke-linecap="round" stroke-linejoin="round"/>
<path d="M13.7595 16.034C13.3627 12.1944 12.4531 9 10.75 9C5.55 9 1 19.7401 1 25.6111C1 31.4821 1.72813 32 3.6 32C5.47187 32 5.55 30.2942 7.5 30.2942C8.92311 30.2942 9.41763 30.7034 11.381 30.7034C13.1031 30.7034 14 28.5628 14 21.1388C14 20.5185 13.9873 19.8796 13.9676 19.2476C13.9353 18.1615 13.8635 17.0759 13.7595 16.034Z" stroke="#333333" stroke-miterlimit="10" stroke-linecap="round" stroke-linejoin="round"/>
<path d="M18 1V11.8037C18 12.2574 18.14 12.7047 18.3932 13.0815L19.8932 15.2852C19.9935 15.4386 20.1132 15.5734 20.2467 15.7007C20.3664 15.8093 20.4999 15.9115 20.6471 15.9952L23.3333 17.6111L26 19.5278L27.3333 22.7222L30 24" stroke="#333333" stroke-miterlimit="10" stroke-linecap="round" stroke-linejoin="round"/>
<path d="M5 24L7.44447 22.7222L8.66671 19.5278L11.1112 17.6111L13.5735 15.9952C13.7084 15.9117 13.8307 15.8093 13.9405 15.7007C14.0629 15.5734 14.1726 15.4386 14.2645 15.2852L15.6396 13.0815C15.8717 12.7047 16 12.2574 16 11.8037V1" stroke="#333333" stroke-miterlimit="10" stroke-linecap="round" stroke-linejoin="round"/>
<path d="M11.2727 26V23.9282L10 21.8563L13.7865 18.4309L13.8182 18.4033L15.3457 16.7455C16.2617 15.7515 17.7383 15.7515 18.6543 16.7455L20.1818 18.4033L20.2135 18.4309L24 21.8563L22.7273 23.9282V26" stroke="#333333" stroke-miterlimit="10" stroke-linecap="round" stroke-linejoin="round"/>
<path d="M24 22L25 25" stroke="#333333" stroke-miterlimit="10" stroke-linecap="round" stroke-linejoin="round"/>
<path d="M10 22L9 25" stroke="#333333" stroke-miterlimit="10" stroke-linecap="round" stroke-linejoin="round"/>
<path d="M23 17L25 14.7143V13" stroke="#333333" stroke-miterlimit="10" stroke-linecap="round" stroke-linejoin="round"/>
<path d="M11 17L10 14.7143V13" stroke="#333333" stroke-miterlimit="10" stroke-linecap="round" stroke-linejoin="round"/>
<path d="M25 15H27" stroke="#333333" stroke-miterlimit="10" stroke-linecap="round" stroke-linejoin="round"/>
<path d="M10 15H8" stroke="#333333" stroke-miterlimit="10" stroke-linecap="round" stroke-linejoin="round"/>
<path d="M26 19L29 20" stroke="#333333" stroke-miterlimit="10" stroke-linecap="round" stroke-linejoin="round"/>
<path d="M9 19L6 20" stroke="#333333" stroke-miterlimit="10" stroke-linecap="round" stroke-linejoin="round"/>
</svg>
