<svg width="34" height="24" viewBox="0 0 34 24" fill="none" xmlns="http://www.w3.org/2000/svg">
<path d="M17.5 2.62914C9.5 1.82914 3.16667 9.2958 1 13.1291C1 7.92912 3.33333 4.29577 4.5 3.1291C9.3 -0.470905 15.1667 1.29579 17.5 2.62914Z" fill="#3BD7E2" fill-opacity="0.8"/>
<path d="M17.9722 15.1686C17.717 15.8172 17.4085 16.3616 17 16.7607C15.2222 18.4976 13.3021 17.3228 10.4815 18.4976C6.99716 19.9449 6.07295 23.1292 3.37037 23.1292C1.3437 23.1292 1 22.2607 1 21.3923C1 20.5239 2.18519 19.2213 2.18519 17.3397C2.18519 15.7125 1 13.9356 1 11.5502C1 7.67739 3.66667 1.12915 10.4815 1.12915C14.9259 1.12915 19.8622 3.44494 22.3333 3.44494C23.6193 3.44494 25.8889 3.44494 27.6667 3.44494C29.4444 3.44494 33 3.83283 33 5.18178C33 6.53073 30.4815 8.17494 28.5556 10.2476C26.6296 12.3202 24.7095 14.8735 22.4456 15.2438C19.779 15.6724 19.9572 15.4638 17.9722 15.1686Z" fill="#3BD7E2" fill-opacity="0.2"/>
<path d="M17.9722 15.1686C17.717 15.8172 17.4085 16.3616 17 16.7607C15.2222 18.4976 13.3021 17.3228 10.4815 18.4976C6.99716 19.9449 6.07295 23.1292 3.37037 23.1292C1.3437 23.1292 1 22.2607 1 21.3923C1 20.5239 2.18519 19.2213 2.18519 17.3397C2.18519 15.7125 1 13.9356 1 11.5502C1 7.67739 3.66667 1.12915 10.4815 1.12915C14.9259 1.12915 19.8622 3.44494 22.3333 3.44494C23.6193 3.44494 25.8889 3.44494 27.6667 3.44494C29.4444 3.44494 33 3.83283 33 5.18178C33 6.53073 30.4815 8.17494 28.5556 10.2476C26.6296 12.3202 24.7095 14.8735 22.4456 15.2438C19.779 15.6724 19.9572 15.4638 17.9722 15.1686Z" stroke="#333333" stroke-miterlimit="10" stroke-linejoin="round"/>
<path d="M18 7.12915C16.1135 9.88575 15.8057 13.0518 15 15.1292" stroke="#333333" stroke-miterlimit="10" stroke-linejoin="round"/>
</svg>
