<svg width="33" height="34" viewBox="0 0 33 34" fill="none" xmlns="http://www.w3.org/2000/svg">
<path d="M23.2001 16.8625C23.9108 18.4241 25.3442 19.3938 27 19.4516C21.8611 19.4516 22 21.4374 22 24.6774C20.7001 23.4992 18.8777 23.1158 17.211 23.5683C15.5503 24.0219 14.2499 25.3045 13.6667 27C14.1723 25.1186 13.5223 23.1045 12.0721 21.8672C10.6273 20.6243 8.66667 20.3056 7 21.1935C8.89456 19.9166 10.8889 18.9062 10.8889 16.5484C10.8889 14.1918 8.62222 11.5142 7 9.58065C8.57767 11.2477 10.7109 11.9032 12.956 11.9032C15.8889 11.9032 17.2442 10.8122 18.6667 9C18.2999 10.3586 18.9053 11.8511 20.0664 12.5655C21.2334 13.2799 22.7108 12.9023 23.6667 11.9032C22.6668 13.2799 22.4889 15.3066 23.2001 16.8625ZM19.7778 17.7097C19.7778 16.1072 18.5332 14.8065 17 14.8065C15.4668 14.8065 14.2222 16.1072 14.2222 17.7097C14.2222 19.3121 15.4668 20.6129 17 20.6129C18.5332 20.6129 19.7778 19.3121 19.7778 17.7097Z" fill="#3BD7E2" fill-opacity="0.2"/>
<path d="M17 15C18.6559 15 20 16.1201 20 17.5C20 18.8799 18.6559 20 17 20C15.3441 20 14 18.8799 14 17.5C14 16.1201 15.3441 15 17 15Z" fill="#3BD7E2" fill-opacity="0.8"/>
<path d="M20 17.5C20 16.1201 18.6559 15 17 15C15.3441 15 14 16.1201 14 17.5C14 18.8799 15.3441 20 17 20C18.6559 20 20 18.8799 20 17.5Z" stroke="#333333" stroke-miterlimit="10" stroke-linecap="round" stroke-linejoin="round"/>
<path d="M7 21.1935C8.89456 19.9166 10.8889 18.9062 10.8889 16.5484C10.8889 14.1918 8.62222 11.5142 7 9.58065C8.57767 11.2477 10.7109 11.9032 12.956 11.9032C15.8889 11.9032 17.2442 10.8122 18.6667 9C18.2999 10.3586 18.9053 11.8511 20.0664 12.5655C21.2334 13.2799 22.7108 12.9023 23.6667 11.9032C22.6668 13.2799 22.4888 15.3066 23.2001 16.8625C23.9108 18.4241 25.3442 19.3938 27 19.4516C21.8611 19.4516 22 21.4374 22 24.6774C20.7001 23.4992 18.8777 23.1158 17.211 23.5683C15.5503 24.0219 14.2499 25.3045 13.6667 27C14.1723 25.1186 13.5223 23.1045 12.0721 21.8672C10.6274 20.6243 8.66667 20.3056 7 21.1935Z" stroke="#333333" stroke-miterlimit="10" stroke-linecap="round" stroke-linejoin="round"/>
<path d="M19 9C19 8.43417 19 7.86274 19 7.28571C19 6.6976 19 6.10937 19 5.52571C19 3.99451 19 2.4688 19 1" stroke="#333333" stroke-miterlimit="10" stroke-linecap="round" stroke-linejoin="round"/>
<path d="M15 1C15.4422 3.42727 16.982 5.35758 19 6" stroke="#333333" stroke-miterlimit="10" stroke-linecap="round" stroke-linejoin="round"/>
<path d="M19 7C20.9026 6.1348 22.3375 4.7051 23 3" stroke="#333333" stroke-miterlimit="10" stroke-linecap="round" stroke-linejoin="round"/>
<path d="M7 9C6.64286 8.69481 6.29971 8.37766 5.96414 8.05465C5.57843 7.68745 5.21429 7.30951 4.85714 6.92448C3.75014 5.70373 2.79243 4.39239 2 3" stroke="#333333" stroke-miterlimit="10" stroke-linecap="round" stroke-linejoin="round"/>
<path d="M6 8C6.8188 6.40688 7.14352 4.69875 6.9418 3" stroke="#333333" stroke-miterlimit="10" stroke-linecap="round" stroke-linejoin="round"/>
<path d="M1 7C2.31417 7.79975 3.65737 8.12158 5 7.95908" stroke="#333333" stroke-miterlimit="10" stroke-linecap="round" stroke-linejoin="round"/>
<path d="M24 12C24.1165 11.5979 24.2424 11.207 24.383 10.8219C25.2026 8.5763 26.4336 6.5813 28 5" stroke="#333333" stroke-miterlimit="10" stroke-linecap="round" stroke-linejoin="round"/>
<path d="M24 9.99384C26.5291 10.0741 29.0065 9.3677 31 8" stroke="#333333" stroke-miterlimit="10" stroke-linecap="round" stroke-linejoin="round"/>
<path d="M28 10C29.1417 10.7444 30.5709 11.0933 32 10.9786" stroke="#333333" stroke-miterlimit="10" stroke-linecap="round" stroke-linejoin="round"/>
<path d="M27 19C27.2943 18.8732 27.5871 18.7538 27.8814 18.6575C29.2125 18.1723 30.606 17.9551 32 18.0077" stroke="#333333" stroke-miterlimit="10" stroke-linecap="round" stroke-linejoin="round"/>
<path d="M28 19C28 19 28.0059 19 28.0059 19.0055C29.5579 19.7188 30.9151 20.7439 32 22" stroke="#333333" stroke-miterlimit="10" stroke-linecap="round" stroke-linejoin="round"/>
<path d="M22 25C22.876 25.2972 23.7098 25.6633 24.4779 26.0902C25.8824 26.8704 27.0759 27.8582 28 29" stroke="#333333" stroke-miterlimit="10" stroke-linecap="round" stroke-linejoin="round"/>
<path d="M22 25C22 26.7754 22.6933 28.5156 24 30" stroke="#333333" stroke-miterlimit="10" stroke-linecap="round" stroke-linejoin="round"/>
<path d="M25 26C26.3134 24.924 27.6665 24.7244 29 25.3622" stroke="#333333" stroke-miterlimit="10" stroke-linecap="round" stroke-linejoin="round"/>
<path d="M14 27C12.1996 27.4718 10.5089 28.1484 9 29" stroke="#333333" stroke-miterlimit="10" stroke-linecap="round" stroke-linejoin="round"/>
<path d="M14 27C14 27.472 14.0402 27.9451 14.1198 28.4062C14.2964 29.4609 14.821 30.4277 15.6142 31.1667C15.9852 31.5117 16.4012 31.7949 17 32" stroke="#333333" stroke-miterlimit="10" stroke-linecap="round" stroke-linejoin="round"/>
<path d="M14 28C12.4757 28.8614 11.8838 32.0025 12.0186 33" stroke="#333333" stroke-miterlimit="10" stroke-linecap="round" stroke-linejoin="round"/>
<path d="M7 21C6.38824 21.3364 5.78824 21.6836 5.2 22.05C3.724 22.9512 2.32012 23.9413 1 25" stroke="#333333" stroke-miterlimit="10" stroke-linecap="round" stroke-linejoin="round"/>
<path d="M5 22C4.3255 24.2443 3.98586 26.614 4.00045 29" stroke="#333333" stroke-miterlimit="10" stroke-linecap="round" stroke-linejoin="round"/>
<path d="M7 21C4.78636 21 2.87212 20.3073 1 19" stroke="#333333" stroke-miterlimit="10" stroke-linecap="round" stroke-linejoin="round"/>
</svg>
