<svg width="23" height="34" viewBox="0 0 23 34" fill="none" xmlns="http://www.w3.org/2000/svg">
<path d="M0 1H7L7.5 3L10.5 8L18.5 18L20.5 20.5L22 21V23H20.5C20.3333 25.1667 18.8 29.9 14 31.5V33H0V1Z" fill="#3BD7E2" fill-opacity="0.2"/>
<path d="M14 33V31.0247V31" stroke="#333333" stroke-miterlimit="10" stroke-linecap="round" stroke-linejoin="round"/>
<path d="M6 30.6668C8.58474 32.1876 11.7722 32.4198 14.5601 31.2991C14.5847 31.2933 14.6034 31.2868 14.6274 31.2746C17.434 30.1184 19.4953 27.7277 20.1538 24.8481L20.7692 23.0595H21.36C21.711 23.0595 22 22.7788 22 22.4394V21.2947C22 20.9552 21.7109 20.6747 21.36 20.6747H20.7692L19.5385 19.4823C18.8738 17.0974 7.23077 7.15876 7.23077 1" stroke="#333333" stroke-miterlimit="10" stroke-linecap="round" stroke-linejoin="round"/>
<path d="M18.9262 18C18.0314 19.3333 16.9933 22.8 20 26" stroke="#333333"/>
<path d="M11.4999 17.5C8.83324 18.6667 4.79991 21.7 9.99991 24.5C16.4999 28 14.9998 17.5 11.4999 17.5Z" fill="#3BD7E2" fill-opacity="0.8" stroke="#333333"/>
</svg>
