<svg width="34" height="33" viewBox="0 0 34 33" fill="none" xmlns="http://www.w3.org/2000/svg">
<path d="M33 23.6193C33 25.5926 31.6667 29.3971 28.1585 28.8519C28.1585 28.8519 26.2858 32.36 23.3229 30.037C23.3229 30.037 22.3333 30.405 22.3333 33H17.5925C17.5925 31.2222 15.2222 30.9733 15.2222 28.2593C15.2222 27.0267 15.5897 26.2095 16.1227 25.6643C17.4977 24.2593 19.9629 24.7037 19.9629 24.7037C19.9629 24.7037 20.2297 24.4247 20.6863 24.1354C21.5567 23.5718 23.1099 22.9376 24.7036 24.1111C24.7036 24.1111 25.6932 22.3808 27.074 22.3334C27.074 22.3334 25.729 20.2766 26.5526 18.4757C26.6713 18.2025 26.8425 17.9422 27.074 17.6933C27.074 17.6933 26.3274 16.3483 26.3569 14.9734H26.3628C26.375 14.1262 26.6944 13.2605 27.6666 12.7038C27.6666 12.7038 25.2488 10.8786 27.074 7.51861C27.074 7.51861 23.8621 9.24898 22.2858 8.01046C22.2858 8.01046 21.7824 8.27084 21.0648 8.4248C20.0636 8.64465 18.6533 8.66207 17.5925 7.51861C17.5925 7.51861 16.8755 8.0638 15.8565 8.17023C15.0683 8.25355 14.1018 8.07529 13.1481 7.17491C13.1481 7.17491 10.3807 8.21194 8.70368 6.92602C8.70368 6.92602 8.41319 9.08341 6.97331 9.64009C6.97331 9.64009 7.5358 10.5463 7.71986 11.6134C7.87962 12.4664 7.79109 13.4271 6.97331 14.0845C6.97331 14.0845 7.8859 14.9561 8.08158 16.4433C8.08158 16.4433 8.08157 16.4433 8.08738 16.4433C8.1944 17.2488 8.09378 18.2383 7.5185 19.3703C7.5185 19.3703 8.33615 19.8981 9.00578 20.7453H9.01159C9.48613 21.3379 9.88886 22.0903 9.88886 22.9258C9.88886 23.1862 9.85935 23.442 9.80554 23.6839C9.4328 25.3205 7.8443 26.4814 5.74072 26.4814C3.32295 26.4814 1 24.2592 1 21.7407C1 19.7673 2.28592 17.8888 2.28592 17.8888C2.28592 17.8888 1 16.4548 1 14.3807C1 12.3066 2.13777 12.3066 2.13777 12.3066C2.13777 12.3066 0.259262 8.85182 2.77777 6.9259C2.77777 6.9259 1.24889 1 6.23257 1C7.96294 1 9.29627 2.18518 9.29627 2.18518C9.29627 2.18518 12.2118 0.40741 14.037 2.77777C14.037 2.77777 17.2962 1.04741 19.0266 2.77777C19.0266 2.77777 21.4919 0.360005 24.6562 2.23259C24.6562 2.23259 27.2221 0.211736 29.4443 2.77777C29.4443 2.77777 32.9999 2.77777 32.9999 5.14813C32.9999 8.45479 32.111 8.70368 32.111 8.70368C32.111 8.70368 32.9999 10.2326 32.9999 11.8148C32.9999 13.397 31.6666 15.1748 31.6666 15.1748C31.6666 15.1748 33.148 17.5451 31.5658 19.7673C31.5658 19.7673 33 21.64 33 23.6193Z" fill="#3BD7E2" fill-opacity="0.2"/>
<path d="M27.0001 7.49997C26.2001 4.69997 26.6667 2.66664 27.0001 1.99997C27.0001 0.799973 29 2.16664 30 2.99997C34.4 2.99997 33.1667 6.66664 32 8.49997C33.6 11.7 32.3333 14.5 31.5 15.5C32.3 17.5 31.8333 19.3333 31.5 20C29.1 20.4 27.8333 15.1666 27.5 12.5C26.3 10.9 26.6667 8.49997 27.0001 7.49997Z" fill="#3BD7E2" fill-opacity="0.8"/>
<path d="M26.274 15C26.2441 16.373 27 17.7159 27 17.7159C26.7656 17.9644 26.5922 18.2244 26.4721 18.4972C25.6384 20.2954 27 22.3491 27 22.3491C25.602 22.3964 24.6 24.1243 24.6 24.1243C22.9864 22.9524 21.4136 23.5857 20.5325 24.1485C20.0701 24.4374 19.8 24.716 19.8 24.716C19.8 24.716 17.3039 24.2722 15.9118 25.6751C15.3721 26.2195 15 27.0354 15 28.2663C15 30.9763 17.4 31.2249 17.4 33" stroke="#333333" stroke-miterlimit="10" stroke-linejoin="round"/>
<path d="M8.12469 16C7.92624 14.5935 7 13.7694 7 13.7694C7.82978 13.1478 7.91962 12.2394 7.75761 11.4326C7.57082 10.4235 7 9.56656 7 9.56656C8.4611 9.04014 8.75601 7 8.75601 7C10.4579 8.21603 13.2663 7.23536 13.2663 7.23536C14.2342 8.08692 15.2149 8.25549 16.0148 8.17659C17.0491 8.07594 17.7766 7.56038 17.7766 7.56038C18.8531 8.6417 20.2844 8.62534 21.3003 8.41732C22.0286 8.27174 22.5395 8.02551 22.5395 8.02551C24.1393 9.1966 27.3986 7.56038 27.3986 7.56038C25.5464 10.7378 28 12.4637 28 12.4637C27.0134 12.9902 26.6892 13.8089 26.6769 14.61" stroke="#333333" stroke-miterlimit="10" stroke-linejoin="round"/>
<path d="M9 21C8.54984 20.0153 8 19.4019 8 19.4019C8.3868 18.0863 8.45446 16.9362 8.3825 16" stroke="#333333" stroke-miterlimit="10" stroke-linejoin="round"/>
<path d="M22.3332 33C22.3332 30.405 23.3228 30.037 23.3228 30.037C26.2858 32.36 28.1585 28.8519 28.1585 28.8519C31.6667 29.397 33 25.5926 33 23.6193C33 21.6401 31.5659 19.7674 31.5659 19.7674C33.1481 17.5452 31.6667 15.1748 31.6667 15.1748C31.6667 15.1748 33 13.397 33 11.8148C33 10.2326 32.1111 8.7037 32.1111 8.7037C32.1111 8.7037 33 8.45481 33 5.14815C33 2.77778 29.4444 2.77778 29.4444 2.77778C27.2222 0.211852 24.6563 2.2326 24.6563 2.2326C21.492 0.359884 19.0267 2.77778 19.0267 2.77778C17.2963 1.04741 14.037 2.77778 14.037 2.77778C12.2119 0.407407 9.2963 2.18519 9.2963 2.18519C9.2963 2.18519 7.96296 1 6.23259 1C1.24877 1 2.77778 6.92593 2.77778 6.92593C0.259259 8.85185 2.13778 12.3067 2.13778 12.3067C2.13778 12.3067 1 12.3067 1 14.3807C1 16.4548 2.28593 17.8889 2.28593 17.8889C2.28593 17.8889 1 19.7674 1 21.7407C1 24.2593 3.32296 26.4815 5.74074 26.4815C7.84433 26.4815 9.43283 25.3206 9.80557 23.684C9.85938 23.4421 9.88889 23.1863 9.88889 22.9259C9.88889 22.0903 9.48616 21.338 9.01162 20.7454" stroke="#333333" stroke-miterlimit="10" stroke-linejoin="round"/>
<path d="M6 26C7.5 27.6071 5.5 30.1643 8 31" stroke="#333333" stroke-miterlimit="10" stroke-linejoin="round"/>
<path d="M11 10C11 10 12.2857 8.57895 13 7" stroke="#333333" stroke-miterlimit="10" stroke-linejoin="round"/>
<path d="M8 11.2642C8 11.2642 8.40254 13 10.7114 13C11.7842 13 12.7521 12.4042 13.551 11.6186C15.0673 10.1352 16 8 16 8" stroke="#333333" stroke-miterlimit="10" stroke-linejoin="round"/>
<path d="M18 11C18 11 20.3458 9.20193 21 8" stroke="#333333" stroke-miterlimit="10" stroke-linejoin="round"/>
<path d="M13 12.2705C13 12.2705 13 15 16.0515 15C16.8124 15 17.6281 14.7549 18.3948 14.4053C20.3281 13.5352 22 12 22 12" stroke="#333333" stroke-miterlimit="10" stroke-linejoin="round"/>
<path d="M19 15C19 15 19.5613 15.5361 20.786 15.8222C21.9235 16.0911 23.6324 16.1434 25.9947 15.3385H26" stroke="#333333" stroke-miterlimit="10" stroke-linejoin="round"/>
<path d="M23 20C23 20 25.2747 19.9844 27 18" stroke="#333333" stroke-miterlimit="10" stroke-linejoin="round"/>
<path d="M8 16C8 16 8 16 8.00569 16C8.14523 16.147 10.5852 18.5211 15 17.8951" stroke="#333333" stroke-miterlimit="10" stroke-linejoin="round"/>
<path d="M21 16C20.9447 16.6434 20.8109 18.9924 17.8461 20.2233C16.0869 20.9575 13.3348 21.3034 9.00597 20.6664H9" stroke="#333333" stroke-miterlimit="10" stroke-linejoin="round"/>
<path d="M10 24C10 24 12.0266 26.563 16 25.8862" stroke="#333333" stroke-miterlimit="10" stroke-linejoin="round"/>
<path d="M18 20C18 20 21.9407 20.4586 20.7892 24" stroke="#333333" stroke-miterlimit="10" stroke-linejoin="round"/>
</svg>
