<svg width="40" height="40" viewBox="0 0 40 40" fill="none" xmlns="http://www.w3.org/2000/svg">
<path d="M35.2528 15.6814C35.2528 16.2658 35.1832 17.1339 35.0385 18.1761H35.0328C32.6077 18.0257 30.7674 15.5028 30.6227 15.1026C30.5819 14.9817 30.5187 14.7793 30.478 14.5239C30.3853 13.9632 30.3796 13.1415 30.8019 12.3886C30.8426 12.3197 30.8889 12.244 30.9409 12.1683C31.618 11.1962 33.3078 9.669 33.7713 9.25195C34.726 10.9067 35.2528 13.2737 35.2528 15.6814Z" fill="#3BD7E2" fill-opacity="0.2"/>
<path d="M35.0326 18.176C34.8128 19.7789 34.4251 21.7932 33.8632 23.8357C32.4859 22.945 31.3867 21.7062 30.657 20.2423C31.867 19.1075 33.3891 18.3896 35.0326 18.176Z" fill="#3BD7E2" fill-opacity="0.2"/>
<path d="M33.8633 23.8356C33.4586 25.3232 32.9663 26.8277 32.3819 28.1943C31.2419 26.388 29.6673 24.889 27.8039 23.8356C29.1756 23.0432 30.194 21.758 30.6569 20.2422C31.3867 21.7061 32.486 22.9449 33.8633 23.8356Z" fill="#3BD7E2" fill-opacity="0.2"/>
<path d="M35.0324 18.1758C33.3889 18.3895 31.8668 19.1072 30.6567 20.2422C30.2458 19.9935 29.8237 19.773 29.384 19.5934C29.5167 18.4302 29.3489 17.2841 28.9324 16.2374C29.3953 15.6179 29.9102 15.0448 30.4777 14.5237C30.5184 14.7791 30.5816 14.9815 30.6224 15.1024C30.7669 15.5025 32.6072 18.0254 35.0324 18.1758Z" fill="#3BD7E2" fill-opacity="0.2"/>
<path d="M33.7714 9.25167C33.308 9.66883 31.618 11.1959 30.941 12.168C31.0626 10.6521 28.7764 9.16462 28.0359 8.72489C28.7651 7.69519 29.61 7 30.6228 7C31.9193 7 32.9955 7.87946 33.7714 9.25167Z" fill="#3BD7E2" fill-opacity="0.8"/>
<path d="M28.0356 8.72485C28.7759 9.16458 31.0621 10.6521 30.9407 12.1679C30.8887 12.2436 30.8423 12.3194 30.8016 12.3883C30.3795 13.1412 30.3851 13.963 30.4778 14.5236C29.9104 15.0447 29.3954 15.6177 28.9325 16.2372C28.3651 14.8186 27.3523 13.5978 25.9811 12.793C26.5825 11.3462 27.2426 9.83605 28.0356 8.72485Z" fill="#3BD7E2" fill-opacity="0.2"/>
<path d="M32.3821 28.1942C31.7688 29.623 31.0624 30.9025 30.2638 31.8577C29.633 29.9768 28.4868 28.3152 26.9479 27.048C27.4741 26.0759 27.7753 24.976 27.8041 23.8354C29.6675 24.8891 31.2422 26.388 32.3821 28.1942Z" fill="#3BD7E2" fill-opacity="0.8"/>
<path d="M30.6583 20.2422C30.1955 21.7581 29.177 23.0432 27.8054 23.8357C26.9723 24.0787 26.0979 24.1658 25.2361 24.0911C25.1665 23.3903 24.8308 22.7426 24.2922 22.2904C24.9349 21.7987 25.4441 21.1329 25.751 20.3462C25.942 19.8488 26.0461 19.339 26.0517 18.8303H26.058C27.2036 18.8823 28.3322 19.1423 29.3858 19.5933C29.8253 19.7732 30.2474 19.9936 30.6583 20.2422Z" fill="#3BD7E2" fill-opacity="0.2"/>
<path d="M28.9318 16.2375C29.3484 17.2842 29.5163 18.4303 29.3834 19.5935C28.3298 19.1425 27.2012 18.8824 26.0556 18.8305H26.0493C26.0844 17.6322 25.6384 16.451 24.7766 15.5717C25.1643 14.7792 25.5576 13.8003 25.9803 12.7932C27.3515 13.598 28.3643 14.8188 28.9318 16.2375Z" fill="#3BD7E2" fill-opacity="0.8"/>
<path d="M26.9462 27.0481C28.4852 28.3152 29.6314 29.9769 30.2621 31.8578C29.3477 32.9508 28.306 33.6223 27.1485 33.6223C24.0525 33.6223 24.6544 31.5853 24.2893 29.8142C25.4236 29.1427 26.3381 28.1763 26.94 27.0482H26.9462V27.0481Z" fill="#3BD7E2" fill-opacity="0.2"/>
<path d="M27.8034 23.8354C27.7746 24.976 27.4733 26.0758 26.9472 27.048H26.9409C26.3391 28.1761 25.4245 29.1426 24.2903 29.8139C24.1054 28.9175 23.6714 28.0833 22.3635 27.6267C23.7985 26.9327 24.8458 25.6362 25.2341 24.0909C26.096 24.1656 26.9702 24.0785 27.8034 23.8354Z" fill="#3BD7E2" fill-opacity="0.2"/>
<path d="M24.7761 15.5715C25.638 16.451 26.084 17.6322 26.0489 18.8303C26.0432 19.3391 25.9393 19.8488 25.7482 20.3462C25.4413 21.1329 24.932 21.7987 24.2894 22.2904C23.5779 22.8353 22.6978 23.1709 21.7607 23.2105C21.9111 22.4645 21.9631 21.6947 21.9054 20.9249C22.7153 19.8771 23.0104 18.5172 22.7097 17.2207C22.8136 17.3485 22.9414 17.4174 23.0974 17.4174C23.6994 17.4174 24.2375 16.6714 24.7761 15.5715Z" fill="#3BD7E2" fill-opacity="0.2"/>
<path d="M24.2914 22.2903C24.83 22.7424 25.1658 23.3901 25.2352 24.091C24.847 25.6362 23.7997 26.9328 22.3647 27.6268C21.7045 27.3951 20.8189 27.256 19.627 27.256C20.7206 26.1223 21.4502 24.7162 21.7628 23.2105C22.6999 23.1708 23.5799 22.8351 24.2914 22.2903Z" fill="#3BD7E2" fill-opacity="0.2"/>
<path d="M19.6264 11.6299C21.8951 11.6299 21.9126 14.9294 22.3929 16.5436C20.8765 15.4788 19.1347 14.7791 17.2938 14.5236C17.6121 13.0767 18.1219 11.6299 19.6264 11.6299Z" fill="#3BD7E2" fill-opacity="0.2"/>
<path d="M21.9066 20.9251C21.9642 21.6948 21.9122 22.4646 21.7619 23.2106C21.4494 24.7163 20.7197 26.1224 19.6261 27.2562C19.3254 27.2562 19.0473 27.2619 18.7868 27.2799C18.1967 26.5734 17.7163 25.7923 17.3687 24.9469C17.0562 24.2009 16.8482 23.4198 16.7498 22.6093C17.9824 21.6836 18.6596 20.1904 18.5324 18.6565C19.4757 19.6398 20.6277 20.4152 21.9066 20.9251Z" fill="#3BD7E2" fill-opacity="0.8"/>
<path d="M17.3696 24.9468C17.7172 25.7923 18.1976 26.5734 18.7877 27.2798C15.0721 27.5172 14.9625 29.3517 14.8178 30.9897H14.8115C13.2896 29.7677 12.4446 27.8993 12.5316 25.9483C14.1928 25.9483 15.8419 25.6126 17.3696 24.9468Z" fill="#3BD7E2" fill-opacity="0.2"/>
<path d="M12.5302 25.9482C12.0611 25.9482 11.5926 25.92 11.1235 25.8612C11.2224 25.6069 11.3264 25.3524 11.4423 25.1038C12.2409 23.4072 13.4911 21.9603 15.0651 20.9248H15.0708C15.4704 21.5963 16.0373 22.1807 16.7494 22.6091C16.8478 23.4196 17.0557 24.2006 17.3683 24.9466C15.8406 25.6125 14.1914 25.9482 12.5302 25.9482Z" fill="#3BD7E2" fill-opacity="0.2"/>
<path d="M14.8114 30.9898H14.8177C14.6843 32.3779 14.522 33.6224 12.1031 33.6224C10.5229 33.6224 9.17488 32.3779 8.05188 30.5264C8.80413 28.807 9.84576 27.2337 11.1248 25.8613C11.5939 25.9201 12.0625 25.9484 12.5315 25.9484C12.4443 27.8995 13.2893 29.7679 14.8114 30.9898Z" fill="#3BD7E2" fill-opacity="0.8"/>
<path d="M14.4354 19.2056C14.5338 19.8137 14.7479 20.3981 15.0661 20.9249C13.492 21.9603 12.2419 23.4072 11.4433 25.1039C10.4649 24.4031 9.42899 23.8017 8.35229 23.2863C8.89655 22.2792 9.64881 21.4167 10.5345 20.7453C10.9743 20.4151 11.4489 20.1258 11.9526 19.8952C12.728 19.5357 13.561 19.2983 14.4354 19.2056Z" fill="#3BD7E2" fill-opacity="0.2"/>
<path d="M14.8523 16.2714C14.4008 17.2152 14.2736 18.2393 14.4357 19.2058C13.5614 19.2985 12.7283 19.5359 11.9529 19.8953C11.3159 18.6859 11.1775 17.3249 11.4838 16.069C11.7562 14.9172 12.4039 13.8467 13.3878 13.0657C13.8971 14.2989 14.3663 15.4619 14.8523 16.2714Z" fill="#3BD7E2" fill-opacity="0.2"/>
<path d="M11.9474 9.90503C12.4736 10.8839 12.9483 12.0007 13.388 13.0656C12.4041 13.8466 11.7563 14.9171 11.484 16.0689C10.5639 15.5772 9.57988 15.2528 8.56708 15.1137V15.1081C8.64845 14.0025 9.00739 12.9615 9.59181 12.064C10.1704 11.1676 10.9747 10.4205 11.9474 9.90503Z" fill="#3BD7E2" fill-opacity="0.2"/>
<path d="M11.483 16.0689C11.1767 17.3248 11.3151 18.6856 11.9521 19.8952C11.4485 20.1258 10.9738 20.4152 10.5341 20.7453C9.10467 18.6563 6.67382 17.4875 4.15037 17.6661C4.05198 16.85 4 16.1673 4 15.6812C5.45821 15.0799 7.03842 14.8888 8.56608 15.1138C9.57877 15.2527 10.5628 15.5772 11.483 16.0689Z" fill="#3BD7E2" fill-opacity="0.8"/>
<path d="M8.352 23.2861C9.4287 23.8015 10.4647 24.4028 11.443 25.1037C11.3271 25.3523 11.2232 25.6068 11.1242 25.8611C9.84516 27.2333 8.80353 28.8068 8.05128 30.5261C6.65071 28.2168 5.60909 24.976 4.93207 22.0359C6.10646 22.3479 7.25273 22.7707 8.352 23.2861Z" fill="#3BD7E2" fill-opacity="0.2"/>
<path d="M11.9458 9.90508C10.9732 10.4205 10.1688 11.1677 9.5901 12.064C8.61179 10.6466 7.11851 9.66883 5.44049 9.32065C6.22157 7.90886 7.30949 7 8.62926 7C10.001 7 11.0544 8.26144 11.9458 9.90508Z" fill="#3BD7E2" fill-opacity="0.2"/>
<path d="M9.59081 12.0639C9.00639 12.9615 8.64756 14.0025 8.56608 15.108V15.1137C7.03842 14.8888 5.45809 15.0798 4 15.6811C4 13.3085 4.51486 10.9709 5.4412 9.32056C7.11922 9.66873 8.6125 10.6465 9.59081 12.0639Z" fill="#3BD7E2" fill-opacity="0.2"/>
<path d="M10.534 20.7452C9.64841 21.4167 8.89617 22.2792 8.3518 23.2863C7.25253 22.7709 6.10638 22.3481 4.93187 22.0361C4.56112 20.4151 4.30057 18.8937 4.15021 17.6661C6.67389 17.4875 9.10474 18.6563 10.534 20.7452Z" fill="#3BD7E2" fill-opacity="0.2"/>
<path d="M14.435 19.2055C14.2728 18.239 14.3999 17.2149 14.8516 16.271C15.2681 16.9775 15.6909 17.4171 16.1537 17.4171C16.5358 17.4171 16.7438 17.0011 16.9003 16.3874H16.906C17.3401 17.2262 17.89 17.9903 18.5326 18.6561C18.6598 20.19 17.9827 21.6832 16.7501 22.609C16.038 22.1806 15.4711 21.5962 15.0715 20.9247H15.0658C14.7475 20.398 14.5333 19.8136 14.435 19.2055Z" fill="#3BD7E2" fill-opacity="0.2"/>
<path d="M22.7097 17.2206C23.0104 18.5171 22.7153 19.877 21.9054 20.9248C20.6264 20.4151 19.4746 19.6396 18.5313 18.6561C17.8887 17.9904 17.3388 17.2262 16.9047 16.3875H16.899C17.0437 15.8607 17.1477 15.1949 17.2924 14.5234C19.1331 14.7789 20.875 15.4786 22.3915 16.5434C22.4779 16.8329 22.5762 17.0703 22.7097 17.2206Z" fill="#3BD7E2" fill-opacity="0.2"/>
<path d="M35.0325 18.1759C34.8127 19.7788 34.4249 21.7931 33.8631 23.8356C33.4584 25.3232 32.9661 26.8277 32.3817 28.1943C31.7685 29.6231 31.0621 30.9026 30.2634 31.8577C29.349 32.9508 28.3073 33.6222 27.1499 33.6222C24.0538 33.6222 24.6557 31.5853 24.2906 29.8141C24.1058 28.9177 23.6717 28.0835 22.3639 27.6269C21.7037 27.3951 20.8181 27.2561 19.6262 27.2561C19.3254 27.2561 19.0474 27.2618 18.7869 27.2798C15.0713 27.5172 14.9617 29.3518 14.817 30.9897C14.6837 32.3778 14.5214 33.6223 12.1024 33.6223C10.5222 33.6223 9.17422 32.3778 8.05122 30.5263C6.65066 28.217 5.60903 24.9762 4.93201 22.0361C4.56127 20.4151 4.30071 18.8937 4.15035 17.6661C4.05197 16.8499 4 16.1672 4 15.6812C4 13.3086 4.51486 10.971 5.4412 9.32065C6.22228 7.90886 7.3102 7 8.62997 7C10.0017 7 11.0551 8.26144 11.9464 9.90508C12.4726 10.884 12.9473 12.0007 13.387 13.0656C13.8962 14.2988 14.3654 15.462 14.8514 16.2713C15.268 16.9778 15.6907 17.4174 16.1536 17.4174C16.5356 17.4174 16.7436 17.0014 16.9001 16.3877C17.0448 15.861 17.1488 15.1952 17.2935 14.5237C17.6117 13.0768 18.1214 11.63 19.6259 11.63C21.8946 11.63 21.9121 14.9295 22.3924 16.5436C22.4789 16.833 22.5773 17.0704 22.7106 17.2208C22.8146 17.3486 22.9424 17.4174 23.0984 17.4174C23.7003 17.4174 24.2384 16.6714 24.777 15.5716C25.1648 14.7792 25.5581 13.8003 25.9808 12.7931C26.5821 11.3463 27.2422 9.83608 28.0352 8.72501C28.7643 7.6953 29.6093 7.00011 30.6221 7.00011C31.9186 7.00011 32.9947 7.87958 33.7707 9.25178C34.7253 10.9067 35.2521 13.2736 35.2521 15.6813C35.2521 16.2657 35.1825 17.1338 35.0378 18.1761" stroke="#666666" stroke-miterlimit="10" stroke-linejoin="round"/>
<path d="M35.0328 18.1761C32.6077 18.0257 30.7674 15.5028 30.6227 15.1026C30.5819 14.9817 30.5187 14.7793 30.478 14.5239C30.3853 13.9632 30.3796 13.1415 30.8019 12.3886C30.8426 12.3197 30.8889 12.244 30.9409 12.1683C31.618 11.1962 33.3078 9.669 33.7713 9.25195" stroke="#666666" stroke-miterlimit="10" stroke-linejoin="round"/>
<path d="M27.8039 8.59717C27.8039 8.59717 27.8909 8.64347 28.0356 8.72496C28.776 9.16469 31.0621 10.6522 30.9407 12.168" stroke="#666666" stroke-miterlimit="10" stroke-linejoin="round"/>
<path d="M29.3844 19.5934C29.5172 18.4303 29.3494 17.2841 28.9329 16.2374C28.3655 14.8188 27.3527 13.598 25.9815 12.7932C25.9521 12.7763 25.9233 12.7593 25.8945 12.7412" stroke="#666666" stroke-miterlimit="10" stroke-linejoin="round"/>
<path d="M28.9324 16.2374C29.3953 15.6179 29.9102 15.0448 30.4777 14.5237" stroke="#666666" stroke-miterlimit="10" stroke-linejoin="round"/>
<path d="M17.2938 14.5237C19.1346 14.7791 20.8765 15.4789 22.3929 16.5436C22.3929 16.5493 22.3986 16.5493 22.3986 16.5493" stroke="#666666" stroke-miterlimit="10" stroke-linejoin="round"/>
<path d="M22.7113 17.2207C23.012 18.5172 22.717 19.877 21.9071 20.9249" stroke="#666666" stroke-miterlimit="10" stroke-linejoin="round"/>
<path d="M16.9058 16.3877C17.3398 17.2264 17.8897 17.9906 18.5324 18.6564C19.4756 19.6398 20.6276 20.4152 21.9065 20.9251" stroke="#666666" stroke-miterlimit="10" stroke-linejoin="round"/>
<path d="M21.9074 20.925C21.9651 21.6948 21.9131 22.4646 21.7628 23.2106C21.4502 24.7163 20.7206 26.1224 19.627 27.2562" stroke="#666666" stroke-miterlimit="10" stroke-linejoin="round"/>
<path d="M21.7607 23.2107C22.6978 23.1711 23.5778 22.8354 24.2894 22.2906C24.932 21.7989 25.4412 21.1331 25.7482 20.3463C25.9392 19.849 26.0432 19.3392 26.0489 18.8305C26.084 17.6323 25.638 16.451 24.7761 15.5717C24.7642 15.5603 24.753 15.548 24.741 15.5366" stroke="#666666" stroke-miterlimit="10" stroke-linejoin="round"/>
<path d="M26.0553 18.8303C27.2009 18.8823 28.3295 19.1423 29.3831 19.5933C29.8228 19.7731 30.245 19.9935 30.6559 20.2421" stroke="#666666" stroke-miterlimit="10" stroke-linejoin="round"/>
<path d="M30.657 20.2421C31.867 19.1072 33.3891 18.3895 35.0326 18.1758H35.0383" stroke="#666666" stroke-miterlimit="10" stroke-linejoin="round"/>
<path d="M30.657 20.2422C31.3867 21.706 32.4859 22.9449 33.8632 23.8356H33.8695" stroke="#666666" stroke-miterlimit="10" stroke-linejoin="round"/>
<path d="M30.6569 20.2422C30.194 21.758 29.1755 23.0432 27.8039 23.8356" stroke="#666666" stroke-miterlimit="10" stroke-linejoin="round"/>
<path d="M27.8039 23.8354C29.6673 24.889 31.2419 26.3878 32.3819 28.1941" stroke="#666666" stroke-miterlimit="10" stroke-linejoin="round"/>
<path d="M26.94 27.0481C26.3381 28.1762 25.4235 29.1427 24.2893 29.814" stroke="#666666" stroke-miterlimit="10" stroke-linejoin="round"/>
<path d="M27.8041 23.8354C27.7752 24.976 27.474 26.0758 26.9479 27.048" stroke="#666666" stroke-miterlimit="10" stroke-linejoin="round"/>
<path d="M26.9412 27.0481H26.9474C28.4864 28.3152 29.6326 29.9769 30.2633 31.8578" stroke="#666666" stroke-miterlimit="10" stroke-linejoin="round"/>
<path d="M24.2893 22.2903C24.8279 22.7424 25.1637 23.3901 25.2331 24.091" stroke="#666666" stroke-miterlimit="10" stroke-linejoin="round"/>
<path d="M25.2341 24.0911C24.8459 25.6363 23.7986 26.9328 22.3635 27.6269" stroke="#666666" stroke-miterlimit="10" stroke-linejoin="round"/>
<path d="M25.2349 24.0909C26.0967 24.1656 26.9711 24.0785 27.8042 23.8354" stroke="#666666" stroke-miterlimit="10" stroke-linejoin="round"/>
<path d="M18.5324 18.6562C18.6596 20.1902 17.9824 21.6833 16.7498 22.6091" stroke="#666666" stroke-miterlimit="10" stroke-linejoin="round"/>
<path d="M16.7498 22.6094C16.8482 23.4199 17.0561 24.2009 17.3687 24.9469C17.7163 25.7925 18.1967 26.5736 18.7868 27.28" stroke="#666666" stroke-miterlimit="10" stroke-linejoin="round"/>
<path d="M15.0715 20.925C15.471 21.5965 16.038 22.1809 16.7501 22.6093" stroke="#666666" stroke-miterlimit="10" stroke-linejoin="round"/>
<path d="M14.869 16.2373C14.8628 16.2486 14.8571 16.2599 14.8515 16.2712C14.4 17.215 14.2728 18.2392 14.435 19.2057C14.5333 19.8138 14.7475 20.3982 15.0657 20.925" stroke="#666666" stroke-miterlimit="10" stroke-linejoin="round"/>
<path d="M15.0708 20.925H15.0651C13.4911 21.9604 12.241 23.4073 11.4423 25.1041C11.3264 25.3527 11.2225 25.6071 11.1235 25.8614" stroke="#666666" stroke-miterlimit="10" stroke-linejoin="round"/>
<path d="M11.1235 25.8612C11.5927 25.92 12.0612 25.9483 12.5302 25.9483C14.1914 25.9483 15.8406 25.6126 17.3682 24.9468" stroke="#666666" stroke-miterlimit="10" stroke-linejoin="round"/>
<path d="M11.1248 25.8613C9.84576 27.2335 8.80413 28.807 8.05188 30.5264" stroke="#666666" stroke-miterlimit="10" stroke-linejoin="round"/>
<path d="M12.5316 25.9426V25.9483C12.4446 27.8993 13.2896 29.7678 14.8115 30.9898" stroke="#666666" stroke-miterlimit="10" stroke-linejoin="round"/>
<path d="M11.443 25.1037C10.4647 24.4028 9.4287 23.8015 8.352 23.2861C7.25273 22.7707 6.10658 22.3479 4.93207 22.0359" stroke="#666666" stroke-miterlimit="10" stroke-linejoin="round"/>
<path d="M8.35229 23.2919V23.2862C8.89655 22.2791 9.64881 21.4166 10.5345 20.7452C10.9743 20.415 11.4489 20.1257 11.9526 19.8951C12.728 19.5357 13.561 19.2983 14.4354 19.2056H14.4411" stroke="#666666" stroke-miterlimit="10" stroke-linejoin="round"/>
<path d="M4.15021 17.6661C6.67377 17.4875 9.10462 18.6563 10.5339 20.7452" stroke="#666666" stroke-miterlimit="10" stroke-linejoin="round"/>
<path d="M13.4574 13.0078C13.4343 13.0247 13.4111 13.0429 13.3878 13.0654C12.4039 13.8465 11.7561 14.917 11.4838 16.0688C11.1775 17.3247 11.3159 18.6855 11.9529 19.8951" stroke="#666666" stroke-miterlimit="10" stroke-linejoin="round"/>
<path d="M4 15.6812C5.45821 15.0799 7.03842 14.8888 8.56608 15.1138C9.57888 15.2529 10.5629 15.5773 11.483 16.069" stroke="#666666" stroke-miterlimit="10" stroke-linejoin="round"/>
<path d="M12.1091 9.81909C12.0515 9.84733 11.9995 9.87674 11.9475 9.90499C10.9749 10.4204 10.1706 11.1676 9.59181 12.0639C9.00739 12.9615 8.64857 14.0025 8.56708 15.108" stroke="#666666" stroke-miterlimit="10" stroke-linejoin="round"/>
<path d="M5.44049 9.32056C7.11851 9.66873 8.61167 10.6465 9.5901 12.0639" stroke="#666666" stroke-miterlimit="10" stroke-linejoin="round"/>
</svg>
