<svg width="32" height="32" viewBox="0 0 32 32" fill="none" xmlns="http://www.w3.org/2000/svg">
<path d="M21.8696 2C26.487 2 31 6.74027 31 12.6667C31 21.9004 20.4742 30 14.2715 30C8.35666 30 9.55666 27.2604 6.19131 27.2604C5.01114 27.2604 4.91304 30.1732 4.91304 32H1C1 24.7936 1.57379 21.3333 6.19131 21.3333C9.36753 21.3333 14.6957 22.7136 14.6957 14.6667C14.6957 7.95373 8.17391 8.44667 8.17391 0H12.087C12.087 1.5332 13.548 3.01373 15.4262 3.01373C18.3349 3.01373 18.7916 2 21.8696 2Z" fill="#3BD7E2" fill-opacity="0.2"/>
<path d="M26.5027 4C26.5027 4 31 7.32278 31 12.9116C31 20.3283 23.1087 30 13.2272 30C9.54986 30 8 28.1076 8 28.1076C21.2194 25.6649 29.6662 20.3283 26.5027 4Z" fill="#3BD7E2" fill-opacity="0.8"/>
<path d="M5 32C5 30.1732 5.09777 27.2604 6.27401 27.2604C9.62814 27.2604 8.43227 30 14.3272 30C20.5093 30 31 21.9004 31 12.6667C31 6.74027 26.502 2 21.9 2C18.8321 2 18.377 3.01373 15.4781 3.01373C13.6063 3.01373 12.15 1.5332 12.15 0" stroke="#333333" stroke-miterlimit="10" stroke-linejoin="round"/>
<path d="M8.33333 0C8.33333 8.44667 15 7.95373 15 14.6667C15 22.7136 9.55334 21.3333 6.30667 21.3333C1.58667 21.3333 1 24.7936 1 32" stroke="#333333" stroke-miterlimit="10" stroke-linejoin="round"/>
<path d="M23 7C24.7483 7 27 8.6001 27 11" stroke="#333333" stroke-miterlimit="10" stroke-linejoin="round"/>
</svg>
