<svg width="29" height="32" viewBox="0 0 29 32" fill="none" xmlns="http://www.w3.org/2000/svg">
<path d="M15 1.00188C13.8 1.00188 5.5 0.335211 1.5 0.00187776C0.7 -0.0644115 1.5 1.64092 2 2.50188C1.5 5.33521 0.5 11.8019 0.5 15.0019C0.5 18.2019 1.83333 25.0019 2.5 28.0019L1 31.0019C1.5 31.0019 3 30.9019 5 30.5019C7.5 30.0019 18.5 30.5019 20 30.5019C21.2 30.5019 26.1667 30.8352 28.5 31.0019L27 28.0019C27.1667 25.6685 27.6 20.7019 28 19.5019C28.5 18.0019 28.5 15.5019 28.5 12.5019C28.5 10.1019 27.1667 5.16854 26.5 3.00188L28.5 0.00187776C24.5 0.335211 16.2 1.00188 15 1.00188Z" fill="#3BD7E2" fill-opacity="0.2"/>
<path d="M15 3.5C13.8 3.5 5.83333 3.16667 2 3C1.6 2.6 1.16667 1.16667 1 0.5C5 0.833333 13.3 1.5 14.5 1.5C15.7 1.5 24.3333 0.833333 28.5 0.5L27 3C23.5 3.16667 16.2 3.5 15 3.5Z" fill="#3BD7E2" fill-opacity="0.8"/>
<path d="M0.5 31.5L2.5 28.5H14.5C15.7 28.5 23 28.8333 26.5 29L28.5 31.5C24.1667 31.1667 15.3 30.5 14.5 30.5C13.7 30.5 4.83333 31.1667 0.5 31.5Z" fill="#3BD7E2" fill-opacity="0.8"/>
<path d="M27.4489 29.0284C27.4264 28.9985 27.4039 28.9687 27.3846 28.9389C27.6292 27.4636 29 19.0466 29 16C29 12.9567 27.6292 4.53636 27.3846 3.06113C27.4071 3.0313 27.4296 3.00145 27.4489 2.97162C28.2727 1.84448 28.9034 0.783649 28.9324 0.737238C29.0225 0.581427 29.0225 0.389165 28.9324 0.233355C28.8423 0.0775447 28.675 -0.0119673 28.498 0.00129318C28.3918 0.0079234 17.9528 0.747193 14.5 0.747193C11.0504 0.747193 0.608181 0.0079234 0.501989 0.00129318C0.325003 -0.0119673 0.157679 0.0775447 0.0675765 0.233355C-0.0225255 0.389165 -0.0225255 0.581427 0.0675765 0.737238C0.09332 0.780334 0.72403 1.84448 1.55104 2.97162C1.57356 3.00145 1.59611 3.0313 1.61542 3.06113C1.37086 4.53636 1.25679e-05 12.9534 1.25679e-05 16C1.25679e-05 19.0433 1.37086 27.4636 1.61542 28.9389C1.59289 28.9687 1.57035 28.9985 1.55104 29.0284C0.727248 30.1555 0.0965379 31.2163 0.0675765 31.2628C-0.0225255 31.4186 -0.0225255 31.6109 0.0675765 31.7667C0.157679 31.9225 0.325003 32.012 0.501989 31.9987C0.608181 31.9921 11.0471 31.2528 14.5 31.2528C17.9496 31.2528 28.3918 31.9921 28.498 31.9987C28.5076 31.9987 28.5205 31.9987 28.5302 31.9987C28.6943 31.9987 28.8455 31.9125 28.9324 31.7667C29.0225 31.6109 29.0225 31.4186 28.9324 31.2628C28.9034 31.2197 28.2759 30.1555 27.4489 29.0284ZM1.36763 1.03892C4.02243 1.22125 11.6328 1.72184 14.5 1.72184C17.3672 1.72184 24.9776 1.21794 27.6324 1.03892C27.3331 1.50304 26.9952 1.99699 26.6445 2.46773C23.7033 2.66333 17.1033 3.08766 14.5 3.08766C11.8967 3.08766 5.29671 2.66664 2.35552 2.46773C2.00477 1.99699 1.6669 1.50304 1.36763 1.03892ZM0.942844 16.0033C0.942844 13.4407 1.98869 6.67461 2.41024 4.06562C3.18898 4.97727 3.84222 5.49111 4.38605 5.63034C4.63705 5.69333 4.89124 5.5342 4.95559 5.27562C5.01673 5.01704 4.86229 4.75516 4.61129 4.68886C4.23801 4.59604 3.71994 4.12528 3.17611 3.49209C6.78663 3.73078 12.1573 4.05566 14.5064 4.05566C16.8555 4.05566 22.2262 3.73078 25.8368 3.49209C25.2897 4.12528 24.7748 4.59272 24.4016 4.68886C24.1506 4.75185 23.9961 5.01373 24.0573 5.27562C24.1088 5.49773 24.3018 5.64359 24.5142 5.64359C24.5496 5.64359 24.5882 5.64029 24.6268 5.63034C25.1706 5.49442 25.8239 4.97727 26.6026 4.06562C27.021 6.67461 28.07 13.4407 28.07 16.0033C28.07 18.5659 27.0242 25.332 26.6026 27.941C25.8239 27.0294 25.1706 26.5155 24.6268 26.3763C24.3758 26.3133 24.1216 26.4724 24.0573 26.731C23.9961 26.9896 24.1506 27.2515 24.4016 27.3178C24.7748 27.4106 25.2929 27.8814 25.8368 28.5145C22.2262 28.2759 16.8555 27.951 14.5064 27.951C12.1573 27.951 6.78663 28.2759 3.17611 28.5145C3.72316 27.8814 4.23801 27.4139 4.61129 27.3178C4.86229 27.2548 5.01673 26.9929 4.95559 26.731C4.89445 26.4724 4.64027 26.3133 4.38605 26.3763C3.84222 26.5122 3.18898 27.0294 2.41024 27.941C1.98869 25.332 0.942844 18.5659 0.942844 16.0033ZM14.5 30.2848C11.6328 30.2848 4.02243 30.7854 1.36763 30.9677C1.6669 30.5036 2.00477 30.0096 2.35552 29.5389C5.29671 29.3433 11.8967 28.919 14.5 28.919C17.1033 28.919 23.7033 29.34 26.6445 29.5389C26.9952 30.0096 27.3331 30.5069 27.6324 30.9677C24.9776 30.7854 17.3704 30.2848 14.5 30.2848Z" fill="#333333"/>
<path d="M14.0281 17.298H15.1341V15.506C16.7721 15.156 17.9341 14.022 17.9341 12.776C17.9341 11.348 16.7721 10.214 14.9941 10.214C13.5801 10.214 12.5721 10.9 11.8301 11.824L12.5441 12.538C13.1601 11.782 13.8881 11.208 14.9381 11.208C16.1141 11.208 16.8281 12.02 16.8281 12.874C16.8281 13.784 15.6661 14.54 14.0281 14.68V17.298ZM14.5881 20.168C14.9941 20.168 15.3301 19.818 15.3301 19.398C15.3301 19.006 14.9941 18.656 14.5881 18.656C14.1541 18.656 13.8181 19.006 13.8181 19.398C13.8181 19.818 14.1541 20.168 14.5881 20.168Z" fill="#333333"/>
</svg>
