<svg width="36" height="20" viewBox="0 0 36 20" fill="none" xmlns="http://www.w3.org/2000/svg">
<rect x="0.25" y="0.25" width="35.5" height="19.5" rx="9.75" stroke="#31B6F7" stroke-width="0.5"/>
<path d="M9.82828 10.51C11.2183 10.3 12.5083 9.61 13.0783 8.64C13.6483 9.61 14.9283 10.3 16.3183 10.51L16.6083 9.85C15.0083 9.63 13.4883 8.64 13.4883 7.54H16.3483V6.88H13.4883V5.78H12.6683V6.88H9.80828V7.54H12.6583C12.6583 8.65 11.1483 9.63 9.52828 9.85L9.82828 10.51ZM17.1383 11.19H9.02828V11.86H12.6683V14.75H13.4883V11.86H17.1383V11.19ZM22.9675 8.53V9.21H24.7775V12.47H25.6075V5.78H24.7775V8.53H22.9675ZM23.5175 10.56C22.1875 10.14 21.2775 9.1 21.2775 7.91V7.63H23.2575V6.97H21.2775V5.83H20.4575V6.97H18.4675V7.63H20.4575V7.91C20.4575 9.16 19.5675 10.28 18.2375 10.73L18.6475 11.37C19.6975 11 20.4975 10.24 20.8775 9.25C21.2875 10.16 22.0875 10.87 23.1175 11.21L23.5175 10.56ZM20.6975 13.87V11.87H19.8675V14.54H25.8575V13.87H20.6975Z" fill="#31B6F7"/>
</svg>
