<svg width="29" height="28" viewBox="0 0 29 28" fill="none" xmlns="http://www.w3.org/2000/svg">
<path d="M29 6H6L8.9308 0H26.0689L29 6Z" fill="#A27950"/>
<path d="M26 21L13 28L0 21V0H26V21Z" fill="#BD9164"/>
<path d="M13.228 17.182C15.468 17.182 16.938 15.978 16.938 14.312C16.938 13.038 15.972 12.296 14.922 12.058C15.972 11.75 16.728 10.952 16.728 9.846C16.728 8.32 15.37 7.214 13.2 7.214C11.492 7.214 10.344 7.956 9.546 8.922L10.736 10.182C11.38 9.51 12.094 9.062 13.004 9.062C13.956 9.062 14.614 9.51 14.614 10.21C14.614 10.896 13.984 11.288 12.934 11.288L11.828 11.274V13.038H12.934C14.236 13.024 14.81 13.402 14.81 14.144C14.81 14.83 14.194 15.32 13.13 15.32C12.164 15.32 11.254 14.914 10.582 14.186L9.364 15.558C10.176 16.496 11.492 17.182 13.228 17.182Z" fill="white"/>
</svg>
