<svg width="29" height="28" viewBox="0 0 29 28" fill="none" xmlns="http://www.w3.org/2000/svg">
<path d="M29 6H6L8.9308 0H26.0689L29 6Z" fill="#959595"/>
<path d="M26 21L13 28L0 21V0H26V21Z" fill="#B3B3B3"/>
<path d="M9.616 18H16.882V16.138H12.808L14.558 14.78C16.238 13.562 16.798 12.568 16.798 11.28C16.798 9.474 15.314 8.214 13.27 8.214C11.716 8.214 10.498 8.886 9.546 10.09L10.862 11.364C11.562 10.566 12.276 10.09 13.214 10.09C13.998 10.09 14.67 10.566 14.67 11.364C14.67 12.036 14.306 12.666 13.158 13.576L9.616 16.32V18Z" fill="white"/>
</svg>
