<svg width="36" height="20" viewBox="0 0 36 20" fill="none" xmlns="http://www.w3.org/2000/svg">
<rect x="0.25" y="0.25" width="35.5" height="19.5" rx="9.75" stroke="#E10000" stroke-width="0.5"/>
<path d="M9.81828 10.13C11.2083 9.89 12.5283 9.14 13.0783 8.08C13.6183 9.14 14.9483 9.89 16.3383 10.13L16.6583 9.48C15.0783 9.25 13.5283 8.22 13.5283 7.04V6.99H16.3383V6.33H9.78828V6.99H12.6183V7.04C12.6183 8.22 11.0683 9.25 9.50828 9.48L9.81828 10.13ZM17.1283 10.88H9.02828V11.55H12.6483V14.74H13.4683V11.55H17.1383L17.1283 10.88ZM21.1275 6.43C19.7375 6.43 18.7275 7.28 18.7275 8.54C18.7275 9.79 19.7375 10.65 21.1275 10.65C22.5275 10.65 23.5275 9.79 23.5275 8.54C23.5275 7.28 22.5275 6.43 21.1275 6.43ZM21.1275 7.13C22.0575 7.13 22.7275 7.7 22.7275 8.54C22.7275 9.37 22.0575 9.95 21.1275 9.95C20.1975 9.95 19.5275 9.37 19.5275 8.54C19.5275 7.7 20.1975 7.13 21.1275 7.13ZM24.7075 5.77V14.76H25.5275V5.77H24.7075ZM18.3775 12.79C19.9975 12.79 22.1675 12.78 24.1875 12.4L24.1175 11.79C22.1575 12.09 19.9075 12.1 18.2775 12.1L18.3775 12.79Z" fill="#E10000"/>
</svg>
