<svg width="30" height="32" viewBox="0 0 30 32" fill="none" xmlns="http://www.w3.org/2000/svg">
<path d="M28.7441 26.1941L27.7508 24.92C27.9791 24.2995 28.4741 22.7283 28.5845 20.5236C28.6673 18.8704 28.5155 17.1988 28.1334 15.5551C27.7028 13.7023 26.9759 11.8817 25.9721 10.134C26.2844 10.0281 26.5927 9.91801 26.8961 9.80301C27.2467 9.67003 27.512 9.38871 27.6239 9.03113C27.7356 8.67406 27.6782 8.29236 27.4664 7.98389L25.6955 5.40536C25.6333 5.14706 25.443 4.91847 25.127 4.7239C24.8604 4.55975 24.4977 4.41219 24.0181 4.27279C23.168 4.0256 21.9613 3.81424 20.524 3.65982L17.0332 0.846598C16.3604 0.304336 15.5139 0.00370616 14.6497 4.08932e-05C14.6444 4.08932e-05 14.6391 0 14.6338 0C13.7752 0 12.9325 0.293182 12.2592 0.82638L8.67882 3.66211C7.2472 3.81637 6.04511 4.02726 5.19745 4.2737C4.77066 4.39777 3.69571 4.71085 3.52195 5.40358L1.74922 7.9848C1.53738 8.29323 1.47992 8.67493 1.59169 9.03196C1.70354 9.38958 1.96886 9.67098 2.31946 9.80391C2.62285 9.91891 2.93121 10.029 3.24351 10.1349C2.23966 11.8827 1.51279 13.7033 1.0821 15.5561C0.700049 17.1997 0.548275 18.8713 0.631039 20.5245C0.74147 22.7293 1.23644 24.3005 1.46471 24.9209L0.471423 26.195C0.0857027 26.6899 -0.0743468 27.3282 0.03234 27.9465C0.139421 28.5669 0.506026 29.1171 1.03812 29.4558C2.93302 30.662 5.80856 31.4538 9.58481 31.8092C11.2689 31.9676 12.7414 32 13.6633 32C14.1615 32 14.4984 31.9905 14.6215 31.9864C14.7627 31.9909 15.0869 31.9991 15.5522 31.9991C16.4741 31.9991 17.9467 31.9667 19.6307 31.8083C23.4069 31.4529 26.2825 30.6611 28.1774 29.4549C28.7094 29.1162 29.0761 28.5661 29.1831 27.9455C29.2899 27.3273 29.1298 26.689 28.7441 26.1941Z" fill="#3BD7E2" fill-opacity="0.2"/>
<path d="M23 6.5001C23 6.5001 10.5 7.16676 6.5 6.5001C8 4.0002 13 1.0001 14.5 0.500098C15.7 0.100098 20.6667 4.33343 23 6.5001Z" fill="#3BD7E2" fill-opacity="0.8"/>
<path d="M28.7441 26.1941L27.7508 24.92C27.9791 24.2995 28.4741 22.7283 28.5845 20.5236C28.6673 18.8704 28.5155 17.1988 28.1334 15.5551C27.7028 13.7023 26.9759 11.8817 25.9721 10.134C26.2844 10.0281 26.5927 9.91801 26.8961 9.80301C27.2467 9.67003 27.512 9.38871 27.6239 9.03113C27.7356 8.67406 27.6782 8.29236 27.4664 7.98389L25.6955 5.40536C25.6333 5.14706 25.443 4.91847 25.127 4.7239C24.8604 4.55975 24.4977 4.41219 24.0181 4.27279C23.168 4.0256 21.9613 3.81424 20.524 3.65982L17.0332 0.846598C16.3604 0.304336 15.5139 0.00370616 14.6497 4.08932e-05C14.6444 4.08932e-05 14.6391 0 14.6338 0C13.7752 0 12.9325 0.293182 12.2592 0.82638L8.67882 3.66211C7.2472 3.81637 6.04511 4.02726 5.19745 4.2737C4.77066 4.39777 3.69571 4.71085 3.52195 5.40358L1.74922 7.9848C1.53738 8.29323 1.47992 8.67493 1.59169 9.03196C1.70354 9.38958 1.96886 9.67098 2.31946 9.80391C2.62285 9.91891 2.93121 10.029 3.24351 10.1349C2.23966 11.8827 1.51279 13.7033 1.0821 15.5561C0.700049 17.1997 0.548275 18.8713 0.631039 20.5245C0.74147 22.7293 1.23644 24.3005 1.46471 24.9209L0.471423 26.195C0.0857027 26.6899 -0.0743468 27.3282 0.03234 27.9465C0.139421 28.5669 0.506026 29.1171 1.03812 29.4558C2.93302 30.662 5.80856 31.4538 9.58481 31.8092C11.2689 31.9676 12.7414 32 13.6633 32C14.1615 32 14.4984 31.9905 14.6215 31.9864C14.7627 31.9909 15.0869 31.9991 15.5522 31.9991C16.4741 31.9991 17.9467 31.9667 19.6307 31.8083C23.4069 31.4529 26.2825 30.6611 28.1774 29.4549C28.7094 29.1162 29.0761 28.5661 29.1831 27.9455C29.2899 27.3273 29.1298 26.689 28.7441 26.1941ZM24.5932 5.59524C24.4398 5.68999 24.113 5.84476 23.4474 6.01568L22.0597 4.89735C23.5862 5.14757 24.3167 5.42593 24.5932 5.59524ZM12.8955 1.62959C13.3883 1.23925 14.0052 1.02466 14.6338 1.02466C14.6376 1.02466 14.6416 1.02466 14.6455 1.0247C15.2781 1.02738 15.8977 1.24745 16.3903 1.6444L22.1465 6.28337C21.9805 6.31111 21.804 6.3387 21.6163 6.36597C19.7033 6.64382 17.2298 6.79686 14.6515 6.79686C14.6338 6.79686 14.6163 6.79772 14.5991 6.7995C14.5875 6.79871 14.576 6.79772 14.5641 6.79772C11.9858 6.79772 9.51237 6.64469 7.59934 6.36688C7.39562 6.33728 7.20574 6.30729 7.02748 6.27718L12.8955 1.62959ZM7.10811 4.90613L5.72142 6.00441C5.08725 5.83829 4.77216 5.68857 4.62247 5.59611C4.89611 5.42857 5.61414 5.15427 7.10811 4.90613ZM2.56969 8.72589C2.55956 8.69361 2.54931 8.62981 2.59393 8.56486L4.0486 6.44677C4.28109 6.59909 4.52729 6.69372 4.65574 6.74298C5.22003 6.95939 6.01515 7.15164 7.01904 7.31445C9.03876 7.64204 11.7183 7.82242 14.5641 7.82242C14.5818 7.82242 14.5993 7.82155 14.6165 7.81978C14.6282 7.82057 14.6397 7.82156 14.6515 7.82156C17.4973 7.82156 20.1769 7.64117 22.1966 7.31358C22.6528 7.23961 23.0653 7.15944 23.4332 7.07384C23.4338 7.07372 23.4344 7.07357 23.435 7.07345C23.8759 6.9707 24.2524 6.86003 24.5599 6.74216C24.6884 6.69289 24.9346 6.5983 25.1671 6.44594L26.6217 8.56403C26.6664 8.62902 26.6561 8.69286 26.646 8.7251C26.6358 8.7577 26.6075 8.81658 26.5328 8.84491C23.0356 10.171 18.8972 10.872 14.565 10.872C14.5623 10.872 14.5596 10.8723 14.5569 10.8724C10.2588 10.8623 6.15483 10.1623 2.68288 8.84586C2.60811 8.8174 2.5799 8.75848 2.56969 8.72589ZM28.1735 27.7713C28.1145 28.1128 27.9205 28.4037 27.6272 28.5905C23.6758 31.1057 15.7484 30.9904 14.7 30.9633C14.6771 30.9611 14.6541 30.9598 14.6305 30.9608C14.6293 30.9608 14.6261 30.961 14.6215 30.9611C14.6005 30.9604 14.5881 30.96 14.5852 30.9599C14.5542 30.9587 14.5239 30.9607 14.4943 30.9648C13.3642 30.9927 5.51428 31.0903 1.5885 28.5913C1.29524 28.4047 1.10126 28.1137 1.0423 27.7722C0.983771 27.433 1.06807 27.0966 1.27975 26.825L2.45271 25.3204C2.56831 25.1721 2.5931 24.9717 2.51778 24.7995C2.2622 24.2147 1.75241 22.5479 1.65231 20.4257C1.57908 18.8727 1.7255 17.3019 2.08761 15.757C2.51223 13.9453 3.23665 12.1629 4.24262 10.4534C7.40705 11.401 10.9633 11.8975 14.6508 11.8975C14.6606 11.8975 14.6701 11.8965 14.6798 11.896C18.3263 11.8858 21.8417 11.3903 24.9732 10.4525C25.9792 12.162 26.7036 13.9444 27.1282 15.7561C27.4903 17.301 27.6367 18.8718 27.5635 20.4248C27.4634 22.547 26.9536 24.2137 26.6984 24.7978C26.6223 24.9704 26.6472 25.1707 26.7632 25.3194L27.9361 26.8241C28.1476 27.0957 28.232 27.432 28.1735 27.7713Z" fill="#333333"/>
<path d="M10.9626 5.32138C10.9693 5.35409 10.9791 5.38637 10.9921 5.41754C11.0047 5.44824 11.0205 5.47824 11.0391 5.50582C11.0485 5.51962 11.0584 5.53341 11.069 5.54642C11.0797 5.55946 11.0911 5.57204 11.1029 5.58386C11.1147 5.59568 11.1273 5.60672 11.1403 5.61736C11.1534 5.62804 11.1667 5.63829 11.1809 5.64735C11.2085 5.66587 11.2384 5.68164 11.2692 5.69461C11.2999 5.70726 11.3322 5.71711 11.365 5.72377C11.3815 5.72696 11.3981 5.72968 11.4146 5.73126C11.4316 5.73284 11.4485 5.73362 11.465 5.73362C11.482 5.73362 11.4989 5.73284 11.5155 5.73126C11.532 5.72964 11.5486 5.72692 11.5651 5.72377C11.5978 5.71711 11.6302 5.70726 11.6609 5.69461C11.6921 5.6816 11.7217 5.66587 11.7496 5.64735C11.7634 5.63829 11.7772 5.62804 11.7898 5.61736C11.8032 5.60672 11.8154 5.59572 11.8273 5.58386C11.8391 5.57204 11.8505 5.55943 11.8612 5.54642C11.8718 5.53341 11.882 5.51962 11.8911 5.50582C11.9097 5.47824 11.9254 5.44828 11.938 5.41754C11.951 5.38637 11.9609 5.35409 11.9676 5.32138C11.9707 5.30518 11.9731 5.28828 11.9751 5.27172C11.9767 5.25517 11.9774 5.23822 11.9774 5.22128C11.9774 5.20472 11.9767 5.18774 11.9751 5.17118C11.9731 5.15424 11.9707 5.13768 11.9676 5.12113C11.9609 5.08838 11.951 5.0565 11.938 5.02536C11.9254 4.99462 11.9096 4.96467 11.8911 4.93708C11.8821 4.92289 11.8718 4.90945 11.8612 4.89645C11.8505 4.88344 11.8391 4.87087 11.8273 4.85905C11.8155 4.84718 11.8032 4.83579 11.7898 4.82515C11.7772 4.8149 11.7634 4.80466 11.7496 4.79559C11.7217 4.77707 11.6921 4.76131 11.6609 4.7483C11.6302 4.73569 11.5978 4.72583 11.5651 4.71909C11.5486 4.71555 11.532 4.71322 11.5155 4.71164C11.482 4.7081 11.4481 4.7081 11.4146 4.71164C11.398 4.71322 11.3814 4.71559 11.3649 4.71909C11.3322 4.72579 11.2999 4.73565 11.2691 4.7483C11.2384 4.76131 11.2084 4.77703 11.1809 4.79559C11.1667 4.80466 11.1533 4.8149 11.1403 4.82515C11.1273 4.83579 11.1147 4.84722 11.1028 4.85905C11.091 4.87087 11.0796 4.88348 11.0689 4.89645C11.0583 4.90945 11.0484 4.92285 11.039 4.93708C11.0205 4.96467 11.0047 4.99458 10.9921 5.02536C10.9791 5.0565 10.9692 5.08842 10.9625 5.12113C10.9594 5.13764 10.957 5.1542 10.9551 5.17118C10.9535 5.18774 10.9527 5.20472 10.9527 5.22128C10.9527 5.23822 10.9535 5.25517 10.9551 5.27172C10.9571 5.28828 10.9594 5.30522 10.9626 5.32138Z" fill="#333333"/>
<path d="M12.5497 3.71206C12.5564 3.74482 12.5663 3.77709 12.5789 3.80783C12.5919 3.83897 12.6076 3.86853 12.6262 3.89651C12.6352 3.9103 12.6455 3.9237 12.6557 3.93671C12.6664 3.94971 12.6778 3.96233 12.6896 3.97415C12.7014 3.98597 12.7141 3.9974 12.7271 4.00804C12.7401 4.01868 12.7539 4.02854 12.7677 4.038C12.7952 4.05652 12.8252 4.07228 12.8559 4.08486C12.887 4.0979 12.9193 4.10772 12.9521 4.11402C12.9683 4.11757 12.9852 4.11993 13.0017 4.1219C13.0183 4.12348 13.0353 4.12427 13.0522 4.12427C13.0688 4.12427 13.0857 4.12348 13.1022 4.1219C13.1192 4.11993 13.1358 4.11757 13.1523 4.11402C13.185 4.10772 13.2169 4.09786 13.2481 4.08486C13.2789 4.07228 13.3088 4.05648 13.3364 4.038C13.3506 4.02854 13.364 4.01868 13.377 4.00804C13.39 3.9974 13.4026 3.98597 13.4144 3.97415C13.4263 3.96233 13.4376 3.94971 13.4483 3.93671C13.4585 3.9237 13.4688 3.9103 13.4778 3.89651C13.4964 3.86853 13.5122 3.83897 13.5252 3.80783C13.5378 3.77709 13.5476 3.74478 13.5543 3.71206C13.5575 3.69555 13.5602 3.679 13.5618 3.66241C13.5634 3.64546 13.5642 3.62851 13.5642 3.61196C13.5642 3.59541 13.5634 3.57846 13.5618 3.56151C13.5602 3.54496 13.5575 3.52841 13.5543 3.51185C13.5476 3.47914 13.5378 3.44686 13.5252 3.41608C13.5122 3.38495 13.4964 3.35539 13.4778 3.32741C13.4688 3.31361 13.4585 3.29982 13.4483 3.28721C13.4376 3.2742 13.4263 3.26159 13.4144 3.24977C13.4026 3.23794 13.39 3.22651 13.377 3.21587C13.3639 3.20523 13.3506 3.19538 13.3364 3.18592C13.3088 3.1674 13.2789 3.15163 13.2481 3.13902C13.2169 3.12602 13.185 3.11616 13.1523 3.10946C13.1358 3.10627 13.1192 3.10394 13.1022 3.10197C13.0691 3.09882 13.0353 3.09882 13.0017 3.10197C12.9852 3.10394 12.9682 3.10631 12.9521 3.10946C12.9193 3.11612 12.887 3.12598 12.8559 3.13902C12.8252 3.15163 12.7952 3.1674 12.7677 3.18592C12.7538 3.19538 12.7401 3.20523 12.7271 3.21587C12.7141 3.22651 12.7014 3.23794 12.6896 3.24977C12.6778 3.26159 12.6664 3.2742 12.6557 3.28721C12.6455 3.29982 12.6352 3.31361 12.6262 3.32741C12.6076 3.35539 12.5919 3.38495 12.5789 3.41608C12.5663 3.44683 12.5564 3.47914 12.5497 3.51185C12.5466 3.52841 12.5438 3.54496 12.5422 3.56151C12.5406 3.57846 12.5399 3.59541 12.5399 3.61196C12.5399 3.62851 12.5406 3.6455 12.5422 3.66241C12.5438 3.67896 12.5466 3.69551 12.5497 3.71206Z" fill="#333333"/>
<path d="M15.5213 4.25815C15.528 4.29086 15.5379 4.32318 15.5504 4.35396C15.5635 4.38509 15.5792 4.41465 15.5977 4.44263C15.6068 4.45647 15.6171 4.47022 15.6277 4.48322C15.6384 4.49623 15.6498 4.50884 15.6616 4.52027C15.6734 4.53209 15.686 4.54352 15.699 4.55416C15.7116 4.56481 15.7254 4.57501 15.7392 4.58412C15.7672 4.60264 15.7968 4.61841 15.8279 4.63141C15.8586 4.64398 15.891 4.65384 15.9237 4.66054C15.9398 4.66369 15.9568 4.66645 15.9734 4.66803C15.9899 4.6696 16.0069 4.67039 16.0238 4.67039C16.0404 4.67039 16.0573 4.6696 16.0742 4.66803C16.0908 4.66645 16.1073 4.66369 16.1239 4.66054C16.1566 4.65384 16.1886 4.64398 16.2197 4.63141C16.2504 4.61837 16.2804 4.60264 16.3079 4.58412C16.3221 4.57505 16.3355 4.56481 16.3485 4.55416C16.3615 4.54352 16.3741 4.53209 16.386 4.52027C16.3978 4.50845 16.4092 4.49623 16.4199 4.48322C16.4305 4.47022 16.4404 4.45647 16.4498 4.44263C16.4679 4.41469 16.4841 4.38513 16.4967 4.35396C16.5097 4.32322 16.5195 4.29086 16.5258 4.25815C16.5294 4.24199 16.5318 4.22504 16.5333 4.20853C16.5353 4.19198 16.536 4.17503 16.536 4.15804C16.536 4.02325 16.4813 3.89123 16.3859 3.79589C16.3741 3.78407 16.3615 3.77264 16.3485 3.762C16.3354 3.75132 16.322 3.7415 16.3079 3.73204C16.2803 3.71391 16.2503 3.69775 16.2196 3.68514C16.1885 3.67214 16.1565 3.66228 16.1238 3.65602C16.1073 3.65247 16.0907 3.65011 16.0741 3.64853C15.9224 3.63312 15.7687 3.68873 15.6615 3.79593C15.6497 3.80775 15.6383 3.82036 15.6276 3.83337C15.617 3.84637 15.6068 3.85978 15.5977 3.87393C15.5791 3.90155 15.5634 3.93146 15.5504 3.96225C15.5378 3.99338 15.5279 4.0253 15.5212 4.05801C15.5181 4.07457 15.5153 4.09112 15.5138 4.10807C15.5122 4.12462 15.5114 4.14157 15.5114 4.15812C15.5114 4.17511 15.5122 4.19205 15.5138 4.20861C15.5154 4.22504 15.5182 4.24199 15.5213 4.25815Z" fill="#333333"/>
<path d="M20.507 20.3536L20.0882 20.765C19.6729 20.3169 19.238 19.9722 18.7854 19.7327C19.1057 19.5808 19.4284 19.3622 19.7374 19.0532C21.3211 17.4694 20.6689 15.3734 20.6404 15.2849C20.6126 15.1987 20.5639 15.1251 20.502 15.0675C20.4444 15.0057 20.3709 14.9571 20.2848 14.9293C20.1963 14.9008 18.1003 14.2486 16.5165 15.8323C16.2075 16.1413 15.9888 16.464 15.837 16.7843C15.5975 16.3317 15.2528 15.8968 14.8047 15.4816L15.2161 15.0628C15.4144 14.861 15.4115 14.5366 15.2097 14.3383C15.0079 14.14 14.6835 14.1428 14.4851 14.3447L13.4788 15.3689C12.9185 15.8571 11.7936 17.0234 11.7692 18.5334C11.6413 18.4144 11.5051 18.297 11.3602 18.1813C11.1812 18.0383 10.9289 18.0316 10.7425 18.1649C10.6609 18.2233 8.74368 19.6174 8.72473 21.5977C8.7146 22.6526 9.2353 23.6424 10.2736 24.5463L8.57768 26.2422C8.37759 26.4423 8.37759 26.7667 8.57768 26.9668C8.58198 26.971 8.58663 26.9747 8.59104 26.9789C8.5951 26.9832 8.59873 26.9878 8.60294 26.992C8.70297 27.0921 8.83413 27.1422 8.96521 27.1422C9.09638 27.1422 9.22746 27.0921 9.32748 26.992L11.0234 25.2962C11.9186 26.3246 12.8982 26.8452 13.9418 26.8452C13.9518 26.8452 13.962 26.8452 13.972 26.845C15.9523 26.826 17.3463 24.9089 17.4047 24.8273C17.5381 24.6409 17.5314 24.3886 17.3884 24.2095C17.2727 24.0646 17.1553 23.9284 17.0363 23.8005C18.5466 23.7761 19.713 22.6508 20.201 22.0906L21.225 21.0846C21.4269 20.8863 21.4297 20.5619 21.2314 20.36C21.0332 20.1582 20.7088 20.1553 20.507 20.3536Z" fill="#3BD7E2"/>
<path d="M20.507 20.3536L20.0882 20.765C19.6729 20.3169 19.238 19.9722 18.7854 19.7327C19.1057 19.5808 19.4284 19.3622 19.7374 19.0532C21.3211 17.4694 20.6689 15.3734 20.6404 15.2849C20.6126 15.1987 20.5639 15.1251 20.502 15.0675C20.4444 15.0057 20.3709 14.9571 20.2848 14.9293C20.1963 14.9008 18.1003 14.2486 16.5165 15.8323C16.2075 16.1413 15.9888 16.464 15.837 16.7843C15.5975 16.3317 15.2528 15.8968 14.8047 15.4816L15.2161 15.0628C15.4144 14.861 15.4115 14.5366 15.2097 14.3383C15.0079 14.14 14.6835 14.1428 14.4851 14.3447L13.4788 15.3689C12.9185 15.8571 11.7936 17.0234 11.7692 18.5334C11.6413 18.4144 11.5051 18.297 11.3602 18.1813C11.1812 18.0383 10.9289 18.0316 10.7425 18.1649C10.6609 18.2233 8.74368 19.6174 8.72473 21.5977C8.7146 22.6526 9.2353 23.6424 10.2736 24.5463L8.57768 26.2422C8.37759 26.4423 8.37759 26.7667 8.57768 26.9668C8.58198 26.971 8.58663 26.9747 8.59104 26.9789C8.5951 26.9832 8.59873 26.9878 8.60294 26.992C8.70297 27.0921 8.83413 27.1422 8.96521 27.1422C9.09638 27.1422 9.22746 27.0921 9.32748 26.992L11.0234 25.2962C11.9186 26.3246 12.8982 26.8452 13.9418 26.8452C13.9518 26.8452 13.962 26.8452 13.972 26.845C15.9523 26.826 17.3463 24.9089 17.4047 24.8273C17.5381 24.6409 17.5314 24.3886 17.3884 24.2095C17.2727 24.0646 17.1553 23.9284 17.0363 23.8005C18.5466 23.7761 19.713 22.6508 20.201 22.0906L21.225 21.0846C21.4269 20.8863 21.4297 20.5619 21.2314 20.36C21.0332 20.1582 20.7088 20.1553 20.507 20.3536ZM17.2411 16.5569C18.1172 15.6808 19.231 15.7573 19.7222 15.8468C19.81 16.3359 19.8866 17.4549 19.0128 18.3286C18.1275 19.214 17.0714 19.0351 16.6543 18.9156C16.5343 18.4965 16.3566 17.4414 17.2411 16.5569ZM14.0799 16.2068C14.8359 16.8985 15.2193 17.6297 15.2208 18.3846C15.2226 19.2558 14.7245 20.0226 14.3101 20.5098L14.0442 20.7757C13.2082 20.0649 12.7877 19.3235 12.7933 18.5677C12.8013 17.5137 13.621 16.6232 14.0799 16.2068ZM9.74934 21.6117C9.75727 20.5578 10.5769 19.6672 11.0359 19.2508C11.7919 19.9425 12.1754 20.6737 12.1769 21.4286C12.1786 22.2998 11.6805 23.0667 11.2661 23.5538L11.0002 23.8197C10.1642 23.1089 9.74371 22.3675 9.74934 21.6117ZM13.958 25.8203C13.2009 25.8261 12.4609 25.4056 11.7501 24.5695L12.0163 24.3034C12.5025 23.8897 13.2674 23.3928 14.1364 23.3928C14.138 23.3928 14.1396 23.3928 14.1411 23.3928C14.896 23.3944 15.6273 23.7779 16.3189 24.5338C15.9021 24.9931 15.0118 25.8124 13.958 25.8203ZM18.8467 21.9873C18.4205 22.3433 17.7552 22.7691 17.0063 22.7763C16.9997 22.7764 16.9934 22.7764 16.9869 22.7764C16.2364 22.7764 15.5001 22.3559 14.7941 21.5255L15.0601 21.2595C15.5463 20.8459 16.3113 20.3489 17.1804 20.3489C17.1819 20.3489 17.1836 20.3489 17.1851 20.3489C17.9401 20.3504 18.6714 20.734 19.3632 21.49C19.2337 21.633 19.0583 21.8106 18.8467 21.9873Z" fill="#333333"/>
</svg>
