<svg width="29" height="32" viewBox="0 0 29 32" fill="none" xmlns="http://www.w3.org/2000/svg">
<path d="M18.5 8.0002L14.5 9.0002C7.30004 6.20018 3.16671 9.16687 2.00004 11.0002C-1.59996 16.2002 1.83337 24.5002 4.00004 28.0002C8.40004 32.8002 12.8334 31.6669 14.5 30.5002C18.5 33.3002 23.5 29.6669 25.5 27.5002C30.7 18.3002 28.3334 12.3335 26.5 10.5002C25.3 8.1002 20.6667 7.83353 18.5 8.0002Z" fill="#D8F7F9"/>
<path d="M14.5 5.49987C12.5 2.99987 7.80001 -1.40013 5.00001 0.999869C3.33335 3.16649 2.90001 7.09976 14.5 5.49987Z" fill="#62DFE8"/>
<path d="M18.1342 32.0002C16.8746 32.0002 15.6532 31.6835 14.4999 31.0578C13.3468 31.6833 12.1256 32.0002 10.8661 32.0002C10.8661 32.0002 10.8659 32.0002 10.8657 32.0002C5.66409 32 0.178579 26.3178 0.00286659 16.8093C-0.053236 13.7632 0.714397 11.4108 2.28477 9.81779C3.7905 8.29028 6.04891 7.48291 8.81538 7.48291C11.1069 7.48291 13.257 8.03178 14.4999 8.53528C15.7429 8.03178 17.8931 7.48291 20.1845 7.48291C22.951 7.48291 25.209 8.2904 26.7151 9.81803C28.2855 11.4112 29.0532 13.7634 28.9971 16.8093C28.8215 26.3181 23.336 32.0002 18.1342 32.0002ZM14.4999 29.9831C14.588 29.9831 14.6763 30.0062 14.7548 30.0525C15.8261 30.6813 16.9631 31.0002 18.1342 31.0002C22.8516 31.0002 27.8289 25.6852 27.9931 16.7909C28.0441 14.0233 27.3732 11.913 25.9986 10.5187C24.3399 8.83603 21.9214 8.48291 20.1845 8.48291C17.9191 8.48291 15.815 9.05014 14.7014 9.5359C14.573 9.59177 14.4268 9.59177 14.2985 9.5359C13.185 9.05014 11.0808 8.48291 8.81526 8.48291C7.07821 8.48291 4.65953 8.83603 3.00117 10.5184C1.62672 11.9125 0.955738 14.023 1.00669 16.7909C1.17099 25.685 6.14843 31 10.8657 31.0002H10.8659C12.0369 31.0002 13.1737 30.6813 14.245 30.0525C14.3236 30.0062 14.412 29.9831 14.4999 29.9831Z" fill="#333333"/>
<path d="M14.5002 9.57779C14.4973 9.57779 14.4945 9.57779 14.4917 9.57766C14.2143 9.57316 13.9934 9.34552 13.9981 9.06939C14.0578 5.51413 15.2412 3.06837 17.5157 1.80011C17.7576 1.66536 18.0635 1.751 18.199 1.99213C18.3343 2.23313 18.2482 2.53777 18.0062 2.67264C16.0387 3.76977 15.056 5.86763 15.0019 9.08627C14.9974 9.35939 14.7735 9.57779 14.5002 9.57779Z" fill="#333333"/>
<path d="M10.3771 6.47539C10.377 6.47539 10.3771 6.47539 10.3771 6.47539C7.06317 6.47539 4.92964 5.86278 4.03538 4.6544C3.51941 3.9569 3.41625 3.09364 3.72915 2.08826C4.1481 0.741634 5.16974 0 6.60544 0C9.40718 0 13.5024 2.82251 15.4252 5.35564C15.5334 5.49814 15.5571 5.68702 15.4873 5.85164C15.4177 6.01602 15.2651 6.13103 15.0872 6.15328C13.373 6.36703 11.7883 6.47539 10.3771 6.47539ZM6.60532 0.999881C5.60513 0.999881 4.97795 1.45275 4.68815 2.38425C4.47189 3.07901 4.52285 3.62739 4.84365 4.06102C5.52843 4.98627 7.44168 5.47527 10.377 5.47527C11.4932 5.47527 12.7245 5.40501 14.0476 5.26601C12.1155 3.1305 8.8021 0.999881 6.60532 0.999881Z" fill="#333333"/>
<path d="M7.65445 27.9964C7.52241 27.9964 7.39076 27.945 7.29211 27.8428C5.59472 26.0824 3.63564 23.6948 3.55343 20.8344C3.54552 20.5584 3.76379 20.3281 4.04104 20.3204C4.3164 20.3156 4.54935 20.5298 4.55726 20.8059C4.61437 22.7977 5.64881 24.695 8.01654 27.1503C8.20845 27.3494 8.20217 27.6659 8.00211 27.8572C7.90472 27.9502 7.77946 27.9964 7.65445 27.9964Z" fill="#333333"/>
</svg>
