<svg width="20" height="18" viewBox="0 0 20 18" fill="none" xmlns="http://www.w3.org/2000/svg">
<path d="M19.6101 5.74111L10.4348 0.137705C10.3127 0.0520055 10.1706 0.00454132 10.0248 0.000585977C10.0235 0.000585977 10.0223 0.000585977 10.0198 0.000585977C10.0136 -0.000732471 10.0073 0.000585977 10.0011 0.000585977C9.99488 0.000585977 9.98864 -0.000732471 9.98117 0.000585977C9.97992 0.000585977 9.97867 0.000585977 9.97618 0.000585977C9.83161 0.00454132 9.68829 0.0520055 9.56615 0.137705L0.390872 5.74111C0.0182276 5.9692 -0.111388 6.4768 0.104222 6.87102C0.319833 7.26524 0.799659 7.40104 1.1723 7.17294L9.99986 1.78181L18.8274 7.17294C19.2013 7.40104 19.6811 7.26524 19.8955 6.87102C20.1099 6.4768 19.984 5.9692 19.6101 5.74111Z" fill="#666666"/>
<path d="M16.6546 1.42582C16.6546 0.969642 16.3031 0.597839 15.8719 0.597839C15.4407 0.597839 15.0892 0.969642 15.0892 1.42582V2.1958L16.6546 3.15299V1.42582Z" fill="#666666"/>
<path fill-rule="evenodd" clip-rule="evenodd" d="M15.1371 9.82299H12.0463V6.54665C12.0463 6.22363 11.797 5.95862 11.4904 5.95862H8.51176C8.21265 5.95862 7.96214 6.22363 7.96214 6.54665V9.82299H4.86383C4.55849 9.82299 4.30798 10.0867 4.30798 10.411V13.5555C4.30798 13.8799 4.55849 14.1435 4.86383 14.1435H7.96089V17.4199C7.96089 17.7429 8.2114 18 8.51051 18H11.4892C11.7958 18 12.045 17.7429 12.045 17.4199V14.1435H15.1359C15.4424 14.1435 15.6917 13.8799 15.6917 13.5555V10.411C15.693 10.0867 15.4437 9.82299 15.1371 9.82299Z" fill="#666666"/>
</svg>
