<svg width="52" height="44" viewBox="0 0 52 44" fill="none" xmlns="http://www.w3.org/2000/svg">
<path d="M50.984 14.0341L27.13 0.337612C26.8125 0.128799 26.4418 0.0123934 26.0631 0.000878605C26.0587 0.00068508 26.0542 0.000298029 26.0499 0.000201267C26.0333 -0.000185784 26.0166 0.000104503 25.9999 0.000104503C25.9834 0.000104503 25.9668 -0.000185784 25.9501 0.000201267C25.9457 0.000298029 25.9413 0.00068508 25.9369 0.000878605C25.5582 0.0123934 25.1874 0.128799 24.8699 0.337612L1.01594 14.0341C0.0458969 14.5911 -0.288511 15.832 0.271528 16.7968C0.831566 17.7615 2.07959 18.0941 3.04954 17.5372L25.9999 4.35955L48.9503 17.5373C49.9205 18.0942 51.1684 17.7615 51.7285 16.7969C52.2885 15.832 51.9542 14.5911 50.984 14.0341Z" fill="white"/>
<path d="M43.2976 3.48521C43.2976 2.37031 42.3834 1.46094 41.2622 1.46094C40.1412 1.46094 39.2268 2.37022 39.2268 3.48521V5.36676L43.2976 7.70416V3.48521Z" fill="white"/>
<path fill-rule="evenodd" clip-rule="evenodd" d="M39.3537 24.0098H31.3172V16.0008C31.3172 15.2095 30.6676 14.5635 29.872 14.5635H22.1276C21.3482 14.5635 20.6988 15.2095 20.6988 16.0008V24.0098H12.6458C11.8501 24.0098 11.2007 24.6556 11.2007 25.4469V33.1328C11.2007 33.9243 11.8501 34.5701 12.6458 34.5701H20.6988V42.579C20.6988 43.3701 21.3482 44 22.1276 44H29.872C30.6676 44 31.3172 43.3701 31.3172 42.579V34.5701H39.3537C40.1493 34.5701 40.799 33.9243 40.799 33.1328V25.4469C40.799 24.6556 40.1493 24.0098 39.3537 24.0098Z" fill="white"/>
</svg>
