<svg width="40" height="40" viewBox="0 0 40 40" fill="none" xmlns="http://www.w3.org/2000/svg">
<path d="M32.04 15.5898C32.04 20.9798 35.22 36.7498 27.86 36.7498H11.31C4.18998 36.7498 7.12998 22.8498 7.12998 17.7498" fill="#D8F7F9"/>
<path d="M32.04 15.5898C32.04 20.9798 35.22 36.7498 27.86 36.7498H11.31C4.18998 36.7498 7.12998 22.8498 7.12998 17.7498" stroke="#666666" stroke-linecap="round" stroke-linejoin="round"/>
<path d="M13.3 15.6212V28.5H26.2812L26.3 15.5" fill="#3BD7E2"/>
<path d="M13.3 15.6212V28.5H26.2812L26.3 15.5" stroke="#666666" stroke-linecap="round" stroke-linejoin="round"/>
<path d="M4.29999 14.5L8.79999 10L30.8 9.5C32.3 11.5 35.3 15.6 35.3 16C35.3 16.5 32.8 15.5 31.3 15.5C29.8 15.5 29.3 18 27.8 18C26.3 18 26.3 16.5 23.3 16.5C20.3 16.5 19.8 19 18.3 19C16.8 19 13.3 17 11.8 16.5C10.3 16 8.29999 18 6.29999 17.5C4.69999 17.1 4.29999 15.3333 4.29999 14.5Z" fill="#D8F7F9"/>
<path d="M7.29999 5.5L8.29999 4.5L29.8 4L31.8 5.5V8.5L30.3 10H8.79999L7.29999 8.5V5.5Z" fill="#3BD7E2"/>
<path d="M9.02 4.2202H30.11C30.3183 4.21623 30.5254 4.25349 30.7192 4.32986C30.9131 4.40624 31.09 4.52021 31.2396 4.66521C31.3892 4.8102 31.5087 4.98335 31.5912 5.17471C31.6736 5.36607 31.7174 5.57185 31.72 5.7802V8.2402C31.7194 8.55589 31.6237 8.86406 31.4453 9.12451C31.2669 9.38496 31.0141 9.58558 30.72 9.7002L30.8 9.8902L34.85 15.4402C36.53 17.7502 33.13 14.3902 30.67 16.0702C28.67 17.4702 28.81 18.5502 26.34 17.4502C19.83 14.5402 20.59 20.1402 16.76 18.5302C15.32 17.9202 12.65 16.0102 11.14 16.7602C5.3 19.6502 4.76 15.3002 4 14.7602L9 9.8102C8.58096 9.8102 8.17908 9.64373 7.88277 9.34743C7.58646 9.05112 7.42 8.64924 7.42 8.23019V5.7802C7.42 5.36116 7.58646 4.95927 7.88277 4.66296C8.17908 4.36666 8.58096 4.2002 9 4.2002L9.02 4.2202Z" stroke="#666666" stroke-linecap="round" stroke-linejoin="round"/>
<path d="M15.21 10.4204L14.71 13.8704" stroke="#666666" stroke-linecap="round" stroke-linejoin="round"/>
<path d="M28.27 14.95L26.96 10.04" stroke="#666666" stroke-linecap="round" stroke-linejoin="round"/>
<path d="M10.92 13.1404L11.89 10.3804" stroke="#666666" stroke-linecap="round" stroke-linejoin="round"/>
<path d="M9.01996 9.8501H30.81" stroke="#666666" stroke-linecap="round" stroke-linejoin="round"/>
<path d="M18.28 10.5103L18.02 15.0503" stroke="#666666" stroke-linecap="round" stroke-linejoin="round"/>
<path d="M24.08 10.5601L24.28 14.0401" stroke="#666666" stroke-linecap="round" stroke-linejoin="round"/>
</svg>
