<svg width="40" height="40" viewBox="0 0 40 40" fill="none" xmlns="http://www.w3.org/2000/svg">
<ellipse cx="19.5083" cy="27.0337" rx="17.627" ry="7.05078" fill="#D8F7F9"/>
<path d="M8.05077 10.2882C7.69823 8.87799 8.49144 7.35032 8.93212 6.76276C12.3253 4.29499 15.2852 6.0283 16.4236 7.20343C21.3591 5.79328 23.7681 9.25991 24.3557 11.1695H30.9658C34.4912 12.5797 34.1974 15.87 33.6098 17.3389L4.96604 22.1863C4.26096 21.1287 4.37848 18.8078 4.52537 17.7796C3.82029 17.0745 3.64402 16.0169 3.64402 15.5762C3.64402 12.0508 6.58185 10.5819 8.05077 10.2882Z" fill="#D8F7F9"/>
<path d="M16.8643 12.0509C22.5049 10.9933 24.5026 14.2543 24.7964 16.017H31.4065C32.4347 16.1639 34.4912 17.1627 34.4912 19.9831C34.4912 22.8034 32.7285 23.5084 31.8472 23.5084H24.7964V24.3898C23.0337 29.3253 18.7739 28.5028 16.8643 27.4745C16.5705 28.209 15.1897 29.5898 12.0169 29.2372C8.844 28.8847 8.34458 26.1525 8.49147 24.8305C5.67117 24.4779 4.6723 22.0395 4.52541 20.8644C4.17287 16.2814 7.02256 15.1356 8.49147 15.1356C9.54909 8.78994 14.514 10.4351 16.8643 12.0509Z" fill="#3BD7E2"/>
<path d="M34.7305 22.0886C35.1724 21.3021 35.3545 20.3961 35.2508 19.5C35.1471 18.6038 34.7629 17.7634 34.1531 17.0986C34.4855 16.4295 34.6414 15.6866 34.6062 14.9404C34.571 14.1942 34.3459 13.4693 33.952 12.8345C33.5582 12.1997 33.0088 11.6759 32.3559 11.3129C31.7029 10.9499 30.9681 10.7597 30.2211 10.7602H24.7375C24.4185 9.37342 23.5835 8.16012 22.4021 7.36681C21.5045 6.82752 20.5001 6.49042 19.4589 6.37901C18.4177 6.26759 17.3648 6.38453 16.3734 6.72168C15.3702 5.59593 13.18 4.2702 10.264 5.47982C9.38381 5.82442 8.63392 6.43656 8.12003 7.22995C7.60615 8.02334 7.35419 8.95799 7.39966 9.90217C6.36699 10.0418 5.40383 10.5008 4.64497 11.215C3.67728 12.1472 3.20633 13.4729 3.20633 15.1438C3.16882 16.2746 3.47472 17.3902 4.08371 18.3437C3.94647 18.8835 3.87605 19.4382 3.87404 19.9952C3.86333 20.7454 3.98229 21.4918 4.22564 22.2015C2.19994 23.4724 1 25.0143 1 26.7174C1 31.1688 9.15763 34.6557 19.57 34.6557C29.9824 34.6557 38.14 31.1688 38.14 26.7174C38.1465 24.953 36.8756 23.3789 34.7305 22.0886ZM25.0536 23.1531H16.1831C16.1014 23.1528 16.0204 23.1689 15.9451 23.2005C15.8697 23.2321 15.8015 23.2785 15.7444 23.337L13.7219 25.3594C13.6052 25.4762 13.5395 25.6346 13.5395 25.7997C13.5395 25.9649 13.6052 26.1233 13.7219 26.24C13.8387 26.3568 13.9971 26.4224 14.1622 26.4224C14.3274 26.4224 14.4857 26.3568 14.6025 26.24L16.4411 24.3982H24.1053C23.8182 25.354 23.2097 26.1813 22.3828 26.74C21.5914 27.2077 20.702 27.485 19.7851 27.55C18.8681 27.6149 17.9486 27.4657 17.0992 27.1142C16.966 27.0541 16.816 27.0425 16.6752 27.0814C16.5344 27.1203 16.4117 27.2072 16.3282 27.3271C16.2573 27.4303 14.5412 29.8237 11.4059 28.5238C8.88345 27.4787 9.33827 24.9143 9.36085 24.8078C9.37843 24.7174 9.3758 24.6241 9.35316 24.5348C9.33051 24.4454 9.2884 24.3622 9.22985 24.291C9.1713 24.2198 9.09775 24.1624 9.01445 24.123C8.93115 24.0835 8.84015 24.0629 8.74797 24.0627C7.78931 24.0458 6.87055 23.676 6.16746 23.0241C5.47072 22.3338 5.11913 21.3177 5.11913 20.0081C5.11913 18.6985 5.47396 17.6695 6.17392 16.976C6.87363 16.3335 7.7852 15.9707 8.73508 15.9567C8.82877 15.9625 8.92245 15.9452 9.00793 15.9064C9.09341 15.8676 9.16808 15.8085 9.22538 15.7341C9.28437 15.662 9.32701 15.5779 9.3504 15.4877C9.37379 15.3975 9.37735 15.3033 9.36085 15.2116C9.33827 15.1019 8.86087 12.5472 11.4059 11.4956C14.5477 10.2054 16.2444 12.5891 16.3282 12.6891C16.4108 12.8101 16.5333 12.898 16.6743 12.9375C16.8153 12.9771 16.9658 12.9656 17.0992 12.9052C17.9496 12.5469 18.872 12.3924 19.7927 12.454C20.7134 12.5156 21.607 12.7916 22.4021 13.2601C23.2275 13.8189 23.8357 14.6446 24.1246 15.5986H16.4444L14.6057 13.7568C14.489 13.64 14.3306 13.5744 14.1655 13.5744C14.0003 13.5744 13.8419 13.64 13.7251 13.7568C13.6084 13.8736 13.5428 14.032 13.5428 14.1971C13.5428 14.3622 13.6084 14.5206 13.7251 14.6374L15.7476 16.6599C15.8053 16.7173 15.8737 16.7629 15.949 16.7939C16.0243 16.8249 16.1049 16.8407 16.1863 16.8405H30.8855C31.3072 16.827 31.7274 16.8984 32.1209 17.0505C32.5145 17.2025 32.8735 17.4321 33.1765 17.7257C33.4796 18.0192 33.7206 18.3706 33.8851 18.7591C34.0497 19.1476 34.1345 19.5652 34.1345 19.9871C34.1345 20.409 34.0497 20.8267 33.8851 21.2151C33.7206 21.6036 33.4796 21.9551 33.1765 22.2486C32.8735 22.5421 32.5145 22.7717 32.1209 22.9238C31.7274 23.0758 31.3072 23.1472 30.8855 23.1337L25.0536 23.1531ZM4.45142 15.1535C4.45142 13.8342 4.80625 12.8117 5.50621 12.1214C6.21598 11.4822 7.13178 11.1193 8.08672 11.0989C8.18014 11.1025 8.27311 11.0843 8.35824 11.0457C8.44336 11.007 8.51829 10.949 8.57703 10.8763C8.63718 10.8048 8.68057 10.7208 8.70401 10.6304C8.72745 10.54 8.73035 10.4454 8.7125 10.3538C8.68992 10.2473 8.20931 7.69261 10.7576 6.63782C13.8961 5.34756 15.596 7.73454 15.6767 7.83453C15.7622 7.95284 15.8853 8.03863 16.026 8.07788C16.1666 8.11714 16.3163 8.10754 16.4508 8.05065C17.3 7.69865 18.2194 7.54892 19.1363 7.6133C20.0533 7.67768 20.9428 7.9544 21.7344 8.4216C22.2373 8.76853 22.6632 9.2154 22.9857 9.73432C23.3081 10.2532 23.5202 10.8331 23.6085 11.4376C23.623 11.5927 23.6948 11.7369 23.8099 11.8419C23.9251 11.9469 24.0752 12.0051 24.231 12.0053H30.234C31.0684 12.0061 31.8683 12.3382 32.458 12.9285C33.0477 13.5188 33.379 14.3191 33.379 15.1535C33.3715 15.5312 33.2939 15.9042 33.1499 16.2534C32.4705 15.8358 31.6895 15.6127 30.892 15.6083H25.4084C25.0862 14.2281 24.2543 13.0206 23.0795 12.2279C22.1808 11.6899 21.1759 11.3536 20.1344 11.2422C19.093 11.1309 18.0397 11.247 17.0476 11.5827C16.0444 10.4602 13.8542 9.13769 10.9382 10.3408C10.0586 10.686 9.30937 11.2983 8.79609 12.0917C8.28282 12.885 8.03134 13.8194 8.07705 14.7632C7.04387 14.9043 6.08007 15.3631 5.31912 16.076C5.09106 16.3013 4.88876 16.5512 4.71592 16.8212C4.53614 16.2783 4.44785 15.7092 4.45465 15.1374L4.45142 15.1535ZM19.5765 33.3784C10.1866 33.3784 2.25155 30.314 2.25155 26.6852C2.25155 25.4401 3.19342 24.2659 4.79657 23.2563C4.94665 23.4863 5.11724 23.7022 5.30622 23.9014C6.06851 24.619 7.0341 25.0832 8.0706 25.2304C8.02419 26.1747 8.27535 27.1098 8.78867 27.9038C9.30199 28.6978 10.0516 29.3107 10.9317 29.656C11.6458 29.9617 12.413 30.1239 13.1897 30.1334C13.9138 30.1299 14.6291 29.9748 15.2897 29.6782C15.9502 29.3815 16.5413 28.9498 17.025 28.4109C18.0169 28.7481 19.0704 28.8651 20.1121 28.7537C21.1538 28.6423 22.1588 28.3051 23.0569 27.7658C24.2316 26.9742 25.0635 25.7678 25.3858 24.3885H30.8694C31.4562 24.3888 32.037 24.271 32.5773 24.0421C33.1176 23.8132 33.6064 23.478 34.0144 23.0563C35.824 24.1111 36.9175 25.3562 36.9175 26.6852C36.9175 30.3269 28.9695 33.3784 19.5765 33.3784Z" fill="#666666"/>
<path d="M31.3372 19.9888C31.3372 19.8236 31.2716 19.6653 31.1548 19.5486C31.0381 19.4318 30.8797 19.3662 30.7146 19.3662H12.2736C12.1085 19.3662 11.9502 19.4318 11.8334 19.5486C11.7167 19.6653 11.6511 19.8236 11.6511 19.9888C11.6511 20.1539 11.7167 20.3122 11.8334 20.429C11.9502 20.5457 12.1085 20.6113 12.2736 20.6113H30.7146C30.7965 20.6117 30.8776 20.5959 30.9534 20.5648C31.0291 20.5336 31.0979 20.4878 31.1558 20.4299C31.2137 20.372 31.2595 20.3032 31.2907 20.2275C31.3218 20.1518 31.3376 20.0706 31.3372 19.9888Z" fill="#666666"/>
</svg>
