<svg width="12" height="12" viewBox="0 0 12 12" fill="none" xmlns="http://www.w3.org/2000/svg">
<path d="M6 11.4951C5.613 11.1457 5.1756 10.7823 4.713 10.3957H4.707C3.07801 9.03969 1.23181 7.50536 0.416413 5.66685C0.148524 5.08153 0.00655607 4.44471 6.84357e-06 3.79902C-0.00178223 2.91304 0.347275 2.06372 0.968296 1.44301C1.58932 0.822304 2.42988 0.482604 3.30001 0.500687C4.00838 0.501826 4.7015 0.710241 5.2968 1.1011C5.55838 1.27394 5.79505 1.48301 6 1.72229C6.20609 1.48395 6.44283 1.275 6.7038 1.1011C7.29884 0.710164 7.99179 0.501736 8.69999 0.500687C9.57012 0.482604 10.4107 0.822304 11.0317 1.44301C11.6527 2.06372 12.0018 2.91304 12 3.79902C11.9939 4.44574 11.8519 5.08365 11.5836 5.6699C10.7682 7.50841 8.92259 9.04213 7.2936 10.3957L7.2876 10.4006C6.8244 10.7848 6.3876 11.1482 6.0006 11.5L6 11.4951Z" fill="#3BD7E2"/>
</svg>
