<svg width="16" height="16" viewBox="0 0 16 16" fill="none" xmlns="http://www.w3.org/2000/svg">
<path d="M9.38132 14.0301C8.90018 14.4654 8.43438 14.8878 8.00313 15.3002C7.61056 14.9262 7.18884 14.5419 6.75414 14.1457C6.70985 14.1053 6.66542 14.0648 6.62088 14.0242L6.47773 13.8937H6.46918C4.31564 11.937 2.03202 9.82032 1.0184 7.32711L1.01843 7.32709L1.01628 7.32198C0.684869 6.53204 0.50838 5.67064 0.500005 4.7958C0.498287 3.62608 0.921431 2.51443 1.65955 1.70961C2.39637 0.906219 3.38139 0.478034 4.38868 0.50087L4.38867 0.50098L4.39913 0.500998C5.23558 0.502465 6.05868 0.770599 6.77065 1.28039C7.08008 1.50352 7.36171 1.77458 7.60673 2.08665L7.99813 2.58516L8.39184 2.08846C8.63887 1.77681 8.92136 1.50507 9.23103 1.27976C9.94245 0.770272 10.765 0.50235 11.6008 0.500998V0.501109L11.6113 0.50087C12.6186 0.478034 13.6036 0.906219 14.3404 1.70961C15.0786 2.51447 15.5018 3.62619 15.5 4.79597C15.4922 5.67226 15.3157 6.53518 14.9837 7.32643L14.9837 7.32641L14.9816 7.33155C13.9459 9.87918 11.5847 12.033 9.39083 14.0216L9.38469 14.027L9.38468 14.027L9.38132 14.0301Z" stroke="#666666"/>
</svg>
