<svg width="40" height="40" viewBox="0 0 40 40" fill="none" xmlns="http://www.w3.org/2000/svg">
<path d="M31.6946 24.643C33.7265 24.5731 37.7238 23.5783 38 21.3311H3C3.27722 23.5783 7.27351 24.5731 9.3054 24.643H31.6946Z" fill="#3BD7E2" stroke="#666666" stroke-linecap="round" stroke-linejoin="round"/>
<path d="M5.46072 20.925C5.46072 20.8457 5.46072 20.7664 5.46072 20.6881C5.46072 20.6098 5.46072 20.5294 5.46072 20.4501C5.46072 1.44475 35.5539 1.4531 35.5539 20.4501C35.5539 20.5294 35.5539 20.6098 35.5539 20.6881C35.5539 20.7664 35.5539 20.8457 35.5476 20.925" fill="#D8F7F9"/>
<path d="M5.46072 20.925C5.46072 20.8457 5.46072 20.7664 5.46072 20.6881C5.46072 20.6098 5.46072 20.5294 5.46072 20.4501C5.46072 1.44475 35.5539 1.4531 35.5539 20.4501C35.5539 20.5294 35.5539 20.6098 35.5539 20.6881C35.5539 20.7664 35.5539 20.8457 35.5476 20.925" stroke="#666666" stroke-linecap="round" stroke-linejoin="round"/>
<path d="M12.6375 28.3558L14.4244 26.5688L16.9261 26.2114L22.287 27.9984L27.2904 34.074L26.933 35.8609L21.5722 37.2904L20.8574 35.1461L12.6375 28.3558Z" fill="#D8F7F9"/>
<path d="M27.6477 35.8608L21.2147 37.6478" stroke="#666666" stroke-linecap="round" stroke-linejoin="round"/>
<path d="M26.933 35.8609C27.3753 34.5415 27.4263 32.3466 29.0865 29.6766C29.6295 28.8008 31.2876 27.1652 31.624 26.3615C33.1731 24.2739 29.0159 24.8616 27.9558 26.3615C27.3775 27.1809 27.1688 27.8374 26.3787 28.258C23.9471 29.5544 23.7539 27.7977 21.4375 25.4294C19.93 23.8877 17.0197 25.1037 18.2013 26.2644" fill="#D8F7F9"/>
<path d="M26.933 35.8609C27.3753 34.5415 27.4263 32.3466 29.0865 29.6766C29.6295 28.8008 31.2876 27.1652 31.624 26.3615C33.1731 24.2739 29.0159 24.8616 27.9558 26.3615C27.3775 27.1809 27.1688 27.8374 26.3787 28.258C23.9471 29.5544 23.7539 27.7977 21.4375 25.4294C19.93 23.8877 17.0197 25.1037 18.2013 26.2644" stroke="#666666" stroke-linecap="round" stroke-linejoin="round"/>
<path d="M20.284 28.4156L17.3768 25.4032C15.8308 23.8041 13.4418 25.4752 14.7542 26.709" fill="#D8F7F9"/>
<path d="M20.284 28.4156L17.3768 25.4032C15.8308 23.8041 13.4418 25.4752 14.7542 26.709" stroke="#666666" stroke-linecap="round" stroke-linejoin="round"/>
<path d="M17.9334 29.3801L14.749 26.7091L13.6702 25.6778C11.7795 23.8721 9.65422 26.0358 12.089 28.0023L16.2576 31.3707C16.6791 31.7099 21.7158 35.1909 21.6223 37.3975" fill="#D8F7F9"/>
<path d="M17.9334 29.3801L14.749 26.7091L13.6702 25.6778C11.7795 23.8721 9.65422 26.0358 12.089 28.0023L16.2576 31.3707C16.6791 31.7099 21.7158 35.1909 21.6223 37.3975" stroke="#666666" stroke-linecap="round" stroke-linejoin="round"/>
<path d="M20.3464 8.81934C25.7838 8.81934 31.2212 11.8651 32.3903 17.9494" stroke="#666666" stroke-linecap="round" stroke-linejoin="round"/>
<path d="M20.5 3C21.2849 3 21.9224 3.67325 21.9224 4.50306C21.9224 5.33288 21.2849 6.00612 20.5 6.00612C19.7151 6.00612 19.0776 5.33288 19.0776 4.50306C19.0776 3.67325 19.7151 3 20.5 3Z" fill="#3BD7E2" stroke="#666666" stroke-linecap="round" stroke-linejoin="round"/>
</svg>
