<svg width="80" height="72" viewBox="0 0 80 72" fill="none" xmlns="http://www.w3.org/2000/svg">
<path d="M48.9465 5.10264L78.641 56.8205C82.5275 63.5956 77.6238 72 69.6938 72H10.3048C2.37257 72 -2.52468 63.6039 1.35748 56.8205L31.0521 5.10264C34.9551 -1.70088 45.0434 -1.70088 48.9465 5.10264ZM75.0561 58.8297L45.3619 7.11189C43.0319 3.04022 36.9708 3.04852 34.6368 7.11189L4.94217 58.8297C2.62479 62.8789 5.51272 67.9162 10.3048 67.9162H69.6938C74.4857 67.9162 77.3738 62.8726 75.0561 58.8297Z" fill="white" fill-opacity="0.7"/>
<path fill-rule="evenodd" clip-rule="evenodd" d="M38.5728 21.2459H40.9794C42.9838 21.2459 44.7394 22.9122 44.5362 24.8584L41.9566 49.5738H37.5958L35.0161 24.8584C34.8128 22.912 36.5684 21.2459 38.5728 21.2459Z" fill="white" fill-opacity="0.7"/>
<path fill-rule="evenodd" clip-rule="evenodd" d="M40.179 54.2951C42.486 54.2951 44.3582 56.1455 44.3582 58.4262C44.3582 60.7066 42.486 62.5574 40.179 62.5574C37.8719 62.5574 36 60.7066 36 58.4262C36 56.1454 37.8719 54.2951 40.179 54.2951Z" fill="white" fill-opacity="0.7"/>
</svg>
