<svg width="40" height="40" viewBox="0 0 40 40" fill="none" xmlns="http://www.w3.org/2000/svg">
<path d="M27.6123 33.8991V28.9663H12.3758V33.998C12.3758 35.1905 15.7906 36.1619 20.0029 36.1619C24.2153 36.1619 27.63 35.1963 27.63 33.998C27.63 33.9689 27.6182 33.934 27.6123 33.8991Z" fill="#D8F7F9" stroke="#666666" stroke-miterlimit="10" stroke-linecap="round" stroke-linejoin="round"/>
<path d="M37 18.8916C37 19.9445 36.8641 20.9683 36.61 21.9571V21.963C36.5628 22.1549 36.5037 22.3469 36.4446 22.5388C34.5423 28.7223 27.8959 33.2887 19.997 33.2887C12.1041 33.2887 5.45767 28.7223 3.55533 22.5388C3.49625 22.3469 3.43717 22.1549 3.38991 21.963V21.9571C3.13587 20.9683 3 19.9387 3 18.8916C3 19.4733 3.50217 20.0317 4.40017 20.5378C7.01737 22.0037 13.0139 23.0217 19.9911 23.0217C26.9801 23.0217 32.9767 22.0037 35.5939 20.5378C36.5037 20.0317 37 19.4733 37 18.8916Z" fill="#D8F7F9" stroke="#666666" stroke-miterlimit="10" stroke-linecap="round" stroke-linejoin="round"/>
<path d="M20.003 23.0156C29.3906 23.0156 37 21.1658 37 18.8913C37 16.6111 29.3906 14.7671 20.003 14.7671C10.6153 14.7671 3.00594 16.6169 3.00594 18.8913C3.00594 21.1716 10.6153 23.0156 20.003 23.0156Z" fill="#D8F7F9" stroke="#666666" stroke-miterlimit="10" stroke-linecap="round" stroke-linejoin="round"/>
<path d="M35.5998 20.5316C32.9826 21.9975 26.986 23.0155 19.997 23.0155C13.0198 23.0155 7.01733 21.9975 4.40604 20.5316C6.73966 18.9611 12.8425 17.8384 19.997 17.8384C27.1633 17.8384 33.2661 18.9611 35.5998 20.5316Z" fill="#3BD7E2" stroke="#666666" stroke-miterlimit="10" stroke-linecap="round" stroke-linejoin="round"/>
<path d="M36.7636 5.02979H9.38045V7.04828H36.7636V5.02979Z" fill="#3BD7E2" stroke="#666666" stroke-miterlimit="10" stroke-linecap="round" stroke-linejoin="round"/>
<path d="M36.7636 7.04248H9.38045V9.06098H36.7636V7.04248Z" fill="#3BD7E2" stroke="#666666" stroke-miterlimit="10" stroke-linecap="round" stroke-linejoin="round"/>
<path d="M11.9505 20.4272V4" stroke="#666666" stroke-miterlimit="10" stroke-linecap="round" stroke-linejoin="round"/>
<path d="M13.9474 20.4272V4" stroke="#666666" stroke-miterlimit="10" stroke-linecap="round" stroke-linejoin="round"/>
<path d="M15.9442 20.4272V4" stroke="#666666" stroke-miterlimit="10" stroke-linecap="round" stroke-linejoin="round"/>
</svg>
