<svg width="24" height="24" viewBox="0 0 24 24" fill="none" xmlns="http://www.w3.org/2000/svg">
<path d="M12.001 14C12.001 12 13.577 11.6653 14.1197 11.124C14.6641 10.5809 15.001 9.82977 15.001 9C15.001 7.34315 13.6578 6 12.001 6C11.1051 6 10.3009 6.39273 9.75118 7.01542C9.497 7.30334 9.29723 7.64044 9.16797 8.01061" stroke="#666666" stroke-linecap="round"/>
<path fill-rule="evenodd" clip-rule="evenodd" d="M12 18C12.5523 18 13 17.5523 13 17C13 16.4477 12.5523 16 12 16C11.4477 16 11 16.4477 11 17C11 17.5523 11.4477 18 12 18Z" fill="#666666"/>
<path fill-rule="evenodd" clip-rule="evenodd" d="M12 22C17.5228 22 22 17.5228 22 12C22 6.47715 17.5228 2 12 2C6.47715 2 2 6.47715 2 12C2 17.5228 6.47715 22 12 22Z" stroke="#666666"/>
</svg>
