<svg width="24" height="24" viewBox="0 0 24 24" fill="none" xmlns="http://www.w3.org/2000/svg">
<path d="M23.5 12C23.5 18.3513 18.3513 23.5 12 23.5C5.64873 23.5 0.5 18.3513 0.5 12C0.5 5.64873 5.64873 0.5 12 0.5C18.3513 0.5 23.5 5.64873 23.5 12Z" stroke="#666666"/>
<path fill-rule="evenodd" clip-rule="evenodd" d="M12.2663 16.6C12.7081 16.6 13.0663 16.2418 13.0663 15.8C13.0663 15.3582 12.7081 15 12.2663 15C11.8245 15 11.4663 15.3582 11.4663 15.8C11.4663 16.2418 11.8245 16.6 12.2663 16.6Z" fill="#666666"/>
<path d="M12.2664 13.4C12.2664 11.8 13.5272 11.5322 13.9614 11.0992C14.3969 10.6647 14.6664 10.0638 14.6664 9.4C14.6664 8.07452 13.5919 7 12.2664 7C11.5497 7 10.9063 7.31418 10.4666 7.81233C10.2632 8.04268 10.1034 8.31235 10 8.60849" stroke="#666666" stroke-linecap="round"/>
</svg>
