<svg width="40" height="40" viewBox="0 0 40 40" fill="none" xmlns="http://www.w3.org/2000/svg">
<path d="M5.09254 17.7647C4.93711 17.3127 4.88089 16.8315 4.92783 16.355C4.97476 15.8784 5.12372 15.4182 5.36422 15.0065C5.60472 14.5948 5.93094 14.2417 6.31993 13.972C6.70892 13.7024 7.15124 13.5226 7.61581 13.4455C7.48799 12.8795 7.51022 12.289 7.68024 11.7346C7.85026 11.1802 8.16196 10.6816 8.58347 10.29C9.00498 9.89829 9.52118 9.62753 10.0793 9.50539C10.6374 9.38324 11.2173 9.41409 11.7599 9.59478C11.7599 8.72508 12.0994 7.89099 12.7039 7.27602C13.3084 6.66105 14.1282 6.31557 14.983 6.31557C15.5642 6.31585 16.1342 6.47784 16.6314 6.78402C16.9019 6.24688 17.3128 5.79611 17.819 5.48133C18.3251 5.16656 18.9068 5 19.5 5C20.0932 5 20.6749 5.16656 21.181 5.48133C21.6872 5.79611 22.0981 6.24688 22.3686 6.78402C22.8658 6.47784 23.4358 6.31585 24.017 6.31557C24.8718 6.31557 25.6917 6.66105 26.2961 7.27602C26.9006 7.89099 27.2402 8.72508 27.2402 9.59478C27.7827 9.41409 28.3626 9.38324 28.9207 9.50539C29.4788 9.62753 29.995 9.89829 30.4165 10.29C30.838 10.6816 31.1497 11.1802 31.3198 11.7346C31.4898 12.289 31.512 12.8795 31.3842 13.4455C31.8488 13.5226 32.2911 13.7024 32.6801 13.972C33.0691 14.2417 33.3953 14.5948 33.6358 15.0065C33.8763 15.4182 34.0252 15.8784 34.0722 16.355C34.1191 16.8315 34.0629 17.3127 33.9075 17.7647" fill="#3BD7E2"/>
<path d="M5.09254 17.7647C4.93711 17.3127 4.88089 16.8315 4.92783 16.355C4.97476 15.8784 5.12372 15.4182 5.36422 15.0065C5.60472 14.5948 5.93094 14.2417 6.31993 13.972C6.70892 13.7024 7.15124 13.5226 7.61581 13.4455C7.48799 12.8795 7.51022 12.289 7.68024 11.7346C7.85026 11.1802 8.16196 10.6816 8.58347 10.29C9.00498 9.89829 9.52118 9.62753 10.0793 9.50539C10.6374 9.38324 11.2173 9.41409 11.7599 9.59478C11.7599 8.72508 12.0994 7.89099 12.7039 7.27602C13.3084 6.66105 14.1282 6.31557 14.983 6.31557C15.5642 6.31585 16.1342 6.47784 16.6314 6.78402C16.9019 6.24688 17.3128 5.79611 17.819 5.48133C18.3251 5.16656 18.9068 5 19.5 5C20.0932 5 20.6749 5.16656 21.181 5.48133C21.6872 5.79611 22.0981 6.24688 22.3686 6.78402C22.8658 6.47784 23.4358 6.31585 24.017 6.31557C24.8718 6.31557 25.6917 6.66105 26.2961 7.27602C26.9006 7.89099 27.2402 8.72508 27.2402 9.59478C27.7827 9.41409 28.3626 9.38324 28.9207 9.50539C29.4788 9.62753 29.995 9.89829 30.4165 10.29C30.838 10.6816 31.1497 11.1802 31.3198 11.7346C31.4898 12.289 31.512 12.8795 31.3842 13.4455C31.8488 13.5226 32.2911 13.7024 32.6801 13.972C33.0691 14.2417 33.3953 14.5948 33.6358 15.0065C33.8763 15.4182 34.0252 15.8784 34.0722 16.355C34.1191 16.8315 34.0629 17.3127 33.9075 17.7647" stroke="#666666" stroke-miterlimit="10" stroke-linecap="round"/>
<path d="M35.9117 17.7646C35.9173 20.6036 35.0948 23.3878 33.5367 25.8039C31.9786 28.22 29.7467 30.1723 27.0921 31.4411H12.8197C10.1686 30.174 7.939 28.2252 6.38112 25.8133C4.82325 23.4014 3.9987 20.622 4 17.7868L35.9117 17.7646Z" fill="#D8F7F9" stroke="#666666" stroke-miterlimit="10" stroke-linecap="round"/>
<path d="M26.7941 31.4414H13.1176V36.0002H26.7941V31.4414Z" fill="#D8F7F9" stroke="#666666" stroke-miterlimit="10" stroke-linecap="round"/>
<path d="M4.45588 20.5H10.3824" stroke="#666666" stroke-miterlimit="10" stroke-linecap="round"/>
</svg>
