<svg width="40" height="40" viewBox="0 0 40 40" fill="none" xmlns="http://www.w3.org/2000/svg">
<path d="M11.0528 7.80559V9.43142L11.4592 13.0895L13.898 14.7154L16.7432 11.8702L15.1174 8.61851L13.898 6.99268L12.2722 7.39913L11.0528 7.80559Z" fill="#3BD7E2"/>
<path d="M15.5239 9.02498C14.711 7.8056 14.432 7.2361 13.2015 7.10425C11.9709 6.9724 10.5949 7.99023 10.9499 9.46528" stroke="#666666" stroke-linecap="round" stroke-linejoin="round"/>
<path d="M16.3368 16.7468V10.65L17.5562 8.61768L20.8078 9.43059L24.8724 10.65L25.6853 12.6823L21.6207 20.8114H16.3368V16.7468Z" fill="#D8F7F9"/>
<path d="M16.3368 11.4636C15.5301 10.5871 15.1928 7.5993 15.8129 6.53973C16.2588 5.77517 16.7851 5.1102 18.3745 5.96583C18.6347 4.89298 20.7141 3.34583 22.8489 4.29632C23.4403 4.55908 24.2976 5.22878 24.2756 6.10338C24.2536 6.97797 24.0211 8.37998 23.3934 9.05443C25.8162 9.07056 26.5195 11.2476 25.7244 12.9047" fill="#D8F7F9"/>
<path d="M16.3368 11.4636C15.5301 10.5871 15.1928 7.5993 15.8129 6.53973C16.2588 5.77517 16.7851 5.1102 18.3745 5.96583C18.6347 4.89298 20.7141 3.34583 22.8489 4.29632C23.4403 4.55908 24.2976 5.22878 24.2756 6.10338C24.2536 6.97797 24.0211 8.37998 23.3934 9.05443C25.8162 9.07056 26.5195 11.2476 25.7244 12.9047" stroke="#666666" stroke-linecap="round" stroke-linejoin="round"/>
<path d="M20.669 7.31055C20.6642 7.32098 19.2174 18.5181 19.2844 19.0503" stroke="#666666" stroke-linecap="round" stroke-linejoin="round"/>
<path d="M23.379 12.0962C21.8259 12.2432 21.5015 12.6483 19.8519 13.7847" stroke="#666666" stroke-linecap="round" stroke-linejoin="round"/>
<path d="M19.9111 13.3001C19.492 11.2464 18.5543 9.25061 17.9112 8.65869" stroke="#666666" stroke-linecap="round" stroke-linejoin="round"/>
<path d="M6.98825 19.5917C5.83041 19.0662 4.97027 18.2044 5.32911 16.5434C5.40279 16.1991 5.9597 15.8889 6.28025 15.9145C5.08701 15.8196 4.3014 15.1272 4.02678 13.931C3.8287 13.0706 4.77028 11.7255 5.50996 11.7834C5.6755 10.6574 4.86692 7.81924 7.08405 7.07555C7.69742 6.8697 9.11936 6.98069 9.70307 7.63616C10.2868 8.29163 11.3078 9.74582 11.3078 10.6603C13.2531 9.93459 14.434 10.5099 14.5124 12.2434C14.5124 12.5168 14.4789 12.6864 14.434 12.861C16.7506 10.1689 18.0099 11.7141 17.2424 14.8929C16.9554 16.0947 16.7432 17.732 16.7432 19.1852" fill="#3BD7E2"/>
<path d="M6.98825 19.5917C5.83041 19.0662 4.97027 18.2044 5.32911 16.5434C5.40279 16.1991 5.9597 15.8889 6.28025 15.9145C5.08701 15.8196 4.3014 15.1272 4.02678 13.931C3.8287 13.0706 4.77028 11.7255 5.50996 11.7834C5.6755 10.6574 4.86692 7.81924 7.08405 7.07555C7.69742 6.8697 9.11936 6.98069 9.70307 7.63616C10.2868 8.29163 11.3078 9.74582 11.3078 10.6603C13.2531 9.93459 14.434 10.5099 14.5124 12.2434C14.5124 12.5168 14.4789 12.6864 14.434 12.861C16.7506 10.1689 18.0099 11.7141 17.2424 14.8929C16.9554 16.0947 16.7432 17.732 16.7432 19.1852" stroke="#666666" stroke-linecap="round" stroke-linejoin="round"/>
<path d="M7.91071 10.7051C8.5059 12.6971 12.588 16.9971 14.2071 18.4408C14.2693 18.4958 15.4635 19.5445 15.5238 19.5919" stroke="#666666" stroke-linecap="round" stroke-linejoin="round"/>
<path d="M11.8657 13.4946C11.8418 13.8181 11.7526 15.5269 11.8275 16.0264" stroke="#666666" stroke-linecap="round" stroke-linejoin="round"/>
<path d="M12.2474 16.5127C11.2513 16.5877 9.87432 16.0498 8.99397 16.0498" stroke="#666666" stroke-linecap="round" stroke-linejoin="round"/>
<path d="M24.8724 13.9015L27.6764 9.23379C29.5758 5.66237 33.4541 7.45899 35.1239 8.48252C37.1927 9.75172 34.4204 15.9409 33.408 17.1532" fill="#3BD7E2"/>
<path d="M24.8724 13.9015L27.6764 9.23379C29.5758 5.66237 33.4541 7.45899 35.1239 8.48252C37.1927 9.75172 34.4204 15.9409 33.408 17.1532" stroke="#666666" stroke-linecap="round" stroke-linejoin="round"/>
<path d="M32.6906 7.15449C32.6179 6.78549 32.4552 4.81148 32.194 4.21387" stroke="#666666" stroke-linecap="round" stroke-linejoin="round"/>
<path d="M34.5919 4.32812C33.8263 5.8914 33.9546 6.04791 33.0541 7.45847L33.1498 7.34558" stroke="#666666" stroke-linecap="round" stroke-linejoin="round"/>
<path d="M35.9899 5.67627C35.5115 6.2255 33.9326 7.13994 33.4589 7.60664" stroke="#666666" stroke-linecap="round" stroke-linejoin="round"/>
<path d="M35.5048 12.3579C34.6953 11.3306 34.3566 10.935 32.3203 10.271" stroke="#666666" stroke-linecap="round" stroke-linejoin="round"/>
<path d="M29.9117 12.0065C29.3452 11.4933 27.8879 11.019 27.0716 11.019" stroke="#666666" stroke-linecap="round" stroke-linejoin="round"/>
<path d="M33.5873 21.2192C34.8114 19.4731 34.2085 17.1777 32.2389 16.0912C30.2694 15.0047 27.682 15.5403 26.4578 17.2863C26.3118 17.4936 26.1891 17.7141 26.0917 17.9444" fill="#D8F7F9"/>
<path d="M33.5873 21.2192C34.8114 19.4731 34.2085 17.1777 32.2389 16.0912C30.2694 15.0047 27.682 15.5403 26.4578 17.2863C26.3118 17.4936 26.1891 17.7141 26.0917 17.9444" stroke="#666666" stroke-linecap="round" stroke-linejoin="round"/>
<path d="M30.1296 19.5923C30.2592 18.2397 29.9143 16.8836 29.1707 15.822C28.4271 14.7603 27.3458 14.0801 26.1642 13.9307C25.5791 13.8593 24.9874 13.9208 24.4231 14.1115C23.8587 14.3023 23.3328 14.6187 22.8754 15.0425C22.4181 15.4664 22.0383 15.9894 21.7578 16.5815C21.4773 17.1736 21.3016 17.8233 21.2408 18.4933C21.2084 18.8299 21.2057 19.1693 21.2326 19.5066" fill="#D8F7F9"/>
<path d="M30.1296 19.5923C30.2592 18.2397 29.9143 16.8836 29.1707 15.822C28.4271 14.7603 27.3458 14.0801 26.1642 13.9307C25.5791 13.8593 24.9874 13.9208 24.4231 14.1115C23.8587 14.3023 23.3328 14.6187 22.8754 15.0425C22.4181 15.4664 22.0383 15.9894 21.7578 16.5815C21.4773 17.1736 21.3016 17.8233 21.2408 18.4933C21.2084 18.8299 21.2057 19.1693 21.2326 19.5066" stroke="#666666" stroke-linecap="round" stroke-linejoin="round"/>
<path d="M25.7569 33.8033C32.6236 31.944 35.6502 27.0512 35.6502 20.5373C35.6482 20.2481 35.5309 19.9715 35.3238 19.7678C35.1167 19.5641 34.8367 19.4499 34.545 19.4502H6.30901C6.01761 19.4509 5.73822 19.5654 5.53136 19.7689C5.3245 19.9724 5.20682 20.2484 5.2038 20.5373C5.2038 26.8928 8.06108 31.6993 14.7268 33.698" fill="#D8F7F9"/>
<path d="M25.7569 33.8033C32.6236 31.944 35.6502 27.0512 35.6502 20.5373C35.6482 20.2481 35.5309 19.9715 35.3238 19.7678C35.1167 19.5641 34.8367 19.4499 34.545 19.4502H6.30901C6.01761 19.4509 5.73822 19.5654 5.53136 19.7689C5.3245 19.9724 5.20682 20.2484 5.2038 20.5373C5.2038 26.8928 8.06108 31.6993 14.7268 33.698" stroke="#666666" stroke-linecap="round" stroke-linejoin="round"/>
<path d="M14.099 33.8037H26.7511C26.9444 33.8045 27.1295 33.881 27.2662 34.0166C27.4028 34.1522 27.4797 34.3358 27.4802 34.5275V35.2769C27.4797 35.4685 27.4028 35.6522 27.2662 35.7878C27.1295 35.9234 26.9444 35.9999 26.7511 36.0006H14.099C13.9057 35.9999 13.7205 35.9234 13.5839 35.7878C13.4473 35.6522 13.3704 35.4685 13.3699 35.2769V34.5275C13.3704 34.3358 13.4473 34.1522 13.5839 34.0166C13.7205 33.881 13.9057 33.8045 14.099 33.8037Z" fill="#3BD7E2" stroke="#666666" stroke-linecap="round" stroke-linejoin="round"/>
<path d="M32.7823 22.5571C32.7823 23.8852 32.4513 24.7948 31.8388 25.9483C31.1954 27.1361 30.3143 28.1812 29.2495 29.0199C28.6914 29.4648 28.0942 29.8591 27.4649 30.198C26.8096 30.5531 26.1248 30.8521 25.4181 31.0916" stroke="#666666" stroke-linecap="round" stroke-linejoin="round"/>
</svg>
