<svg width="41" height="22" viewBox="0 0 41 22" fill="none" xmlns="http://www.w3.org/2000/svg">
<path opacity="0.8" d="M0.5 11C0.5 9 5.5 6.16667 8 5C13.2 9.4 10.5 14.8333 8.5 17C8.5 17 0.5 13.5 0.5 11Z" fill="#3BD7E2"/>
<path d="M38.3275 11.0075C38.3277 13.2794 39.0751 15.9325 40.3353 18.1246L40.3352 18.1246L40.34 18.1326C40.3839 18.2057 40.3858 18.3026 40.3256 18.3918C40.2794 18.4554 40.2 18.4964 40.1161 18.4964L40.0909 18.4963L40.0795 18.4961L40.0758 18.4954C37.158 17.9905 34.4312 16.3035 32.6225 13.9404C32.5394 13.8318 32.4153 13.762 32.2793 13.7472C32.1433 13.7325 32.0071 13.7742 31.9027 13.8625C29.6839 15.7384 27.0617 17.1036 24.2216 17.922C24.0197 17.9801 23.8757 18.1583 23.8612 18.3679C23.8079 19.1367 23.5799 19.8786 23.1799 20.5351L23.1793 20.5361C22.8875 21.0175 22.581 21.2723 22.2571 21.399C22.0594 21.4727 21.8548 21.5 21.6489 21.5C21.5709 21.5 21.5054 21.4946 21.424 21.488C21.3786 21.4842 21.3283 21.4801 21.2681 21.4763C18.6725 21.2488 16.1811 20.3346 14.0533 18.8461L14.0534 18.846L14.044 18.8398C14.0409 18.8377 14.0259 18.8268 13.9986 18.786C13.9205 18.6689 13.7967 18.5901 13.6575 18.569C10.4064 18.0765 7.18103 16.952 4.2442 15.1721L4.24332 15.1716C3.50521 14.7263 2.65738 14.1631 1.9462 13.4817C1.23264 12.7981 0.691603 12.0286 0.507543 11.177L0.50759 11.177L0.506019 11.1702C0.497256 11.1322 0.499439 11.1038 0.503894 11.086C0.505358 11.0801 0.506716 11.0743 0.507967 11.0683C0.688027 10.2186 1.22784 9.45206 1.94255 8.76926C2.65476 8.08884 3.50454 7.52562 4.24447 7.07509C6.99049 5.41136 9.99972 4.33715 13.084 3.84504C13.2046 3.82581 13.3125 3.76344 13.3891 3.67166C15.6753 1.9649 18.384 0.881997 21.2209 0.534902C21.6074 0.492974 21.9553 0.467961 22.2973 0.586085L22.2976 0.586176C22.647 0.706644 22.9938 0.983529 23.3301 1.49889C23.8505 2.30274 24.1549 3.22478 24.1947 4.17303V4.17308V4.17312V4.17317V4.17322V4.17327V4.17332V4.17337V4.17342V4.17347V4.17352V4.17357V4.17361V4.17366V4.17371V4.17376V4.17381V4.17386V4.17391V4.17396V4.17401V4.17406V4.17411V4.17415V4.1742V4.17425V4.1743V4.17435V4.1744V4.17445V4.1745V4.17455V4.1746V4.17464V4.17469V4.17474V4.17479V4.17484V4.17489V4.17494V4.17499V4.17504V4.17509V4.17513V4.17518V4.17523V4.17528V4.17533V4.17538V4.17543V4.17548V4.17553V4.17558V4.17562V4.17567V4.17572V4.17577V4.17582V4.17587V4.17592V4.17597V4.17602V4.17607V4.17611V4.17616V4.17621V4.17626V4.17631V4.17636V4.17641V4.17646V4.17651V4.17656V4.1766V4.17665V4.1767V4.17675V4.1768V4.17685V4.1769V4.17695V4.177V4.17705V4.17709V4.17714V4.17719V4.17724V4.17729V4.17734V4.17739V4.17744V4.17749V4.17754V4.17759V4.17763V4.17768V4.17773V4.17778V4.17783V4.17788V4.17793V4.17798V4.17803V4.17808V4.17812V4.17817V4.17822V4.17827V4.17832V4.17837V4.17842V4.17847V4.17852V4.17857V4.17861V4.17866V4.17871V4.17876V4.17881V4.17886V4.17891V4.17896V4.17901V4.17906V4.1791V4.17915V4.1792V4.17925V4.1793V4.17935V4.1794V4.17945V4.1795V4.17955V4.17959V4.17964V4.17969V4.17974V4.17979V4.17984V4.17989V4.17994V4.17999V4.18004V4.18009V4.18013V4.18018V4.18023V4.18028V4.18033V4.18038V4.18043V4.18048V4.18053V4.18058V4.18062V4.18067V4.18072V4.18077V4.18082V4.18087V4.18092V4.18097V4.18102V4.18107V4.18111V4.18116V4.18121V4.18126V4.18131V4.18136V4.18141V4.18146V4.18151V4.18156V4.1816V4.18165V4.1817V4.18175V4.1818V4.18185V4.1819V4.18195V4.182V4.18205V4.1821V4.18214V4.18219V4.18224V4.18229V4.18234V4.18239V4.18244V4.18249V4.18254V4.18259V4.18263V4.18268V4.18273V4.18278V4.18283V4.18288V4.18293V4.18298V4.18303V4.18308V4.18312V4.18317V4.18322V4.18327V4.18332V4.18337V4.18342V4.18347V4.18352V4.18357V4.18361V4.18366V4.18371V4.18376V4.18381V4.18386V4.18391V4.18396V4.18401V4.18406V4.1841V4.18415V4.1842V4.18425V4.1843V4.18435V4.1844V4.18445V4.1845V4.18455V4.1846V4.18464V4.18469V4.18474V4.18479V4.18484V4.18489V4.18494V4.18499V4.18504V4.18509V4.18513V4.18518V4.18523V4.18528V4.18533V4.18538V4.18543V4.18548V4.18553V4.18558V4.18562V4.18567V4.18572V4.18577V4.18582V4.18587V4.18592V4.18597V4.18602V4.18607V4.18611V4.18616V4.18621V4.18626V4.18631V4.18636V4.18641V4.18646V4.18651V4.18656V4.1866V4.18665V4.1867V4.18675V4.1868V4.18685V4.1869V4.18695V4.187V4.18705V4.1871V4.18714V4.18719V4.18724V4.18729V4.18734V4.18739V4.18744V4.18749V4.18754V4.18759V4.18763V4.18768V4.18773V4.18778V4.18783V4.18788V4.18793C24.1947 4.40793 24.3385 4.60209 24.549 4.66622C27.1322 5.45338 29.5931 6.6671 31.8416 8.28348C32.0629 8.44254 32.3707 8.39514 32.5339 8.17689C34.3424 5.75787 37.1011 4.03071 40.0674 3.51769L40.0691 3.51739C40.1656 3.50035 40.2617 3.54075 40.3153 3.61844L40.3153 3.61848L40.32 3.6252C40.3673 3.69141 40.3776 3.79852 40.3257 3.89056M38.3275 11.0075C38.3189 8.74135 39.0759 6.08828 40.3257 3.89056M38.3275 11.0075C38.3275 11.0072 38.3275 11.0069 38.3275 11.0065H38.8275L38.3275 11.0085C38.3275 11.0081 38.3275 11.0078 38.3275 11.0075ZM40.3257 3.89056L40.7604 4.13773L40.3254 3.8912C40.3255 3.89098 40.3256 3.89077 40.3257 3.89056Z" fill="#3BD7E2" fill-opacity="0.2" stroke="#333333" stroke-linecap="round" stroke-linejoin="round"/>
<path d="M5.50583 10.262C5.50583 9.55929 6.07682 8.98828 6.77975 8.98828C7.47584 8.98828 8.05367 9.56083 8.05367 10.262C8.05367 10.9646 7.48268 11.5356 6.77975 11.5356C6.07682 11.5356 5.50583 10.9646 5.50583 10.262Z" fill="#D8F7F9" stroke="#333333" stroke-linecap="round" stroke-linejoin="round"/>
<path d="M15.4316 12.2114L16.4106 12.613C17.3561 13.0062 18.4272 13.4496 19.5903 13.5082C19.6656 13.5082 19.7493 13.5166 19.8246 13.5166C21.1383 13.5166 22.3181 12.956 22.9457 12.0273" stroke="#333333" stroke-linecap="round" stroke-linejoin="round"/>
</svg>
