<svg width="16" height="18" viewBox="0 0 16 18" fill="none" xmlns="http://www.w3.org/2000/svg">
<path d="M13.2173 5.17382C14.3699 5.17382 15.3042 4.23948 15.3042 3.08691C15.3042 1.93434 14.3699 1 13.2173 1C12.0647 1 11.1304 1.93434 11.1304 3.08691C11.1304 4.23948 12.0647 5.17382 13.2173 5.17382Z" stroke="#FD8F2A" stroke-width="0.7" stroke-miterlimit="10"/>
<path d="M12.3477 17.0002C13.5964 17.0002 14.6086 15.988 14.6086 14.7393C14.6086 13.4907 13.5964 12.4785 12.3477 12.4785C11.0991 12.4785 10.0869 13.4907 10.0869 14.7393C10.0869 15.988 11.0991 17.0002 12.3477 17.0002Z" stroke="#FD8F2A" stroke-width="0.7" stroke-miterlimit="10"/>
<path d="M2.78271 10.7388C3.93528 10.7388 4.86962 9.80442 4.86962 8.65185C4.86962 7.49928 3.93528 6.56494 2.78271 6.56494C1.63014 6.56494 0.695801 7.49928 0.695801 8.65185C0.695801 9.80442 1.63014 10.7388 2.78271 10.7388Z" stroke="#FD8F2A" stroke-width="0.7" stroke-miterlimit="10"/>
<path d="M12.1737 4.82617L10.7825 6.56526" stroke="#FD8F2A" stroke-width="0.7" stroke-miterlimit="10"/>
<path d="M11.4781 12.8258L10.7825 11.4346" stroke="#FD8F2A" stroke-width="0.7" stroke-miterlimit="10"/>
<path d="M4.86963 8.65186H6.60872" stroke="#FD8F2A" stroke-width="0.7" stroke-miterlimit="10"/>
<path d="M9.21744 11.7825C10.8502 11.7825 12.1739 10.4589 12.1739 8.82609C12.1739 7.19328 10.8502 5.86963 9.21744 5.86963C7.58464 5.86963 6.26099 7.19328 6.26099 8.82609C6.26099 10.4589 7.58464 11.7825 9.21744 11.7825Z" stroke="#FD8F2A" stroke-width="0.7" stroke-miterlimit="10"/>
</svg>
