<svg width="18" height="14" viewBox="0 0 18 14" fill="none" xmlns="http://www.w3.org/2000/svg">
<path d="M16.2727 13.5002H1.72727C1.32582 13.5002 1 13.1962 1 12.8216V3.32164C1 2.94707 1.32582 2.64307 1.72727 2.64307H16.2727C16.6742 2.64307 17 2.94707 17 3.32164V12.8216C17 13.1962 16.6742 13.5002 16.2727 13.5002Z" stroke="#317BBF" stroke-width="0.6" stroke-miterlimit="10" stroke-linecap="round" stroke-linejoin="round"/>
<path d="M6.64722 2.64284V0.857141C6.64722 0.659642 6.81971 0.5 7.03224 0.5H10.8825C11.095 0.5 11.2675 0.659642 11.2675 0.857141V2.64284" stroke="#317BBF" stroke-width="0.6" stroke-miterlimit="10" stroke-linecap="round" stroke-linejoin="round"/>
<path d="M10.098 7.13503V5.02393H7.90189V7.13503H5.70581V9.24613H7.90189V11.3572H10.098V9.24613H12.294V7.13503H10.098Z" stroke="#317BBF" stroke-width="0.6" stroke-miterlimit="10" stroke-linecap="round" stroke-linejoin="round"/>
</svg>
