<svg width="16" height="18" viewBox="0 0 16 18" fill="none" xmlns="http://www.w3.org/2000/svg">
<path d="M13.2173 5.17382C14.3698 5.17382 15.3042 4.23948 15.3042 3.08691C15.3042 1.93434 14.3698 1 13.2173 1C12.0647 1 11.1303 1.93434 11.1303 3.08691C11.1303 4.23948 12.0647 5.17382 13.2173 5.17382Z" stroke="#111111" stroke-width="0.7" stroke-miterlimit="10"/>
<path d="M12.3477 17C13.5964 17 14.6086 15.9878 14.6086 14.7392C14.6086 13.4906 13.5964 12.4784 12.3477 12.4784C11.0991 12.4784 10.0869 13.4906 10.0869 14.7392C10.0869 15.9878 11.0991 17 12.3477 17Z" stroke="#111111" stroke-width="0.7" stroke-miterlimit="10"/>
<path d="M2.78271 10.7389C3.93528 10.7389 4.86962 9.80457 4.86962 8.652C4.86962 7.49944 3.93528 6.56509 2.78271 6.56509C1.63014 6.56509 0.695801 7.49944 0.695801 8.652C0.695801 9.80457 1.63014 10.7389 2.78271 10.7389Z" stroke="#111111" stroke-width="0.7" stroke-miterlimit="10"/>
<path d="M12.1738 4.82599L10.7825 6.56508" stroke="#111111" stroke-width="0.7" stroke-miterlimit="10"/>
<path d="M11.4782 12.8258L10.7825 11.4345" stroke="#111111" stroke-width="0.7" stroke-miterlimit="10"/>
<path d="M4.86963 8.65201H6.60872" stroke="#111111" stroke-width="0.7" stroke-miterlimit="10"/>
<path d="M9.21735 11.7824C10.8502 11.7824 12.1738 10.4587 12.1738 8.82591C12.1738 7.1931 10.8502 5.86945 9.21735 5.86945C7.58455 5.86945 6.26089 7.1931 6.26089 8.82591C6.26089 10.4587 7.58455 11.7824 9.21735 11.7824Z" stroke="#111111" stroke-width="0.7" stroke-miterlimit="10"/>
</svg>
