<svg width="16" height="18" viewBox="0 0 16 18" fill="none" xmlns="http://www.w3.org/2000/svg">
<path d="M7.99959 5.95128C8.37874 5.95128 8.75582 5.88918 9.32123 5.74709C12.6067 4.92003 15.4665 7.085 14.9363 10.7921C14.6841 12.5555 13.7478 14.1132 13.0252 15.178C12.303 16.2424 11.1378 17.1117 9.81695 16.9883C9.01302 16.9133 8.58118 16.7662 8.00001 16.7662C7.41883 16.7662 6.98741 16.9133 6.18306 16.9883C4.86184 17.1117 3.697 16.2424 2.97478 15.178C2.25215 14.1132 1.31589 12.5555 1.06368 10.7921C0.533528 7.085 3.39335 4.91965 6.67878 5.74709C7.24336 5.88918 7.62044 5.9509 7.99959 5.95128Z" stroke="#111111" stroke-width="0.7" stroke-miterlimit="10" stroke-linecap="round" stroke-linejoin="round"/>
<path d="M2.93564 11.0728C2.44283 9.08231 3.25548 7.74668 4.26641 7.09525" stroke="#111111" stroke-width="0.7" stroke-miterlimit="10" stroke-linecap="round" stroke-linejoin="round"/>
<path d="M10.4885 1C10.4885 1 7.99953 2.14286 7.99953 5.1905V5.57146" stroke="#111111" stroke-width="0.7" stroke-miterlimit="10" stroke-linecap="round" stroke-linejoin="round"/>
<path d="M8.21436 3.72089C8.21436 3.72089 6.42106 4.60852 5.01687 4.1529C3.61268 3.69727 2.9585 2.0706 2.9585 2.0706C2.9585 2.0706 4.58006 1.18297 5.98425 1.63859C7.38802 2.09421 8.21436 3.72089 8.21436 3.72089Z" stroke="#111111" stroke-width="0.7" stroke-miterlimit="10" stroke-linecap="round" stroke-linejoin="round"/>
</svg>
