<svg width="16" height="18" viewBox="0 0 16 18" fill="none" xmlns="http://www.w3.org/2000/svg">
<path d="M7.99959 5.9511C8.37874 5.9511 8.75582 5.889 9.32123 5.7469C12.6067 4.91985 15.4665 7.08482 14.9363 10.7919C14.6841 12.5553 13.7478 14.1131 13.0252 15.1778C12.303 16.2422 11.1378 17.1116 9.81695 16.9881C9.01302 16.9131 8.58118 16.766 8.00001 16.766C7.41883 16.766 6.98741 16.9131 6.18306 16.9881C4.86184 17.1116 3.697 16.2422 2.97478 15.1778C2.25215 14.1131 1.31589 12.5553 1.06368 10.7919C0.533528 7.08482 3.39335 4.91947 6.67878 5.7469C7.24336 5.889 7.62044 5.95072 7.99959 5.9511Z" stroke="#528A36" stroke-width="0.7" stroke-miterlimit="10" stroke-linecap="round" stroke-linejoin="round"/>
<path d="M2.93564 11.0728C2.44283 9.08228 3.25548 7.74665 4.26641 7.09521" stroke="#528A36" stroke-width="0.7" stroke-miterlimit="10" stroke-linecap="round" stroke-linejoin="round"/>
<path d="M10.4885 1C10.4885 1 7.99951 2.14286 7.99951 5.1905V5.57146" stroke="#528A36" stroke-width="0.7" stroke-miterlimit="10" stroke-linecap="round" stroke-linejoin="round"/>
<path d="M8.21436 3.72068C8.21436 3.72068 6.42106 4.6083 5.01687 4.15268C3.61268 3.69706 2.9585 2.07038 2.9585 2.07038C2.9585 2.07038 4.58006 1.18276 5.98425 1.63838C7.38802 2.094 8.21436 3.72068 8.21436 3.72068Z" stroke="#528A36" stroke-width="0.7" stroke-miterlimit="10" stroke-linecap="round" stroke-linejoin="round"/>
</svg>
