<svg width="16" height="16" viewBox="0 0 16 16" fill="none" xmlns="http://www.w3.org/2000/svg">
<path fill-rule="evenodd" clip-rule="evenodd" d="M12.1201 6.55937C12.1201 9.62963 9.63087 12.1187 6.56004 12.1187C3.48922 12.1187 1 9.62963 1 6.55937C1 3.48911 3.48922 1 6.56004 1C9.63087 1 12.1201 3.48911 12.1201 6.55937ZM10.8318 11.5376C9.68406 12.5232 8.19161 13.1187 6.56004 13.1187C2.93703 13.1187 0 10.182 0 6.55937C0 2.93673 2.93703 0 6.56004 0C10.1831 0 13.1201 2.93673 13.1201 6.55937C13.1201 8.19068 12.5245 9.6829 11.5389 10.8305L15.9969 15.288L15.2898 15.9952L10.8318 11.5376Z" fill="#3BD7E2"/>
</svg>
