<svg width="18" height="14" viewBox="0 0 18 14" fill="none" xmlns="http://www.w3.org/2000/svg">
<path d="M16.2727 13.4999H1.72727C1.32582 13.4999 1 13.1959 1 12.8214V3.32139C1 2.94682 1.32582 2.64282 1.72727 2.64282H16.2727C16.6742 2.64282 17 2.94682 17 3.32139V12.8214C17 13.1959 16.6742 13.4999 16.2727 13.4999Z" stroke="#111111" stroke-width="0.6" stroke-miterlimit="10" stroke-linecap="round" stroke-linejoin="round"/>
<path d="M6.64709 2.64284V0.857141C6.64709 0.659642 6.81959 0.5 7.03212 0.5H10.8824C11.0949 0.5 11.2674 0.659642 11.2674 0.857141V2.64284" stroke="#111111" stroke-width="0.6" stroke-miterlimit="10" stroke-linecap="round" stroke-linejoin="round"/>
<path d="M10.0979 7.13491V5.0238H7.9018V7.13491H5.70572V9.24601H7.9018V11.3571H10.0979V9.24601H12.294V7.13491H10.0979Z" stroke="#111111" stroke-width="0.6" stroke-miterlimit="10" stroke-linecap="round" stroke-linejoin="round"/>
</svg>
