<svg width="40" height="40" viewBox="0 0 40 40" fill="none" xmlns="http://www.w3.org/2000/svg">
<path d="M20 28.091C28.3345 28.091 35.0909 25.2419 35.0909 21.7274C35.0909 18.2129 28.3345 15.3638 20 15.3638C11.6655 15.3638 4.9091 18.2129 4.9091 21.7274C4.9091 25.2419 11.6655 28.091 20 28.091Z" fill="#3BD7E2" stroke="#666666" stroke-linecap="round" stroke-linejoin="round"/>
<path d="M20 25.9091C29.9411 25.9091 38 22.5716 38 18.4545C38 14.3375 29.9411 11 20 11C10.0589 11 2 14.3375 2 18.4545C2 22.5716 10.0589 25.9091 20 25.9091Z" fill="#D8F7F9" stroke="#666666" stroke-linecap="round" stroke-linejoin="round"/>
<path d="M6.37638 19.4406C6.00571 12.8184 13.8439 12.8184 13.8439 12.8184C13.8439 12.8184 24.3972 18.9858 20.9412 20.0898C17.4852 21.1939 6.37638 19.4406 6.37638 19.4406Z" fill="#3BD7E2" stroke="#666666" stroke-linecap="round" stroke-linejoin="round"/>
<path d="M7 17.6158C7 17.6158 8.4844 16.5019 11.563 17.2704C14.6416 18.0389 16.4545 19.9091 16.4545 19.9091" stroke="#666666" stroke-linecap="round" stroke-linejoin="round"/>
<path d="M9 14.1418C9 14.1418 11.6736 13.3584 14.6423 15.4741C16.8162 17.0233 17.7273 18.7273 17.7273 18.7273" stroke="#666666" stroke-linecap="round" stroke-linejoin="round"/>
<path d="M8.54546 22.4873C18.4998 14.701 31.0839 14.6362 31.0839 14.6362L32.1481 16.9529L35.0909 17.9192C35.0909 17.9192 28.9551 18.756 21.7557 21.4587C14.5562 24.1614 8.54546 22.4873 8.54546 22.4873Z" fill="#3BD7E2" stroke="#666666" stroke-linecap="round" stroke-linejoin="round"/>
<path d="M8.90908 22.2729C8.90908 22.2729 18.3513 18.5282 24.2578 17.4462C30.1643 16.3642 32.1818 17.009 32.1818 17.009" stroke="#666666" stroke-linecap="round" stroke-linejoin="round"/>
<path d="M18 21.1816C20.382 15.228 26.5886 13.1816 26.5886 13.1816C26.5886 13.1816 28.7828 14.1738 28.908 15.5381C29.0332 16.9023 18 21.1816 18 21.1816Z" fill="white" stroke="#666666" stroke-linecap="round" stroke-linejoin="round"/>
<path d="M18.3636 20.8183C18.3636 20.8183 24.477 14.63 27.8182 13.9092" stroke="#666666" stroke-linecap="round" stroke-linejoin="round"/>
<path d="M25.6558 19.1926L24.5032 19.9316L25.54 21.5632L26.6926 20.8242L25.6558 19.1926Z" fill="white" stroke="#666666" stroke-linecap="round" stroke-linejoin="round"/>
<path d="M18.4226 15.4623L18.3065 14.0938L16.3866 14.2581L16.5027 15.6266L18.4226 15.4623Z" fill="white" stroke="#666666" stroke-linecap="round" stroke-linejoin="round"/>
</svg>
