<svg width="40" height="40" viewBox="0 0 40 40" fill="none" xmlns="http://www.w3.org/2000/svg">
<path d="M39.2624 25.0097C39.2624 26.0433 38.7849 27.0677 37.8404 28.0432C36.8937 29.021 35.4996 29.9245 33.7382 30.6941C30.2169 32.2327 25.3178 33.1968 19.8812 33.1968C14.4446 33.1968 9.54545 32.2327 6.02417 30.6941C4.26277 29.9245 2.86867 29.021 1.92193 28.0432C0.977488 27.0677 0.5 26.0433 0.5 25.0097C0.5 23.9726 0.977834 22.9459 1.92221 21.969C2.86895 20.9895 4.263 20.085 6.02433 19.3147C9.54552 17.7747 14.4446 16.8105 19.8812 16.8105C25.3178 16.8105 30.2168 17.7747 33.738 19.3147C35.4994 20.085 36.8934 20.9895 37.8401 21.969C38.7845 22.9459 39.2624 23.9726 39.2624 25.0097Z" fill="#D8F7F9" stroke="#666666" stroke-miterlimit="10" stroke-linecap="round" stroke-linejoin="round"/>
<path d="M36.4197 23.5007L36.4257 19.7553L29.6624 15.7394L16.2981 15.5229L11.0858 17.9878V22.0999C11.0918 22.7191 11.4405 23.3263 12.192 23.8193C13.6709 24.7872 16.25 25.1539 18.6668 25.3643C21.0835 25.5808 23.6506 25.7311 25.6224 26.4525C26.7346 26.8613 27.6364 27.4384 28.941 27.6609C30.6784 27.9554 32.6202 27.5046 33.9008 26.8493C35.4939 26.0377 36.3295 24.9195 36.4077 23.7832V23.7532C36.4257 23.675 36.4257 23.5848 36.4197 23.5007Z" fill="#3BD7E2" stroke="#666666" stroke-miterlimit="10" stroke-linecap="round" stroke-linejoin="round"/>
<path d="M19.8677 14.4101C17.0662 14.5784 14.2527 15.1736 12.5333 16.2797C10.8139 17.3859 10.4592 19.0632 12.1606 20.1814C13.6395 21.1493 16.2185 21.5161 18.6353 21.7265C21.0521 21.9429 23.6191 22.0932 25.591 22.8146C26.7032 23.2234 27.605 23.8006 28.9096 24.023C30.647 24.3176 32.5888 23.8667 33.8693 23.2114C36.2921 21.979 36.9714 20.0372 35.8773 18.4079C35.0897 17.2356 33.4605 16.2256 31.4406 15.5102C29.4566 14.8068 27.6771 14.6084 25.2904 14.4642C23.4989 14.356 21.6713 14.3018 19.8677 14.4101Z" fill="#3BD7E2" stroke="#666666" stroke-miterlimit="10" stroke-linecap="round" stroke-linejoin="round"/>
<path d="M15.5828 18.7515L22.5986 15.998" stroke="#666666" stroke-miterlimit="10" stroke-linecap="round" stroke-linejoin="round"/>
<path d="M21.3121 19.3708L28.3279 16.6113" stroke="#666666" stroke-miterlimit="10" stroke-linecap="round" stroke-linejoin="round"/>
<path d="M27.1496 20.4824L31.9591 18.5947" stroke="#666666" stroke-miterlimit="10" stroke-linecap="round" stroke-linejoin="round"/>
<path d="M20.5727 6.00049C21.2219 6.64977 21.2219 7.70184 20.5727 8.35112C19.9234 9.0004 19.9234 10.0525 20.5727 10.7017" fill="white"/>
<path d="M20.5727 6.00049C21.2219 6.64977 21.2219 7.70184 20.5727 8.35112C19.9234 9.0004 19.9234 10.0525 20.5727 10.7017" stroke="#666666" stroke-miterlimit="10" stroke-linecap="round" stroke-linejoin="round"/>
<path d="M24.8169 6.00049C25.4661 6.64977 25.4661 7.70184 24.8169 8.35112C24.1676 9.0004 24.1676 10.0525 24.8169 10.7017" fill="white"/>
<path d="M24.8169 6.00049C25.4661 6.64977 25.4661 7.70184 24.8169 8.35112C24.1676 9.0004 24.1676 10.0525 24.8169 10.7017" stroke="#666666" stroke-miterlimit="10" stroke-linecap="round" stroke-linejoin="round"/>
<path d="M29.0673 6.00049C29.7166 6.64977 29.7166 7.70184 29.0673 8.35112C28.418 9.0004 28.418 10.0525 29.0673 10.7017" fill="white"/>
<path d="M29.0673 6.00049C29.7166 6.64977 29.7166 7.70184 29.0673 8.35112C28.418 9.0004 28.418 10.0525 29.0673 10.7017" stroke="#666666" stroke-miterlimit="10" stroke-linecap="round" stroke-linejoin="round"/>
<path d="M8.27233 24.4079C8.30239 24.2156 8.37452 24.0292 8.49476 23.8548C8.90958 23.2597 9.7272 23.1154 10.3224 23.5362C11.0077 24.0172 12.0297 24.3899 13.1179 24.5582C14.212 24.7266 15.2942 24.6785 16.0937 24.432C16.7851 24.2156 17.5246 24.6003 17.741 25.2917C17.9574 25.983 17.5727 26.7225 16.8813 26.9389C15.6909 27.3117 14.212 27.3898 12.7151 27.1554C11.2181 26.9209 9.8354 26.4039 8.81339 25.6885C8.39256 25.3879 8.20018 24.8829 8.27233 24.4079Z" fill="white" stroke="#666666" stroke-miterlimit="10" stroke-linecap="round" stroke-linejoin="round"/>
<path d="M4.6412 23.7531C4.76144 23.5968 4.91174 23.4646 5.09811 23.3744C5.74739 23.0497 6.53493 23.3203 6.85957 23.9696C7.23231 24.721 7.94771 25.5386 8.82544 26.206C9.70317 26.8793 10.6771 27.3542 11.5007 27.5165C12.2101 27.6548 12.673 28.3462 12.5348 29.0616C12.3965 29.771 11.7051 30.2339 10.9897 30.0956C9.7693 29.8552 8.43469 29.2119 7.22631 28.2921C6.01792 27.3723 5.05601 26.248 4.50292 25.1359C4.28048 24.6669 4.34662 24.1379 4.6412 23.7531Z" fill="white" stroke="#666666" stroke-miterlimit="10" stroke-linecap="round" stroke-linejoin="round"/>
<path d="M23.0313 28.4789C24.1835 28.4789 25.1174 27.5449 25.1174 26.3928C25.1174 25.2406 24.1835 24.3066 23.0313 24.3066C21.8792 24.3066 20.9452 25.2406 20.9452 26.3928C20.9452 27.5449 21.8792 28.4789 23.0313 28.4789Z" fill="white" stroke="#666666" stroke-miterlimit="10" stroke-linecap="round" stroke-linejoin="round"/>
<path d="M20.6207 31.2074C21.7729 31.2074 22.7068 30.2734 22.7068 29.1213C22.7068 27.9691 21.7729 27.0352 20.6207 27.0352C19.4686 27.0352 18.5346 27.9691 18.5346 29.1213C18.5346 30.2734 19.4686 31.2074 20.6207 31.2074Z" fill="white" stroke="#666666" stroke-miterlimit="10" stroke-linecap="round" stroke-linejoin="round"/>
<path d="M24.5764 31.1957C25.7285 31.1957 26.6625 30.2617 26.6625 29.1095C26.6625 27.9574 25.7285 27.0234 24.5764 27.0234C23.4243 27.0234 22.4903 27.9574 22.4903 29.1095C22.4903 30.2617 23.4243 31.1957 24.5764 31.1957Z" fill="white" stroke="#666666" stroke-miterlimit="10" stroke-linecap="round" stroke-linejoin="round"/>
</svg>
