<svg width="40" height="40" viewBox="0 0 40 40" fill="none" xmlns="http://www.w3.org/2000/svg">
<path d="M28.8826 34H11.1174C10.4425 34 9.77866 33.8252 9.18786 33.4917C8.59706 33.1583 8.09862 32.6772 7.73913 32.0933C7.43497 31.589 7.23521 31.0263 7.15218 30.44L5 14H35L32.8609 30.44C32.7778 31.0263 32.5781 31.589 32.2739 32.0933C31.9133 32.6791 31.4127 33.1614 30.8195 33.495C30.2262 33.8285 29.5597 34.0023 28.8826 34Z" fill="#D8F7F9" stroke="#666666" stroke-linecap="round" stroke-linejoin="round"/>
<path d="M2 15H5" stroke="#666666" stroke-linecap="round" stroke-linejoin="round"/>
<path d="M38 15H35" stroke="#666666" stroke-linecap="round" stroke-linejoin="round"/>
<path d="M35 14C30.417 11.3772 25.2524 10 20 10C14.7476 10 9.58298 11.3772 5 14H35Z" fill="#3BD7E2" stroke="#666666" stroke-linecap="round" stroke-linejoin="round"/>
<path d="M20 10C21.1046 10 22 9.10457 22 8C22 6.89543 21.1046 6 20 6C18.8954 6 18 6.89543 18 8C18 9.10457 18.8954 10 20 10Z" fill="#D8F7F9" stroke="#666666" stroke-linecap="round" stroke-linejoin="round"/>
</svg>
