<svg width="32" height="36" viewBox="0 0 32 36" fill="none" xmlns="http://www.w3.org/2000/svg">
<path d="M24.0227 27.8107C24.8284 28.226 25.7362 28.4429 26.6781 28.4429C29.6133 28.4429 32 26.318 32 23.703C32 21.5481 30.4 19.7075 28.1229 19.1389C28.3347 17.9791 28.4445 16.7857 28.452 15.5736C28.452 15.5661 28.452 15.5587 28.452 15.5474C28.452 15.5437 28.452 15.5362 28.452 15.5325C28.452 15.5138 28.452 15.4913 28.452 15.4726C28.452 15.4277 28.4445 15.3828 28.4369 15.3379C28.2667 14.2792 26.7802 13.4225 24.0152 12.7865C21.3939 12.1842 17.9177 11.855 14.226 11.855C10.5342 11.855 7.05816 12.1879 4.43688 12.7865C1.67186 13.4225 0.189048 14.2792 0.0150525 15.3379C0.00370494 15.3791 0 15.424 0 15.4726C0 15.4913 0 15.5138 0 15.5325C0 15.5362 0 15.5437 0 15.5474C0 15.5549 0 15.5624 0 15.5736C0.0226951 20.0592 1.4865 24.2791 4.13047 27.4628C4.66381 28.1025 5.23118 28.6861 5.82882 29.2136C3.64631 29.6962 0.99097 30.6128 0.99097 32.2214C0.99097 33.3924 2.34887 34.3389 5.03067 35.0385C7.40987 35.6595 10.5646 35.9999 13.9121 35.9999C17.2596 35.9999 20.4142 35.6595 22.7934 35.0385C25.4714 34.3389 26.8331 33.3924 26.8331 32.2214C26.8331 30.7587 24.6809 29.8608 22.4946 29.3296C23.0241 28.8694 23.5348 28.3644 24.0227 27.8107ZM30.8728 23.703C30.8728 25.7045 28.9892 27.3318 26.6781 27.3318C25.9972 27.3318 25.3428 27.1934 24.749 26.9278C26.2279 24.9862 27.2908 22.7041 27.8885 20.2313C29.6435 20.6839 30.8728 22.0794 30.8728 23.703Z" fill="#3BD7E2" fill-opacity="0.2"/>
<path d="M0.5 15.8247C1.3 13.0554 10.1667 12.363 14.5 12.363C18.8333 12.363 27.6 12.9565 28 15.3302C28.4 17.7039 19.5 18.627 15 18.7918C10.6667 18.7918 1.7 18.1984 0.5 15.8247Z" fill="#3BD7E2" fill-opacity="0.8"/>
<path d="M24.0227 27.8107C24.8284 28.226 25.7362 28.4429 26.6781 28.4429C29.6133 28.4429 32 26.318 32 23.703C32 21.5481 30.4 19.7075 28.1229 19.1389C28.3347 17.9791 28.4445 16.7857 28.452 15.5736C28.452 15.5661 28.452 15.5587 28.452 15.5474C28.452 15.5437 28.452 15.5362 28.452 15.5325C28.452 15.5138 28.452 15.4913 28.452 15.4726C28.452 15.4277 28.4445 15.3828 28.4369 15.3379C28.2667 14.2792 26.7802 13.4225 24.0152 12.7865C21.3939 12.1842 17.9177 11.855 14.226 11.855C10.5342 11.855 7.05816 12.1879 4.43688 12.7865C1.67186 13.4225 0.189048 14.2792 0.0150525 15.3379C0.00370494 15.3791 0 15.424 0 15.4726C0 15.4913 0 15.5138 0 15.5325C0 15.5362 0 15.5437 0 15.5474C0 15.5549 0 15.5624 0 15.5736C0.0226951 20.0592 1.4865 24.2791 4.13047 27.4628C4.66381 28.1025 5.23118 28.6861 5.82882 29.2136C3.64631 29.6962 0.99097 30.6128 0.99097 32.2214C0.99097 33.3924 2.34887 34.3389 5.03067 35.0385C7.40987 35.6595 10.5646 35.9999 13.9121 35.9999C17.2596 35.9999 20.4142 35.6595 22.7934 35.0385C25.4714 34.3389 26.8331 33.3924 26.8331 32.2214C26.8331 30.7587 24.6809 29.8608 22.4946 29.3296C23.0241 28.8694 23.5348 28.3644 24.0227 27.8107ZM30.8728 23.703C30.8728 25.7045 28.9892 27.3318 26.6781 27.3318C25.9972 27.3318 25.3428 27.1934 24.749 26.9278C26.2279 24.9862 27.2908 22.7041 27.8885 20.2313C29.6435 20.6839 30.8728 22.0794 30.8728 23.703ZM4.68649 13.8714C7.22834 13.2878 10.6137 12.9661 14.2222 12.9661C17.8307 12.9661 21.216 13.2878 23.7579 13.8714C26.6515 14.5373 27.3097 15.293 27.3249 15.5399C27.3249 15.5474 27.3249 15.5549 27.3249 15.5587C27.306 15.8093 26.6402 16.5613 23.7579 17.2234C21.216 17.807 17.8307 18.1288 14.2222 18.1288C10.6137 18.1288 7.22834 17.807 4.68649 17.2234C1.80422 16.5613 1.13852 15.8093 1.11961 15.5587C1.11961 15.5512 1.11961 15.5437 1.11961 15.5399C1.13474 15.293 1.79287 14.5373 4.68649 13.8714ZM25.7022 32.2214C25.7022 32.5581 25.0289 33.3026 22.5022 33.961C20.2137 34.5596 17.1613 34.8851 13.9083 34.8851C10.6553 34.8851 7.60278 34.5559 5.31436 33.961C2.78764 33.3026 2.11437 32.5581 2.11437 32.2214C2.11437 31.7239 3.41558 30.7624 6.97114 30.1189C9.14231 31.664 11.6312 32.4871 14.226 32.4871C16.7678 32.4871 19.2076 31.6977 21.3447 30.2125C24.5333 30.8559 25.7022 31.7613 25.7022 32.2214ZM14.2222 31.376C7.46662 31.376 1.89122 25.1396 1.19524 17.1598C1.93661 17.6013 3.01465 17.9829 4.43309 18.3083C7.05437 18.9107 10.5305 19.2399 14.2222 19.2399C17.9139 19.2399 21.3901 18.9069 24.0114 18.3083C25.4298 17.9829 26.5116 17.5975 27.2491 17.1598C26.5532 25.1396 20.9778 31.376 14.2222 31.376Z" fill="#333333"/>
<path d="M10.9162 6.00448C10.7725 7.03702 11.3966 7.47847 11.8505 7.8002C12.0585 7.94984 12.259 8.08826 12.4254 8.28654C12.5351 8.41748 12.6978 8.48482 12.8567 8.48482C12.9853 8.48482 13.1101 8.44366 13.216 8.35388C13.4543 8.1556 13.4846 7.80768 13.2879 7.57199C13.0307 7.26522 12.7394 7.05946 12.5049 6.89486C12.0699 6.58809 11.9829 6.50953 12.032 6.15412C12.1115 5.58174 12.5616 4.93827 12.9966 4.31351C13.4808 3.61767 13.9384 2.96298 13.9309 2.31203C13.9157 1.47029 13.1933 0.729551 11.7144 0.0524147C11.4345 -0.0785232 11.0978 0.044933 10.9692 0.321773C10.8368 0.598613 10.9617 0.93157 11.2416 1.05877C12.6827 1.72094 12.8037 2.1998 12.8075 2.33073C12.8113 2.62628 12.4217 3.18744 12.0737 3.68501C11.582 4.38085 11.0297 5.17022 10.9162 6.00448Z" fill="#333333"/>
<path d="M15.5083 7.87875C15.3645 8.91129 15.9886 9.35273 16.4425 9.67446C16.6506 9.82411 16.8511 9.96253 17.0175 10.1608C17.1272 10.2917 17.2898 10.3591 17.4487 10.3591C17.5773 10.3591 17.7021 10.3179 17.808 10.2281C18.0463 10.0299 18.0766 9.68195 17.8799 9.44626C17.6227 9.13949 17.3314 8.93373 17.0969 8.76912C16.6619 8.46235 16.5749 8.38379 16.6241 8.02839C16.7035 7.456 17.1537 6.81254 17.5886 6.18777C18.0728 5.49193 18.5305 4.83724 18.5229 4.1863C18.5078 3.34455 17.7853 2.60382 16.3063 1.92668C16.0264 1.79574 15.6898 1.9192 15.5612 2.19604C15.4288 2.47288 15.5536 2.80584 15.8335 2.93303C17.2746 3.59521 17.3957 4.07406 17.3995 4.205C17.4033 4.50055 17.0136 5.06171 16.6656 5.55927C16.1739 6.25137 15.6217 7.04074 15.5083 7.87875Z" fill="#333333"/>
</svg>
