<svg width="40" height="30" viewBox="0 0 40 30" fill="none" xmlns="http://www.w3.org/2000/svg">
<path d="M1.23964 15.3267L10.0629 26.3648C21.2391 31.5936 27.1213 27.5264 28.886 26.9454C30.6506 26.3645 33.5917 21.1359 37.7092 16.4883C41.0033 12.7702 36.7289 9.90416 34.1799 8.9359C36.5328 7.19314 40.6503 3.24285 38.2975 1.3838C35.9446 -0.475246 31.827 4.86952 30.0624 7.77428C28.886 7.19333 25.0037 6.03142 18.8862 6.03142C11.2394 6.03142 5.9454 8.35523 3.0043 10.679C0.651426 12.5381 0.847499 14.5521 1.23964 15.3267Z" fill="#3BD7E2" fill-opacity="0.2"/>
<path d="M4.76895 17.0691C4.76895 11.9567 14.1805 10.2913 18.8862 10.0977C19.4744 10.0977 21.592 10.2138 25.3566 10.6786C33.5917 12.4215 34.7681 13.5834 35.3564 17.0691C35.8269 19.8577 25.7488 20.9421 20.6509 21.1358C16.9255 21.3294 6.53361 20.5548 4.76895 17.0691Z" fill="#3BD7E2" fill-opacity="0.8"/>
<path d="M24.9427 13.158C29.4218 8.73344 32.8609 4.11543 34.1722 2.82029C35.8921 1.12167 37.9291 1.16711 38.5161 1.74686C39.1059 2.32867 39.1498 4.33989 37.4307 6.03782C36.2511 7.20076 32.4802 10.0602 28.4779 13.8369" stroke="#333333" stroke-miterlimit="10" stroke-linecap="round" stroke-linejoin="round"/>
<path d="M34.166 8.83353C37.108 10.1686 38.8857 11.9175 38.8857 13.8454C38.8857 14.6028 38.6068 15.3395 38.0909 16.028C37.345 17.0264 36.1103 17.9284 34.4937 18.6996C31.0428 20.3665 25.8553 21.4193 20.0627 21.4193C14.2701 21.4193 9.08257 20.3665 5.63168 18.6996C4.015 17.9284 2.78036 17.0264 2.03441 16.028C1.51922 15.3395 1.23965 14.6028 1.23965 13.8454C1.23965 9.66597 9.66818 6.27148 20.0627 6.27148C23.7924 6.27148 27.2642 6.70526 30.1853 7.46265" stroke="#333333" stroke-miterlimit="10" stroke-linecap="round" stroke-linejoin="round"/>
<path d="M5.63166 18.7002C5.54103 18.5976 5.4504 18.4936 5.37372 18.3903C4.95543 17.8189 4.72537 17.2205 4.72537 16.6001C4.72537 13.1774 11.5923 10.4033 20.0626 10.4033C22.5515 10.4033 24.9009 10.6443 26.9714 11.0719" stroke="#333333" stroke-miterlimit="10" stroke-linecap="round" stroke-linejoin="round"/>
<path d="M30.4362 12.0356C33.4828 13.1648 35.3999 14.7967 35.3999 16.6006C35.3999 17.2203 35.1699 17.8194 34.7516 18.3908C34.6749 18.4941 34.5843 18.5981 34.4937 18.7007" stroke="#333333" stroke-miterlimit="10" stroke-linecap="round" stroke-linejoin="round"/>
<path d="M2.03583 16.0337L10.0328 26.0367" stroke="#333333" stroke-miterlimit="10" stroke-linecap="round" stroke-linejoin="round"/>
<path d="M38.0895 16.0337L30.0925 26.0367" stroke="#333333" stroke-miterlimit="10" stroke-linecap="round" stroke-linejoin="round"/>
<path d="M10.0307 26.0342C11.3134 27.7486 15.3151 28.9949 20.0627 28.9949C24.8102 28.9949 28.8119 27.7479 30.0946 26.0342" stroke="#333333" stroke-miterlimit="10" stroke-linecap="round" stroke-linejoin="round"/>
<path d="M15.5319 18.7001C15.5319 18.7001 18.7143 17.2886 20.0626 17.2886C21.6891 17.438 23.6648 18.7001 25.6984 18.7001" stroke="#333333" stroke-miterlimit="10" stroke-linecap="round" stroke-linejoin="round"/>
<path d="M18.5526 13.2715C18.5526 13.2715 10.9753 13.5593 10.9997 16.5999" stroke="#333333" stroke-miterlimit="10" stroke-linecap="round" stroke-linejoin="round"/>
</svg>
