<svg width="36" height="32" viewBox="0 0 36 32" fill="none" xmlns="http://www.w3.org/2000/svg">
<path d="M20.5 0.499946C15.3 -0.300054 9.00002 4.16661 6.50002 6.49995C3.00002 9.21444 -1.49998 21 1.50002 26.5C4.50002 32 8.00002 31.5 11.5 31C14.3 30.6 15.6667 27.5 16 26C16.3333 25.1667 17.5 23.3 19.5 22.5C21.5 21.7 24.3333 21.8333 25.5 22C34.3 21.2 35.8333 14.6667 35.5 11.5C34.5 4.5 27 1.49995 20.5 0.499946Z" fill="#D8F7F9"/>
<path d="M20 2.99997C15.2 2.19997 10 6.99997 8.00001 9.49997C7.60001 10.2999 10.5 11.8333 12 12.5L18.5 14H23.5L29.5 14.5C33.1 14.5 33.3333 12.5 33 11.5C29 4.3 22.6667 2.83331 20 2.99997Z" fill="#62DFE8"/>
<path d="M12 14.5001C8.4 12.5001 6.16667 12.6668 5.5 13.0001C3.9 15.4002 3.5 19.0001 3.5 20.5L4 26L6.5 29H9.5L13 27.5L14.5 23.5L17 21L18 19.5C17.5 18.6667 15.6 16.5001 12 14.5001Z" fill="#62DFE8"/>
<path d="M26 15.9999C23.2 15.5999 20.5 16.1665 19.5 16.4999C19.5 17.4998 22 20 25.5 19.5C28.3 19.1 29 17.6667 29 17L26 15.9999Z" fill="#62DFE8"/>
<path d="M8.7012 32C6.52952 32 4.5599 31.164 3.00524 29.5823C0.87547 27.4156 -0.207693 24.0289 0.0330426 20.2909C0.508888 12.9049 3.09508 8.24728 9.25759 3.6789C12.5048 1.27215 16.2112 0 19.9764 0C24.3317 0 28.6217 1.74302 32.3829 5.04049C35.7656 8.00649 36.8593 12.0541 35.309 15.8676C33.6424 19.9671 29.2944 22.7211 24.4893 22.7211C24.1794 22.7211 23.8637 22.71 23.5513 22.6882C23.1277 22.6586 22.7208 22.6436 22.3414 22.6436C18.1031 22.6436 17.3291 24.4017 16.349 26.6275C15.5761 28.3838 14.6996 30.3743 11.877 31.4114C10.814 31.8018 9.74596 32 8.70202 32C8.7016 32 8.70148 32 8.7012 32ZM19.9762 1.07611C16.4628 1.07611 12.9948 2.27033 9.94649 4.5295C3.99744 8.93954 1.61496 13.2294 1.15584 20.3569C0.933952 23.7998 1.90674 26.8936 3.8246 28.845C5.16116 30.2048 6.84757 30.9236 8.70103 30.9236C8.70131 30.9236 8.70147 30.9236 8.70175 30.9236C9.60732 30.9236 10.5399 30.7495 11.4737 30.4065C13.8489 29.5339 14.5597 27.9191 15.3123 26.2097C16.3171 23.9274 17.3563 21.5673 22.3413 21.5673C22.7479 21.5673 23.1823 21.5831 23.633 21.6147C23.9183 21.6347 24.2064 21.6449 24.4892 21.6449C28.8339 21.6449 32.7606 19.1663 34.2604 15.4775C35.6361 12.0934 34.6502 8.48824 31.6229 5.83382C28.0728 2.72145 24.0454 1.07611 19.9762 1.07611Z" fill="#333333"/>
<path d="M8.04601 29.6475C8.04572 29.6475 8.0456 29.6475 8.04532 29.6475C7.99681 29.6475 7.9473 29.6472 7.89794 29.6468C5.31679 29.623 3.5266 27.3205 2.98663 23.3295C2.36694 18.7494 3.5415 13.1383 6.04095 12.4841C6.20857 12.4403 6.39348 12.4189 6.60637 12.4189C8.225 12.4189 11.1833 13.7254 13.4121 14.9482C14.5045 15.5475 18.1217 17.6233 18.8029 19.1739C19.0903 19.8275 18.8134 20.2375 18.6232 20.4235C18.0324 21.0005 17.461 21.4224 16.9084 21.8304C16.037 22.474 15.2841 23.0299 14.7392 24.0275C14.5589 24.3575 14.4407 24.8076 14.3154 25.2842C13.8315 27.1255 13.1687 29.6475 8.04601 29.6475ZM6.60623 13.4952C6.46955 13.4952 6.38491 13.5099 6.33781 13.5223C4.84348 13.9133 3.49103 18.6725 4.10243 23.1915C4.31997 24.8002 5.12652 28.545 7.90862 28.5706L8.04532 28.5713C12.2916 28.5715 12.7657 26.7668 13.2245 25.0217C13.3662 24.4817 13.5004 23.9716 13.7422 23.5289C14.4014 22.322 15.2854 21.6694 16.2212 20.9783C16.7365 20.5977 17.2692 20.2044 17.7986 19.6908C17.7859 19.6236 17.7096 19.3834 17.2475 18.9144C15.1028 16.7366 8.73812 13.4952 6.60623 13.4952Z" fill="#333333"/>
<path d="M24.9993 20.371C24.6624 20.371 24.3235 20.3362 23.9922 20.2677C21.7903 19.8125 19.7144 18.547 19.1637 17.3241C18.8947 16.7265 19.0372 16.2868 19.204 16.0231C19.4344 15.6587 20.0074 15.2861 22.5087 15.2861C23.9356 15.2861 25.6726 15.422 27.0416 15.6407C29.0454 15.9607 29.8263 16.3399 29.8263 16.9934C29.8263 18.266 27.5702 20.371 24.9993 20.371ZM20.1499 16.6155C20.1273 16.6835 20.143 16.7785 20.197 16.8984C20.5513 17.6853 22.1939 18.795 24.2297 19.2158C24.4834 19.2682 24.7424 19.2949 24.9995 19.2949C26.9543 19.2949 28.4465 17.8027 28.6721 17.1445C27.9997 16.8114 25.2344 16.3626 22.5089 16.3626C20.7808 16.3625 20.261 16.5605 20.1499 16.6155Z" fill="#333333"/>
<path d="M29.6889 15.2925C29.3481 15.2925 29.0161 15.2594 28.702 15.1943C27.2525 14.8933 24.4191 14.5692 21.6227 14.5692C20.6489 14.5692 19.7734 14.6097 19.0199 14.6898C18.86 14.7067 18.6882 14.7153 18.5083 14.7153C15.0653 14.7153 8.22349 11.4796 7.47626 10.3386C7.18391 9.89197 7.49889 9.34743 7.60238 9.1685C8.75741 7.17234 14.6471 2.29004 20.3287 2.29004C25.3489 2.29004 31.4374 6.86421 33.3255 10.7992C33.9681 12.139 33.644 13.1051 33.2588 13.6797C32.6024 14.6593 31.2012 15.2923 29.6889 15.2925ZM21.6227 13.493C24.5021 13.493 27.4344 13.8295 28.9406 14.1423C29.1764 14.1913 29.4282 14.2162 29.6887 14.2162C30.8099 14.2161 31.8639 13.767 32.3121 13.0987C32.6519 12.5915 32.649 11.969 32.3031 11.2482C30.5902 7.67817 24.867 3.36615 20.3289 3.36615C17.0726 3.36615 13.9024 5.18612 12.3028 6.27097C10.0301 7.81202 8.6909 9.33718 8.50163 9.84759C9.34673 10.6585 15.4038 13.6391 18.5085 13.6391C18.6468 13.6391 18.7773 13.6326 18.896 13.62C19.6903 13.5357 20.608 13.493 21.6227 13.493Z" fill="#333333"/>
</svg>
