<svg width="18" height="17" viewBox="0 0 18 17" fill="none" xmlns="http://www.w3.org/2000/svg">
<path d="M11.4932 13.99L11.2794 13.2712C11.4727 13.2136 11.6811 13.2364 11.8574 13.3344L11.4932 13.99ZM15.1113 16.0001L15.8552 15.9044C15.8913 16.185 15.7664 16.4621 15.5322 16.6209C15.298 16.7796 14.9944 16.7931 14.7471 16.6557L15.1113 16.0001ZM14.6214 12.1894L13.8775 12.2851C13.8472 12.0496 13.9303 11.8136 14.1014 11.649L14.6214 12.1894ZM9.11133 15.0832C4.64047 15.0832 0.861328 11.8433 0.861328 7.66662H2.36133C2.36133 10.8537 5.29791 13.5832 9.11133 13.5832V15.0832ZM11.7071 14.7089C10.8894 14.9521 10.0165 15.0832 9.11133 15.0832V13.5832C9.87139 13.5832 10.6003 13.4732 11.2794 13.2712L11.7071 14.7089ZM14.7471 16.6557L11.129 14.6456L11.8574 13.3344L15.4756 15.3445L14.7471 16.6557ZM15.3653 12.0938L15.8552 15.9044L14.3675 16.0957L13.8775 12.2851L15.3653 12.0938ZM17.3613 7.66662C17.3613 9.63706 16.5077 11.4153 15.1414 12.7299L14.1014 11.649C15.2055 10.5867 15.8613 9.18728 15.8613 7.66662H17.3613ZM9.11133 0.25C13.5822 0.25 17.3613 3.48992 17.3613 7.66662H15.8613C15.8613 4.47957 12.9247 1.75 9.11133 1.75V0.25ZM0.861328 7.66662C0.861328 3.48992 4.64047 0.25 9.11133 0.25V1.75C5.29792 1.75 2.36133 4.47957 2.36133 7.66662H0.861328Z" fill="#666666"/>
</svg>
