<svg width="16" height="16" viewBox="0 0 16 16" fill="none" xmlns="http://www.w3.org/2000/svg">
<path d="M6.46858 13.4941H6.46004C4.30311 11.6568 2.02386 9.67562 1.01394 7.34677L1.01397 7.34676L1.0116 7.34146C0.682959 6.60708 0.508328 5.80729 0.500005 4.9957C0.498381 3.91634 0.914599 2.88575 1.64848 2.13557C2.38209 1.38566 3.37054 0.979169 4.38938 1.00082L4.38938 1.00092L4.39919 1.00094C5.24315 1.00232 6.07057 1.25611 6.78304 1.73437C7.09251 1.94358 7.37317 2.19704 7.61667 2.48779L7.99818 2.94333L8.38182 2.48958C8.62739 2.19913 8.90895 1.94501 9.21863 1.73378C9.93055 1.25581 10.7574 1.00221 11.6007 1.00094V1.00103L11.6106 1.00082C12.6295 0.979169 13.6179 1.38566 14.3515 2.13557C15.0854 2.88578 15.5016 3.91641 15.5 4.99581C15.4922 5.80877 15.3176 6.61002 14.9884 7.34563L14.9884 7.34562L14.9861 7.35094C13.9546 9.72948 11.5996 11.7447 9.40287 13.6115L9.39683 13.6165L9.39682 13.6165L9.39335 13.6195C8.90787 14.0313 8.43786 14.4309 8.00315 14.821C7.60712 14.467 7.18124 14.1031 6.74225 13.728C6.69792 13.6901 6.65346 13.6521 6.60888 13.614L6.46858 13.4941ZM8.82392 2.93857L8 3.92705L7.17608 2.93857L7.17616 2.9385L7.16927 2.93058C6.46587 2.12184 5.45953 1.65898 4.40103 1.66673C3.51945 1.65675 2.67352 2.00892 2.04548 2.64043L2.04547 2.64042L2.04252 2.64344C1.43177 3.26804 1.094 4.11947 1.09994 5.00203L1.1 5.00577C1.11009 5.71518 1.26438 6.41494 1.55344 7.05909L1.55334 7.05913L1.55788 7.06871C2.09456 8.19989 2.81882 9.22489 3.69816 10.0964C4.50799 10.9465 5.43373 11.7643 6.22289 12.4426L6.2232 12.4429C6.44252 12.6311 6.6657 12.8208 6.88785 13.0096L6.88801 13.0098L6.88815 13.0099L7.02801 13.1289L7.02816 13.129C7.24154 13.3104 7.46093 13.4974 7.67275 13.6808L8.0176 13.9793L8.22445 13.7805L8.28138 13.7312H8.29748L8.44115 13.5982L8.44123 13.5981L8.96483 13.1507L8.96507 13.1505L9.10268 13.0327C9.10293 13.0325 9.10318 13.0323 9.10342 13.0321C9.32813 12.8414 9.55114 12.6518 9.7704 12.4637L9.77071 12.4634C10.5593 11.7856 11.4863 10.9683 12.2966 10.1135C13.1759 9.2425 13.9001 8.21788 14.4365 7.08701L14.4366 7.08704L14.4402 7.079C14.7346 6.42907 14.8912 5.72179 14.9 5.00481H14.9L14.9 5.00086C14.9039 4.12103 14.5663 3.27288 13.9575 2.65015L13.9556 2.64824C13.3287 2.01377 12.4824 1.6587 11.5996 1.66674C10.5409 1.65881 9.53426 2.12169 8.83073 2.93058L8.83065 2.9305L8.82392 2.93857Z" stroke="#666666"/>
</svg>
