<svg width="12" height="12" viewBox="0 0 12 12" fill="none" xmlns="http://www.w3.org/2000/svg">
<path d="M7.6784 4.22207C7.09687 2.95998 5.3032 2.96 4.72163 4.22207C4.67664 4.31972 4.58987 4.38729 4.48917 4.40297C3.09555 4.61988 2.52199 6.31501 3.49759 7.33356L3.57551 7.41491C3.64824 7.49089 3.68145 7.60028 3.66431 7.70762L3.63618 7.88328C3.41947 9.23665 4.86215 10.2414 6.05641 9.56889C6.14628 9.5184 6.25376 9.5184 6.34374 9.56889C7.53801 10.2414 8.98069 9.23665 8.76397 7.88328L8.73585 7.70762C8.71859 7.60028 8.7518 7.49089 8.82452 7.41491L8.90242 7.33359C9.87806 6.31505 9.30451 4.61988 7.91086 4.40297C7.81029 4.38716 7.7234 4.31959 7.6784 4.22207Z" fill="#DDDDDD"/>
<path d="M11.6801 4.41191C9.4278 4.06872 7.49445 2.62602 6.52432 0.564548L6.46491 0.438302C6.41511 0.332545 6.31244 0.265625 6.19998 0.265625C6.08751 0.265625 5.98473 0.332664 5.93493 0.438302L5.87547 0.56465C4.90537 2.62606 2.97208 4.06872 0.719812 4.41191C0.608369 4.429 0.515956 4.51074 0.481202 4.62295C0.446333 4.73504 0.47539 4.85837 0.555952 4.94058C2.19548 6.61654 2.94013 8.97238 2.56173 11.2862L2.54801 11.37C2.52899 11.4863 2.57456 11.6038 2.66561 11.6731C2.75654 11.7424 2.8771 11.7516 2.97681 11.6966C4.98317 10.5905 7.41669 10.5905 9.42303 11.6966C9.46633 11.7204 9.51351 11.7322 9.56068 11.7322C9.56144 11.7322 9.56222 11.7322 9.56298 11.7322C9.72573 11.7316 9.85741 11.5931 9.85741 11.4224C9.85741 11.3947 9.85387 11.3678 9.84749 11.3422L9.83833 11.2862C9.45993 8.97228 10.2046 6.61638 11.8441 4.94034C11.9247 4.85813 11.9536 4.7348 11.9189 4.62271C11.884 4.51074 11.7915 4.42888 11.6801 4.41191ZM8.71244 7.27609C8.64282 7.34731 8.61103 7.44984 8.62755 7.55046L8.64643 7.66592C8.85801 8.95963 7.48547 9.92813 6.33751 9.29516C6.25137 9.24783 6.14847 9.24783 6.06244 9.29516C4.91443 9.92814 3.54184 8.95959 3.75342 7.66582L3.77229 7.55046C3.78881 7.44984 3.75702 7.34731 3.68728 7.27609L3.63588 7.22354C2.70069 6.26749 3.23994 4.65427 4.56207 4.45278C4.65836 4.43808 4.74154 4.37475 4.78461 4.28321C5.34819 3.08569 7.05169 3.08568 7.61523 4.28321C7.65819 4.37475 7.74148 4.43808 7.83777 4.45278C9.15989 4.65427 9.69911 6.26751 8.76388 7.22351L8.71244 7.27609Z" fill="#DDDDDD"/>
</svg>
