<svg width="15" height="18" viewBox="0 0 15 18" fill="none" xmlns="http://www.w3.org/2000/svg">
<path d="M9.6672 4.71436L5.33398 7.92871" stroke="#666666" stroke-width="1.5" stroke-linecap="round"/>
<path d="M9.6672 13.2861L5.33398 10.0718" stroke="#666666" stroke-width="1.5" stroke-linecap="round"/>
<path fill-rule="evenodd" clip-rule="evenodd" d="M3.16661 11.1432C4.36319 11.1432 5.33322 10.1838 5.33322 9.00032C5.33322 7.81683 4.36319 6.85742 3.16661 6.85742C1.97002 6.85742 1 7.81683 1 9.00032C1 10.1838 1.97002 11.1432 3.16661 11.1432Z" stroke="#666666" stroke-width="1.5"/>
<path fill-rule="evenodd" clip-rule="evenodd" d="M11.833 5.7858C13.0296 5.7858 13.9996 4.82639 13.9996 3.6429C13.9996 2.45941 13.0296 1.5 11.833 1.5C10.6364 1.5 9.66638 2.45941 9.66638 3.6429C9.66638 4.82639 10.6364 5.7858 11.833 5.7858Z" stroke="#666666" stroke-width="1.5"/>
<path fill-rule="evenodd" clip-rule="evenodd" d="M11.8326 16.5002C13.0292 16.5002 13.9992 15.5407 13.9992 14.3573C13.9992 13.1738 13.0292 12.2144 11.8326 12.2144C10.636 12.2144 9.66602 13.1738 9.66602 14.3573C9.66602 15.5407 10.636 16.5002 11.8326 16.5002Z" stroke="#666666" stroke-width="1.5"/>
</svg>
